{"glyphs":{"0":{"ha":867,"x_min":25,"x_max":842,"o":"m 25 406 q 51 574 25 494 q 126 712 76 653 q 249 805 176 771 q 417 839 322 839 q 586 808 508 839 q 721 723 664 778 q 810 590 778 668 q 842 415 842 511 q 811 247 842 324 q 726 115 781 169 q 594 29 671 60 q 428 -1 518 -1 q 267 29 340 -1 q 139 114 193 60 q 55 243 85 168 q 25 406 25 318 m 140 450 q 160 314 140 381 q 219 194 179 247 q 317 110 258 142 q 453 78 375 78 q 563 103 514 78 q 644 169 611 128 q 696 265 678 211 q 714 375 714 318 q 697 519 714 451 q 642 639 679 588 q 544 720 604 690 q 401 750 485 750 q 294 726 342 750 q 212 663 246 703 q 159 567 178 622 q 140 450 140 513 z "},"1":{"ha":286,"x_min":29,"x_max":247,"o":"m 50 11 q 56 23 50 15 q 67 38 61 31 q 79 52 74 46 q 86 61 85 58 q 90 114 90 88 q 86 154 90 133 l 86 496 q 76 608 86 557 q 29 689 67 658 l 29 692 q 32 702 29 696 q 40 711 35 708 l 96 739 q 124 756 107 744 q 157 778 140 767 q 190 797 174 789 q 218 806 207 806 q 225 803 226 806 q 224 793 224 801 l 224 56 q 235 31 224 44 q 247 6 247 17 l 96 6 q 67 -1 82 -1 q 55 1 60 -1 q 50 11 50 3 z "},"2":{"ha":681,"x_min":24,"x_max":658,"o":"m 74 14 q 108 79 94 57 q 132 113 121 101 q 158 132 143 125 q 197 150 172 139 q 293 201 246 172 q 377 267 340 229 q 436 351 414 304 q 458 460 458 399 q 408 624 458 564 q 250 683 358 683 q 133 655 186 683 q 36 583 81 626 l 24 583 q 24 602 24 588 q 26 636 25 617 q 31 676 28 656 q 36 711 33 696 q 65 749 39 729 q 125 785 92 768 q 190 813 158 801 q 236 828 222 825 q 278 833 256 832 q 319 833 300 833 q 430 811 378 833 q 522 751 482 789 q 585 663 561 714 q 608 553 608 611 q 590 433 608 483 q 538 341 571 383 q 458 257 504 299 q 358 161 413 215 q 358 156 358 160 q 357 153 357 153 q 371 139 357 139 q 504 144 438 139 q 638 150 571 150 q 651 148 644 150 q 658 136 658 146 l 658 133 q 644 102 654 124 q 623 58 635 81 q 598 17 611 35 q 575 0 585 0 l 103 0 q 87 3 100 0 q 74 14 74 6 z "},"3":{"ha":642,"x_min":24,"x_max":615,"o":"m 38 15 q 129 -34 79 -21 q 235 -47 179 -47 q 321 -31 281 -47 q 391 13 361 -15 q 438 81 421 42 q 454 165 454 119 q 430 254 454 218 q 368 313 406 290 q 284 344 331 335 q 192 354 238 354 l 171 354 q 167 360 169 356 q 165 365 165 364 l 165 371 q 188 401 171 381 q 226 449 204 422 q 275 506 249 476 q 326 565 301 536 q 347 588 333 575 q 375 615 361 601 q 399 644 389 629 q 410 674 410 658 l 410 682 q 383 685 390 685 q 361 682 375 686 l 65 682 q 59 688 60 683 q 58 696 58 693 q 65 730 58 707 q 79 776 71 753 q 97 815 88 799 q 110 832 106 832 l 610 832 q 615 822 615 832 l 615 804 q 490 653 553 728 q 371 499 428 578 q 370 496 371 497 q 369 493 369 494 q 383 478 369 485 q 413 464 396 471 q 450 451 431 457 q 482 438 469 444 q 537 394 513 421 q 578 336 561 368 q 606 269 596 304 q 615 200 615 233 q 590 62 615 122 q 517 -40 564 1 q 405 -103 469 -82 q 263 -125 340 -125 q 183 -122 225 -125 q 105 -106 140 -119 q 47 -63 69 -92 q 24 15 24 -35 l 38 15 z "},"4":{"ha":667,"x_min":4,"x_max":643,"o":"m 374 233 l 4 233 q 18 281 4 251 q 53 349 32 311 q 103 428 75 386 q 160 510 132 469 q 216 588 189 550 q 263 656 243 626 q 282 690 267 663 q 315 749 297 718 q 349 803 333 779 q 368 825 364 826 l 510 825 l 510 324 q 516 319 510 319 q 529 318 522 318 q 540 317 539 318 l 635 317 q 639 307 635 317 q 643 276 643 297 q 638 233 643 257 l 513 233 q 509 230 510 233 q 508 204 508 226 q 508 133 508 182 q 508 -3 508 86 l 508 1 l 372 1 l 374 233 m 140 318 q 142 317 140 317 l 332 317 q 349 316 342 317 q 360 315 356 315 q 372 320 369 315 q 374 344 374 325 l 374 667 q 363 672 371 672 q 351 667 354 672 l 174 378 l 140 318 z "},"5":{"ha":786,"x_min":11,"x_max":772,"o":"m 11 -11 q 38 -15 25 -11 q 62 -25 50 -19 q 85 -36 74 -31 q 111 -46 97 -42 q 139 -53 128 -50 q 159 -57 150 -56 q 178 -58 168 -58 q 203 -58 188 -58 q 311 -36 265 -58 q 388 24 357 -14 q 435 112 419 61 q 450 221 450 163 l 450 271 q 407 350 432 319 q 349 399 382 381 q 276 427 315 418 q 189 443 236 436 q 183 449 186 444 q 178 454 179 453 l 178 457 q 183 474 178 461 q 194 499 188 486 q 206 524 200 513 q 217 538 213 535 q 238 585 225 556 q 267 649 251 615 q 298 717 282 683 q 327 780 314 751 q 349 826 340 808 q 361 843 358 843 l 767 843 q 772 833 772 843 l 772 826 q 767 794 772 814 q 753 754 763 774 q 732 719 744 735 q 706 699 719 703 l 461 699 q 358 676 396 699 q 321 597 321 654 q 338 579 321 588 q 379 563 356 571 q 426 548 403 556 q 461 532 450 540 q 533 470 503 499 q 583 410 563 442 q 613 340 603 379 q 622 246 622 300 q 592 88 622 158 q 507 -35 561 17 q 380 -114 453 -86 q 224 -142 307 -142 l 214 -142 q 151 -141 179 -142 q 99 -131 122 -140 q 53 -98 75 -121 q 11 -29 32 -75 l 11 -11 z "},"6":{"ha":753,"x_min":19,"x_max":732,"o":"m 19 306 l 19 375 q 72 653 19 535 q 214 851 125 771 q 419 976 303 931 q 660 1039 535 1022 l 668 1039 q 688 1033 676 1039 q 708 1017 699 1026 q 725 997 718 1007 q 732 978 732 986 q 726 967 732 969 q 540 935 626 967 q 383 849 453 904 q 263 718 314 794 q 182 550 211 642 l 171 515 q 174 490 171 504 q 190 476 176 476 q 299 567 231 539 q 440 594 368 594 q 550 572 503 594 q 629 510 597 549 q 677 418 661 471 q 693 307 693 365 q 669 187 693 243 q 604 89 646 131 q 507 23 563 47 q 388 -1 451 -1 q 141 75 238 -1 q 21 306 44 151 l 19 306 m 169 271 q 188 190 169 226 q 236 126 206 153 q 306 85 267 100 q 389 71 346 71 q 469 86 432 71 q 532 129 506 101 q 573 194 558 157 q 588 275 588 231 q 572 341 588 306 q 531 406 556 376 q 478 454 507 435 q 425 474 450 474 l 388 476 l 353 474 l 315 467 q 255 447 282 467 q 209 397 228 426 q 180 333 190 367 q 169 271 169 299 z "},"7":{"ha":689,"x_min":22,"x_max":683,"o":"m 99 14 q 159 106 131 60 q 217 200 188 153 q 293 319 253 258 q 371 440 333 379 q 441 563 408 501 q 494 683 474 624 q 483 692 492 690 q 463 694 474 694 l 442 694 q 271 688 356 694 q 99 682 186 682 q 81 682 92 682 q 59 683 69 682 q 40 683 49 683 q 33 683 33 683 l 22 694 l 22 839 l 28 844 l 75 844 q 260 839 168 844 q 444 833 351 833 l 450 833 q 528 839 492 836 q 593 844 565 842 q 638 848 621 846 q 656 850 654 850 l 664 850 q 677 847 671 850 q 683 836 683 844 q 672 797 683 819 q 644 751 660 774 q 613 707 628 728 q 589 672 597 686 q 415 355 497 511 q 250 39 333 199 q 226 15 240 22 q 194 4 211 7 q 157 1 176 1 q 122 0 139 1 l 114 0 q 99 14 99 0 z "},"8":{"ha":635,"x_min":26,"x_max":610,"o":"m 26 86 q 36 140 32 114 q 49 188 40 165 q 69 232 57 211 q 104 271 82 253 q 118 281 108 275 q 137 296 128 288 q 153 313 146 304 q 161 329 161 321 q 144 353 161 338 q 106 388 128 368 q 66 427 85 407 q 43 465 47 447 q 33 513 36 493 q 31 558 31 533 q 52 678 31 625 q 113 767 74 731 q 205 824 151 804 q 324 843 258 843 q 513 779 443 843 q 582 592 582 715 q 569 536 582 563 q 538 486 557 510 q 499 442 519 463 q 460 404 478 421 q 459 400 460 403 q 458 396 458 397 q 470 377 458 388 q 497 356 482 367 q 527 334 513 344 q 549 315 542 324 q 595 226 581 272 q 610 126 610 181 q 593 17 610 71 q 540 -80 576 -37 q 448 -149 504 -122 q 313 -175 392 -175 q 202 -158 254 -175 q 111 -107 150 -140 q 49 -25 72 -74 q 26 86 26 24 m 126 60 q 151 -3 132 26 q 197 -56 169 -33 q 256 -90 224 -78 q 321 -103 288 -103 q 388 -93 354 -103 q 447 -65 421 -83 q 488 -17 472 -46 q 504 51 504 13 q 477 143 504 100 q 410 219 450 186 q 322 270 369 251 q 235 289 275 289 q 197 276 215 289 q 162 242 178 263 q 136 200 146 222 q 126 160 126 178 l 126 60 m 160 554 q 203 511 178 533 q 256 472 228 489 q 315 442 285 454 q 375 431 346 431 q 419 449 401 431 q 449 492 438 467 q 465 544 460 517 q 471 593 471 572 q 425 726 471 675 q 296 776 379 776 q 190 731 229 776 q 143 621 150 685 l 143 613 q 148 583 143 597 q 160 554 153 568 z "},"9":{"ha":682,"x_min":21,"x_max":661,"o":"m 56 6 q 36 29 42 14 q 31 60 31 44 q 133 63 82 60 q 233 89 185 67 q 333 153 283 111 q 422 249 382 196 q 486 363 461 303 q 511 481 511 422 l 511 488 q 510 496 511 492 q 503 500 508 500 l 500 500 q 393 413 451 440 q 263 386 335 386 l 200 394 q 117 448 151 422 q 62 504 83 474 q 31 572 40 535 q 21 661 21 610 q 42 784 21 728 q 103 881 64 840 q 198 944 143 921 q 319 967 253 967 q 464 931 400 967 q 572 839 528 896 q 638 709 615 782 q 661 560 661 636 q 623 351 661 453 q 517 172 585 250 q 353 46 449 93 q 146 -1 258 -1 q 101 -1 119 -1 q 56 6 82 0 m 110 703 q 127 631 110 665 q 173 572 144 597 q 237 531 201 546 q 310 515 272 515 q 384 526 349 515 q 447 557 419 536 q 490 609 474 578 q 506 683 506 640 q 490 762 506 724 q 447 830 474 800 q 383 878 419 860 q 306 896 347 896 q 225 879 261 896 q 163 835 189 863 q 124 774 138 808 q 110 703 110 739 z "},"B":{"ha":908,"x_min":22,"x_max":885,"o":"m 117 72 q 127 93 117 85 q 151 110 138 101 q 176 130 164 118 q 190 161 188 142 q 199 273 197 217 q 201 386 201 329 l 201 811 q 178 826 194 822 q 144 831 163 831 q 117 829 131 831 q 93 828 104 828 l 22 844 q 33 871 22 849 q 60 918 44 893 q 90 963 75 943 q 113 983 106 983 l 351 983 l 363 972 l 363 953 q 356 867 363 910 q 343 783 349 824 l 343 304 q 347 269 343 285 q 365 254 351 254 q 401 275 394 254 q 408 322 408 296 l 408 457 q 409 487 408 472 q 413 517 410 501 l 413 861 q 424 885 413 864 q 452 931 436 906 q 484 977 468 956 q 507 1006 500 999 q 521 1006 510 1006 q 535 1007 532 1007 q 655 982 607 1007 q 732 914 703 957 q 773 814 761 871 q 785 693 785 757 q 769 647 785 664 q 734 620 753 631 q 699 603 715 610 q 683 586 683 596 q 697 575 683 576 q 713 572 710 574 q 796 527 763 551 q 849 471 829 503 q 877 398 869 439 q 885 304 885 357 q 883 263 885 292 q 876 202 882 233 q 857 146 869 171 q 824 117 844 121 q 812 115 821 117 q 792 113 803 114 q 773 112 782 113 q 763 111 764 111 q 715 91 736 108 q 676 54 694 74 q 641 19 657 35 q 610 4 625 4 l 393 17 l 313 17 q 246 7 279 15 q 181 -1 213 -1 q 161 7 172 -1 q 140 27 150 15 q 124 51 131 39 q 117 72 117 64 m 217 81 q 232 67 217 67 l 235 67 l 396 150 l 690 150 q 718 162 708 150 q 733 191 728 174 q 739 228 738 208 q 740 263 740 247 l 740 282 q 722 362 740 329 q 675 414 704 394 q 608 442 646 433 q 529 451 569 451 q 513 451 521 451 q 496 450 504 451 q 488 458 490 453 q 485 469 485 464 l 485 472 q 531 509 506 492 q 578 547 556 526 q 615 594 600 568 q 629 660 629 621 l 629 692 q 623 749 629 721 q 602 800 617 778 q 565 836 588 822 q 507 850 542 850 l 503 850 q 484 849 493 850 q 469 840 475 847 q 467 799 467 817 q 467 763 467 781 l 467 461 q 467 333 467 393 q 468 250 467 274 q 448 227 467 240 q 401 199 429 214 q 341 169 374 185 q 281 139 308 154 q 235 109 253 124 q 217 81 217 94 z "},"C":{"ha":800,"x_min":40,"x_max":771,"o":"m 40 482 l 40 540 q 43 584 40 563 q 54 622 46 606 q 78 638 57 628 q 122 660 99 647 q 163 685 144 672 q 182 710 182 697 q 177 731 182 721 q 167 752 172 742 q 158 773 163 763 q 153 794 153 783 q 166 809 153 806 q 188 817 179 813 q 247 852 224 833 q 288 892 271 871 q 322 940 306 914 q 360 994 338 965 l 385 994 q 453 994 414 994 q 533 992 492 993 q 614 988 574 990 q 686 982 654 985 q 738 975 718 979 q 760 967 758 971 l 760 944 q 759 920 760 939 q 757 881 758 901 q 753 844 756 861 q 749 828 751 828 l 718 828 q 518 839 618 828 q 325 850 418 850 q 311 847 314 850 q 308 833 308 844 q 324 744 308 793 q 354 656 339 696 l 465 350 q 479 317 471 335 q 488 283 488 300 l 488 278 q 467 253 481 268 q 439 221 453 238 q 415 188 425 204 q 404 158 404 171 q 420 145 404 147 q 461 143 436 143 l 507 143 q 615 151 563 143 q 721 178 668 158 q 747 191 740 185 q 771 197 753 197 l 771 178 l 693 28 q 663 13 688 18 q 609 3 639 7 q 551 -1 579 0 q 510 -1 522 -1 q 308 33 394 -1 q 161 129 221 67 q 72 281 101 192 q 42 482 42 371 l 40 482 m 188 439 q 201 363 188 408 q 238 274 214 317 q 295 200 263 231 q 365 169 328 169 l 365 194 q 361 206 365 194 q 352 234 357 218 q 342 267 347 250 q 332 294 336 283 q 316 344 326 311 q 293 415 306 376 q 267 493 281 453 q 242 566 254 533 q 218 619 229 599 q 200 640 207 640 q 195 640 197 640 q 193 639 193 639 l 188 606 l 188 439 z "},"D":{"ha":979,"x_min":26,"x_max":926,"o":"m 26 63 q 60 106 42 78 q 98 169 79 135 q 134 238 117 203 q 165 306 151 274 q 185 362 178 338 q 193 397 193 386 l 271 663 q 286 667 275 664 q 310 676 297 671 q 333 685 322 681 q 349 690 344 689 q 354 693 351 692 q 361 696 357 694 l 371 700 q 431 724 396 710 q 501 753 467 738 q 560 783 535 768 q 593 807 586 797 q 565 829 583 821 q 524 841 546 838 q 480 845 501 844 q 443 846 458 846 q 248 813 338 846 q 76 713 158 779 l 64 713 l 64 747 q 65 808 64 778 q 71 868 67 838 q 92 894 72 879 q 135 921 111 908 q 184 944 160 933 q 221 957 208 954 l 231 960 q 285 975 260 968 q 335 986 311 982 q 385 993 360 990 q 440 996 410 996 q 564 986 503 996 q 682 951 625 976 q 788 876 742 924 q 864 768 833 828 q 910 643 894 708 q 926 515 926 578 q 922 438 926 482 q 908 346 917 393 q 885 253 899 299 q 853 171 871 207 q 812 113 835 135 q 763 90 789 90 l 740 92 q 687 76 710 92 q 643 43 664 61 q 601 10 622 25 q 553 -6 579 -6 q 499 0 525 -6 q 445 12 472 6 q 389 24 418 18 q 326 29 360 29 q 251 28 290 29 q 176 18 213 26 q 139 3 156 13 q 101 -6 122 -6 l 90 -6 q 74 2 85 -6 q 52 19 63 10 q 34 40 42 29 q 26 57 26 50 l 26 60 l 26 63 m 108 79 q 113 67 108 71 q 126 57 118 64 l 129 57 q 162 65 146 57 q 194 83 178 72 q 224 106 210 94 q 254 124 239 117 q 317 148 286 139 q 382 157 347 157 q 522 145 451 157 q 660 118 593 133 q 662 117 660 118 q 665 117 664 117 q 702 156 682 117 q 740 250 722 196 q 770 361 758 304 q 782 454 782 418 q 778 544 782 500 q 761 628 774 588 q 727 705 749 668 q 671 774 706 742 l 657 774 q 653 772 654 774 q 661 764 653 771 l 476 279 q 424 258 458 272 q 348 225 389 243 q 265 186 307 207 q 188 146 222 165 q 131 109 153 126 q 108 79 108 92 m 476 701 q 441 672 456 686 q 414 638 426 658 q 390 589 401 618 q 365 513 379 560 q 362 507 364 511 q 360 501 360 503 l 275 244 q 318 257 301 244 q 346 289 335 269 q 364 331 357 308 q 379 374 371 353 q 392 401 385 383 q 406 441 399 419 q 422 486 414 463 q 438 532 429 510 l 482 688 l 482 692 q 476 701 482 697 z "},"E":{"ha":826,"x_min":36,"x_max":804,"o":"m 36 458 q 42 553 36 507 q 57 646 49 599 l 65 700 q 76 750 71 732 q 90 778 81 768 q 115 792 99 788 q 160 801 131 796 q 241 826 204 808 q 314 865 278 844 l 325 872 l 392 939 l 431 983 l 433 983 q 474 975 443 983 q 547 954 506 967 q 634 926 589 942 q 717 894 679 910 q 779 864 754 878 q 804 842 804 850 q 803 834 804 839 q 803 828 803 829 l 753 722 q 742 715 750 715 q 667 735 713 715 q 572 778 621 754 q 478 821 524 801 q 404 840 433 840 q 392 839 396 840 l 385 839 q 374 828 374 839 q 383 749 374 790 q 402 672 392 707 q 422 613 413 636 q 431 589 431 589 l 758 589 l 758 447 l 458 447 q 456 444 457 447 q 453 439 454 442 l 453 436 q 467 362 453 397 q 481 289 481 326 l 401 167 q 422 147 401 151 q 471 143 443 143 l 518 143 q 583 149 553 143 q 643 162 614 154 q 700 175 672 169 q 760 181 728 181 q 735 119 760 150 q 675 33 711 89 q 652 15 667 22 q 619 2 638 7 q 579 -5 600 -3 q 539 -7 558 -7 q 499 -8 517 -7 q 474 -8 482 -8 l 443 -8 q 272 33 347 -8 q 144 142 197 75 q 64 292 92 208 q 36 458 36 375 m 179 497 q 203 336 179 406 q 292 206 226 267 q 318 184 301 196 q 350 172 335 172 l 353 172 q 364 183 360 176 q 358 245 361 213 q 342 306 354 278 l 231 750 l 226 750 q 206 734 214 750 q 193 693 199 718 q 185 638 188 668 q 181 580 182 608 q 179 529 179 551 q 179 497 179 507 z "},"F":{"ha":763,"x_min":6,"x_max":746,"o":"m 6 -143 q 7 -137 6 -139 l 101 -43 q 118 -37 107 -37 q 147 -49 133 -37 q 172 -74 160 -60 q 196 -99 183 -87 q 224 -110 208 -110 q 229 -104 229 -110 l 229 -89 q 226 -8 229 -49 q 217 74 224 33 q 210 112 213 97 q 205 138 207 126 q 200 165 203 150 q 192 205 197 179 q 180 270 188 231 q 160 372 172 310 l 157 385 q 127 430 150 421 q 72 439 104 439 l 14 438 q 27 463 14 447 q 58 496 40 479 q 92 527 75 513 q 118 551 110 542 l 118 563 l 100 663 q 110 688 100 681 q 135 701 119 694 l 240 785 l 251 785 q 260 752 254 785 q 272 670 265 719 q 284 565 278 621 q 296 463 290 508 q 294 443 294 456 q 301 401 294 425 l 351 1 q 355 -12 351 -3 q 365 -21 358 -21 q 383 -15 376 -21 q 392 0 389 -8 q 395 18 394 8 q 396 35 396 28 l 340 585 l 307 832 q 313 853 307 842 q 326 874 318 864 q 343 894 335 885 q 357 913 351 904 q 368 931 361 919 q 381 954 375 943 q 392 973 388 965 q 396 979 397 981 l 449 979 q 594 974 522 979 q 740 968 667 969 l 746 963 l 746 829 l 385 829 l 379 824 l 410 585 l 446 585 q 496 585 456 585 q 582 587 536 586 q 667 589 628 588 q 718 590 707 590 l 724 590 l 724 440 l 413 433 l 463 15 l 463 8 q 457 -10 463 -4 q 381 -67 419 -39 q 305 -122 343 -94 q 231 -181 267 -150 q 163 -249 194 -211 l 160 -249 q 128 -235 153 -249 q 76 -204 103 -222 q 27 -169 49 -186 q 6 -143 6 -151 z "},"G":{"ha":886,"x_min":21,"x_max":861,"o":"m 21 411 q 23 449 21 419 q 27 515 25 479 q 33 583 29 550 q 39 628 36 615 q 47 667 40 640 q 62 722 53 693 q 83 775 71 750 q 111 811 96 800 q 253 833 189 811 q 383 911 318 854 q 401 932 392 918 q 422 960 411 946 q 442 984 432 974 q 464 994 453 994 q 507 990 475 994 q 579 978 539 985 q 663 961 619 971 q 744 941 707 951 q 804 921 781 931 q 828 904 828 911 l 828 894 q 826 842 828 864 q 817 783 824 819 l 622 811 l 422 844 l 390 844 q 399 699 390 772 q 417 556 408 626 q 416 552 417 553 q 415 550 415 551 q 428 538 415 538 q 439 548 426 538 q 467 572 451 558 q 497 601 483 586 q 511 628 511 617 q 514 631 513 631 q 517 633 515 632 l 528 656 q 530 658 528 657 q 533 661 532 660 l 578 661 q 690 640 638 661 q 780 582 742 619 q 840 493 818 544 q 861 379 861 442 q 851 290 861 336 q 825 206 842 244 q 787 143 808 168 q 743 118 765 118 l 725 118 q 665 99 689 118 q 619 58 640 81 q 575 17 597 36 q 522 -1 553 -1 q 344 26 432 -1 q 187 107 257 54 q 72 236 117 160 q 21 411 26 313 m 343 181 q 367 155 343 165 q 427 137 392 144 q 502 126 463 129 q 572 122 542 122 l 576 122 q 642 147 615 122 q 683 208 668 172 q 705 283 699 243 q 711 351 711 322 q 667 477 711 431 q 539 524 624 524 l 524 524 q 494 523 510 524 q 463 518 478 522 q 438 506 449 514 q 422 483 426 497 q 436 397 428 443 q 444 310 444 350 q 428 278 444 293 q 394 247 413 263 q 359 216 375 232 q 343 181 343 200 m 165 503 q 193 337 165 411 q 289 200 221 263 l 297 199 q 311 210 311 199 q 303 339 311 276 q 288 467 294 401 q 268 608 278 540 q 244 750 258 676 q 238 753 242 751 q 233 756 235 754 l 231 756 q 205 726 217 756 q 184 656 193 697 q 170 572 175 615 q 165 503 165 529 z "},"H":{"ha":853,"x_min":22,"x_max":819,"o":"m 372 101 q 387 119 372 103 q 420 153 401 135 q 455 185 439 171 q 475 200 471 200 q 498 185 483 200 q 530 151 513 169 q 566 118 547 133 q 600 103 585 103 q 627 137 614 103 q 649 214 640 171 q 664 297 658 257 q 669 349 669 336 q 622 471 669 432 q 494 510 574 510 q 454 507 476 510 q 412 497 432 504 q 375 477 392 490 q 353 443 358 464 q 348 425 349 432 q 347 413 347 418 q 347 401 347 407 q 342 388 346 396 l 269 -1 q 267 -2 269 -1 q 263 -3 265 -3 l 153 15 q 88 6 121 15 q 22 -3 56 -3 q 25 26 22 13 q 36 54 28 40 q 65 222 50 131 q 90 404 79 313 q 107 581 100 496 q 114 732 114 667 l 114 788 q 126 797 114 792 q 154 808 139 803 q 184 819 169 814 q 203 826 199 824 q 216 835 207 829 q 235 849 225 842 q 253 862 244 856 q 264 871 261 868 l 263 871 q 272 891 263 874 q 292 928 281 908 q 314 965 303 949 q 328 982 325 982 l 335 982 q 399 978 369 982 q 459 968 428 974 q 526 958 490 963 q 608 954 561 954 l 686 954 q 704 953 693 954 q 726 951 715 953 q 744 949 736 950 q 753 949 753 949 l 758 943 l 758 878 q 758 848 758 864 q 756 819 757 832 q 751 797 754 806 q 744 788 749 788 l 358 826 q 328 831 351 828 q 297 838 304 835 l 294 838 q 282 832 286 838 q 275 818 278 826 q 271 801 272 810 q 269 788 269 793 l 269 732 q 265 706 268 725 q 260 663 263 686 q 255 619 257 640 q 253 586 253 597 l 186 171 l 183 143 q 189 139 183 140 q 201 137 194 138 q 214 136 208 136 q 221 136 221 136 l 228 136 q 240 138 235 136 q 247 149 244 140 q 290 376 269 268 q 331 604 311 485 q 427 650 375 633 q 532 667 479 667 q 646 645 593 667 q 737 585 699 624 q 797 494 775 547 q 819 379 819 442 q 806 260 819 314 q 769 143 793 206 q 742 108 761 119 q 701 89 724 96 q 656 76 679 82 q 614 60 632 71 q 590 38 601 53 q 566 10 578 24 q 543 -15 554 -4 q 522 -25 532 -25 q 515 -19 525 -25 q 489 -2 506 -12 q 452 22 472 8 q 414 50 432 36 q 384 77 396 64 q 372 101 372 90 z "},"I":{"ha":729,"x_min":10,"x_max":694,"o":"m 54 110 q 67 129 54 110 q 95 171 79 149 q 127 212 111 193 q 150 231 143 231 q 192 214 167 231 q 245 176 218 197 q 297 139 272 156 q 333 122 321 122 q 347 131 344 122 q 350 149 350 140 l 350 168 q 345 234 346 196 q 341 308 344 272 q 327 372 338 344 q 294 407 317 400 l 222 429 q 215 443 215 432 q 233 466 214 451 q 274 497 251 481 q 315 531 296 514 q 333 563 333 549 q 330 600 333 582 q 326 660 326 618 q 335 717 326 696 q 357 753 343 739 q 388 781 371 768 q 422 813 406 793 l 422 825 q 417 835 422 835 l 206 835 q 194 833 201 835 q 181 829 188 832 q 168 822 174 826 q 161 813 163 818 l 161 810 q 174 788 161 800 q 201 763 186 776 q 228 735 215 749 q 240 710 240 722 q 225 687 240 703 q 191 654 210 671 q 154 624 172 638 q 132 611 136 611 q 110 631 129 611 q 68 676 90 651 q 28 724 46 701 q 10 754 10 747 q 31 778 18 767 q 58 803 44 790 q 85 830 72 817 q 106 857 97 843 q 118 890 111 867 q 134 936 125 913 q 155 978 143 960 q 181 996 167 996 l 189 996 q 331 983 263 988 q 472 978 399 978 q 574 981 524 978 q 674 985 624 985 l 679 985 q 686 984 682 985 q 694 979 690 983 l 694 954 q 683 688 694 819 q 671 422 671 557 q 674 281 671 351 q 678 139 678 210 q 665 124 678 126 q 644 118 653 121 l 478 90 q 428 79 454 86 q 383 57 403 72 q 364 35 375 50 q 341 4 353 19 q 319 -22 329 -11 q 303 -33 310 -33 q 272 -24 293 -33 q 222 1 250 -14 q 165 34 194 17 q 110 67 135 51 q 70 95 86 83 q 54 110 54 107 m 465 422 q 467 335 465 379 q 472 253 468 290 q 485 188 476 215 q 506 151 493 160 q 538 178 535 161 q 550 218 542 194 l 544 813 q 534 831 542 828 q 511 835 526 835 q 488 815 496 835 q 474 765 479 796 q 467 699 468 735 q 465 628 465 663 l 465 532 l 465 422 z "},"J":{"ha":546,"x_min":19,"x_max":525,"o":"m 40 -35 q 42 -29 40 -31 l 153 82 l 164 82 q 200 42 176 67 q 249 -6 224 17 q 295 -46 274 -29 q 325 -62 317 -62 l 342 -62 q 344 -49 342 -62 q 347 -29 346 -36 l 347 -12 q 342 190 343 106 q 331 335 342 275 q 291 435 319 396 q 203 499 263 474 q 202 503 203 500 q 201 507 201 506 q 219 533 201 522 q 258 553 236 544 q 301 570 281 563 q 325 588 321 578 q 334 617 332 601 q 336 650 336 633 l 336 715 q 337 728 336 718 q 338 751 338 739 q 340 774 339 763 q 342 788 342 785 l 342 793 q 338 817 339 801 q 336 832 336 832 l 314 838 l 36 838 q 23 845 26 838 q 19 860 19 853 l 19 993 l 50 999 q 166 995 108 999 q 283 992 224 992 q 394 998 340 992 q 506 1004 449 1004 q 525 993 517 1004 l 525 974 q 521 942 525 956 q 514 910 517 928 q 489 661 499 783 q 479 413 479 539 q 479 365 479 389 q 481 319 479 343 l 492 -4 l 492 -57 q 462 -80 479 -72 q 426 -92 444 -87 q 390 -101 408 -96 q 358 -118 372 -107 q 339 -140 351 -124 q 314 -172 326 -156 q 289 -201 301 -189 q 269 -214 276 -214 q 242 -202 253 -214 q 219 -179 231 -190 q 175 -145 204 -167 q 115 -102 146 -124 q 63 -62 85 -81 q 40 -35 40 -43 z "},"K":{"ha":749,"x_min":31,"x_max":726,"o":"m 36 25 l 36 771 q 44 794 36 785 q 63 812 51 804 q 86 826 74 819 q 108 839 99 832 q 143 881 131 856 q 166 931 156 907 q 188 974 176 956 q 219 992 199 992 l 611 1000 q 623 996 621 1000 q 625 985 625 992 l 625 972 q 619 938 622 958 q 612 899 615 918 q 606 865 608 879 q 603 850 603 850 l 592 842 l 192 842 l 181 828 q 179 819 181 826 q 175 810 178 813 l 175 297 q 175 274 175 286 q 176 251 175 263 l 176 156 l 256 156 q 256 167 256 156 q 257 194 257 179 q 258 225 257 210 q 258 250 258 240 l 258 686 l 253 706 q 282 729 260 714 q 329 759 304 744 q 376 785 354 774 q 406 796 399 796 q 449 771 417 796 q 516 713 482 746 q 577 648 550 681 q 604 600 604 615 q 585 574 604 590 q 542 539 567 557 q 494 502 518 521 q 463 469 471 483 q 472 435 464 451 q 490 401 481 418 q 510 369 500 385 q 528 336 521 353 q 550 283 538 311 q 578 228 563 254 q 613 183 593 203 q 658 156 633 163 q 669 151 663 153 q 682 150 675 150 l 704 151 q 726 136 726 151 q 711 93 726 117 q 677 49 696 69 q 642 13 658 28 q 621 -1 625 -1 q 560 16 588 -1 q 508 59 532 33 q 465 117 485 85 q 429 178 446 149 l 419 194 q 396 238 411 210 q 365 294 381 267 q 338 344 350 322 q 325 367 326 365 l 310 367 q 308 350 308 358 q 307 335 307 342 l 307 133 q 307 57 307 93 q 308 8 307 22 l 58 0 l 56 0 q 31 25 31 0 l 36 25 m 307 450 q 315 446 308 447 q 324 444 321 444 l 408 494 q 426 517 421 511 q 432 539 432 524 q 419 563 432 544 q 388 600 406 581 q 352 635 371 619 q 322 650 333 650 l 318 650 q 309 649 311 650 q 307 636 307 647 l 307 450 z "},"L":{"ha":821,"x_min":26,"x_max":800,"o":"m 33 -6 l 33 3 q 40 15 33 3 q 55 42 46 26 q 73 75 64 58 q 89 103 82 92 q 111 131 100 124 q 131 140 122 138 q 148 147 140 143 q 161 164 156 150 q 169 206 167 178 q 172 286 172 233 l 172 799 l 26 853 q 27 856 26 854 q 28 858 28 858 l 128 981 l 149 981 q 166 976 149 979 q 208 968 183 972 q 260 959 233 964 q 306 953 288 954 l 317 947 l 311 858 l 311 272 q 347 276 326 272 q 378 297 367 281 l 378 847 q 393 860 381 853 q 421 874 406 867 q 451 888 436 881 q 472 903 465 896 q 496 926 483 913 q 519 953 508 940 q 538 976 531 967 q 549 988 546 986 l 800 857 l 717 747 q 714 746 717 746 q 708 746 711 746 q 667 758 690 746 q 621 783 644 769 q 573 808 597 796 q 528 819 549 819 l 518 819 q 517 792 517 813 q 517 764 517 771 l 517 292 l 422 269 q 373 251 404 264 q 310 221 342 238 q 253 186 278 204 q 222 153 228 168 l 244 147 q 311 149 278 149 q 381 149 346 149 q 744 136 563 149 l 744 125 q 737 117 742 122 q 727 105 732 111 q 717 93 722 99 q 711 86 713 88 l 678 42 q 667 27 674 36 q 654 10 661 18 q 640 -4 647 1 q 625 -10 633 -10 q 620 -9 624 -10 q 617 -8 617 -8 q 482 6 546 3 q 344 8 418 8 l 33 -6 z "},"M":{"ha":1261,"x_min":19,"x_max":1235,"o":"m 19 10 q 26 34 19 24 q 38 56 33 44 q 98 219 68 135 q 151 390 128 303 q 190 564 175 476 q 204 738 204 651 q 201 765 204 753 q 199 792 199 778 l 199 794 q 220 808 201 800 q 263 826 239 817 q 310 848 286 836 q 349 872 335 860 q 373 899 357 879 q 406 940 389 919 q 438 978 424 961 q 454 994 451 994 l 649 874 l 643 861 l 643 139 q 671 128 643 132 l 676 128 q 697 131 683 129 q 710 133 710 133 l 710 844 q 718 863 710 851 q 737 888 726 875 q 758 913 747 900 q 776 933 769 925 l 782 939 l 810 994 l 846 1000 q 988 976 924 1000 q 1097 906 1051 951 q 1168 797 1143 861 q 1193 654 1193 733 q 1168 472 1193 563 q 1104 272 1143 381 q 1091 243 1100 261 q 1072 206 1082 225 q 1055 170 1063 188 q 1047 143 1047 153 q 1053 135 1047 136 q 1065 133 1058 133 l 1235 139 q 1220 109 1235 131 q 1188 65 1206 88 q 1154 24 1169 42 q 1138 6 1139 6 l 860 6 l 860 22 q 923 150 890 82 q 982 291 956 218 q 1026 440 1008 364 q 1043 590 1043 515 q 1031 687 1043 642 q 992 766 1018 732 q 925 819 965 800 q 829 839 885 839 l 793 839 q 768 809 774 832 q 763 758 763 786 l 763 538 q 765 517 763 519 l 928 517 q 923 507 928 519 q 913 478 918 494 q 903 445 908 461 q 899 425 899 429 l 776 425 q 767 415 767 425 l 767 6 l 511 6 l 511 400 q 509 415 508 407 q 506 422 510 422 l 382 422 l 382 433 q 388 450 382 438 q 402 476 394 463 q 417 500 410 489 q 426 511 424 511 l 488 511 q 497 510 493 511 q 504 510 501 510 q 511 517 511 510 l 511 633 q 508 705 511 669 q 493 767 504 740 q 458 811 482 794 q 396 828 435 828 l 393 828 q 381 803 389 826 q 365 746 374 781 q 348 669 357 711 q 332 587 339 626 q 319 513 325 547 q 310 461 313 479 q 276 364 294 417 q 240 265 257 311 q 210 187 222 218 q 199 156 199 156 l 199 150 q 233 143 199 146 q 310 139 267 140 q 396 138 354 138 q 457 138 439 138 q 448 104 457 122 q 426 68 439 86 q 399 33 413 50 q 376 6 385 17 l 346 4 l 207 3 l 36 -1 q 19 10 19 -1 z "},"N":{"ha":954,"x_min":24,"x_max":925,"o":"m 178 6 q 174 10 176 7 q 172 17 172 14 l 175 19 l 175 418 q 161 429 175 429 q 151 428 156 429 q 142 428 147 428 l 40 439 q 45 454 40 442 q 56 481 50 467 q 69 506 63 494 q 81 518 76 518 l 181 518 l 181 772 q 180 792 181 779 q 178 817 179 804 q 177 839 178 829 q 176 850 176 849 l 36 850 l 25 856 q 24 860 25 856 q 24 867 24 864 q 33 898 24 876 q 55 942 43 919 q 78 983 67 965 q 92 1000 89 1000 l 336 992 l 321 883 l 321 276 q 319 242 321 269 q 317 192 317 215 q 318 166 317 176 q 324 156 319 156 l 388 156 q 397 161 394 156 l 397 789 q 398 801 397 793 q 399 817 399 808 q 401 831 400 825 q 403 839 401 838 l 481 1006 q 499 1006 483 1006 q 522 1007 515 1007 q 676 985 604 1007 q 803 918 749 963 q 888 807 857 874 q 919 653 919 740 q 897 476 919 561 q 842 306 875 390 q 809 238 828 272 q 786 167 790 203 l 786 165 q 792 156 786 156 l 919 156 q 924 151 924 156 q 925 144 925 147 q 917 108 925 132 q 898 60 910 85 q 874 18 886 36 q 851 0 861 0 l 747 6 l 594 -1 q 580 1 586 -1 q 574 15 574 4 q 586 59 574 39 q 608 100 599 79 q 651 213 632 158 q 687 322 669 267 q 721 433 704 376 q 758 550 738 489 l 758 575 q 748 675 758 626 q 714 761 738 724 q 650 822 690 799 q 550 844 610 844 l 542 844 q 505 843 522 844 q 475 832 488 842 q 455 803 463 822 q 447 746 447 783 l 447 521 l 493 521 l 561 528 q 586 508 586 528 q 582 490 586 504 q 571 461 578 476 q 556 434 564 446 q 542 422 549 422 l 458 422 q 451 415 456 422 q 447 406 447 408 l 447 11 q 436 2 447 4 q 414 0 425 0 l 364 6 l 178 6 l 178 6 z "},"O":{"ha":1096,"x_min":24,"x_max":1056,"o":"m 274 31 q 220 25 246 31 q 169 13 194 19 q 119 0 144 6 q 68 -6 93 -6 q 36 3 49 -6 q 24 33 24 13 q 24 50 24 47 q 24 53 24 53 q 28 53 25 53 q 36 64 31 54 q 107 228 79 143 q 153 399 135 313 q 183 574 171 485 q 207 750 194 663 q 310 783 260 771 q 414 819 361 796 q 483 867 454 836 q 538 929 511 899 q 596 982 565 960 q 671 1004 626 1004 q 833 965 761 1004 q 953 861 904 925 q 1029 716 1003 797 q 1056 551 1056 635 q 1051 490 1056 529 q 1040 405 1047 451 q 1022 308 1032 358 q 998 215 1011 258 q 970 136 985 171 q 940 86 956 101 q 930 81 939 85 q 918 75 921 76 q 895 71 914 74 q 855 65 876 68 q 815 58 833 61 q 792 53 796 54 q 757 37 774 49 q 724 13 740 25 q 690 -8 707 1 q 656 -17 674 -17 q 560 -9 607 -17 q 465 7 513 -1 q 370 23 418 15 q 274 31 322 31 m 482 315 q 451 300 474 311 q 402 276 428 289 q 353 251 376 263 q 322 236 331 240 q 269 206 306 226 q 196 160 232 185 q 132 109 160 135 q 104 64 104 83 q 105 58 104 63 q 106 53 106 54 q 168 76 140 58 q 225 111 196 93 q 288 143 254 129 q 371 157 322 157 q 471 154 424 157 q 574 144 518 151 q 619 136 594 142 q 668 124 643 131 q 717 114 693 118 q 764 110 742 110 l 792 110 q 873 301 850 203 q 896 507 896 399 q 880 621 896 561 q 831 730 864 681 q 750 811 799 779 q 636 843 701 843 q 615 842 629 843 q 597 831 600 840 l 482 315 m 265 263 q 305 274 289 263 q 331 304 321 286 q 347 344 342 322 q 357 383 353 365 q 374 469 364 417 q 392 572 383 522 q 408 657 401 621 q 414 694 414 693 l 414 753 q 402 752 411 753 q 383 749 393 751 q 366 745 374 747 q 357 740 358 743 l 265 304 l 265 263 z "},"P":{"ha":865,"x_min":28,"x_max":822,"o":"m 56 -160 l 56 703 q 41 783 54 739 q 28 867 28 826 l 28 869 q 35 872 28 869 q 80 878 43 874 q 194 886 117 882 l 194 -8 q 210 -26 199 -24 q 233 -28 222 -28 q 243 -27 236 -28 q 250 -25 250 -26 l 268 -8 l 268 586 q 271 614 271 603 q 271 638 271 626 q 271 660 271 649 q 269 686 271 671 l 269 892 q 278 908 269 896 q 298 934 288 919 q 319 963 308 949 q 333 986 329 978 q 341 1002 338 992 q 356 1014 344 1013 l 386 1014 q 572 981 490 1014 q 708 888 653 949 q 793 743 764 828 q 822 554 822 658 q 814 455 822 506 q 793 354 806 404 q 765 256 781 304 q 733 161 749 207 q 728 145 731 153 q 722 131 725 138 q 700 108 718 115 q 659 99 682 101 q 614 94 636 96 q 578 86 592 92 q 553 65 565 79 q 528 35 540 50 q 506 8 517 19 q 483 -4 494 -4 q 447 5 465 -4 q 412 24 429 14 q 376 44 394 35 q 339 53 357 53 l 333 53 q 323 44 329 50 q 317 36 317 38 l 317 -164 l 53 -160 l 56 -160 m 319 256 q 319 254 319 254 q 321 253 321 254 q 330 233 325 238 q 347 221 335 228 l 350 219 q 391 198 363 213 q 451 169 419 183 q 510 145 482 156 q 547 135 538 135 q 580 157 565 135 q 607 213 594 179 q 628 288 619 247 q 644 363 638 328 q 653 424 650 399 q 656 453 656 449 q 659 487 656 463 q 663 549 663 511 l 663 557 q 661 604 663 582 q 653 649 660 626 q 633 699 647 672 q 594 758 619 725 q 491 838 554 811 q 363 864 428 864 q 336 855 349 864 q 319 833 324 846 l 319 256 z "},"Q":{"ha":964,"x_min":28,"x_max":936,"o":"m 353 -43 q 372 -28 353 -39 q 415 -4 392 -17 q 461 19 439 8 q 490 35 483 31 q 602 128 550 78 q 692 235 654 178 q 752 359 731 293 q 774 501 774 425 q 749 641 774 578 q 678 750 724 704 q 568 822 632 796 q 428 847 504 847 q 401 844 411 847 q 390 822 390 840 l 392 808 q 476 545 436 676 q 556 281 517 414 q 569 247 561 263 q 578 213 578 231 l 578 199 q 549 172 578 194 q 485 119 521 149 q 414 62 449 90 q 365 19 379 33 l 357 19 q 313 28 338 19 q 272 46 289 36 q 171 121 213 78 q 100 216 129 164 q 54 328 71 268 q 28 454 38 388 l 28 463 q 45 616 28 544 q 99 760 63 688 q 150 781 122 774 q 206 794 178 788 q 262 810 235 800 q 311 842 289 821 l 365 896 q 382 919 374 904 q 400 951 390 935 q 419 981 410 967 q 436 999 428 994 l 460 999 q 653 962 565 999 q 804 860 742 925 q 901 705 867 794 q 936 510 936 615 q 926 397 936 454 q 893 288 915 340 q 838 188 871 235 q 763 106 806 140 q 720 76 747 94 q 666 39 693 57 q 619 7 639 21 q 599 -8 599 -7 l 599 -25 q 613 -40 599 -33 q 645 -55 628 -47 q 677 -72 663 -62 q 692 -97 692 -82 q 676 -115 692 -100 q 639 -146 660 -129 q 599 -176 618 -162 q 572 -189 579 -189 q 544 -178 564 -189 q 501 -150 525 -167 q 450 -115 476 -133 q 402 -79 424 -96 q 367 -52 381 -62 q 353 -43 353 -42 m 174 503 q 190 392 174 451 q 238 283 207 333 q 315 199 269 232 q 417 165 360 165 q 431 179 431 165 l 431 188 q 428 196 431 189 q 422 210 425 203 q 417 224 419 217 q 414 232 414 231 l 414 231 q 403 270 414 232 q 377 365 393 308 q 342 486 361 421 q 304 608 322 551 q 270 701 286 664 q 247 738 254 738 l 246 738 q 213 698 226 729 q 190 629 199 667 q 178 556 182 592 q 174 503 174 519 z "},"R":{"ha":958,"x_min":18,"x_max":936,"o":"m 501 439 q 524 466 501 451 q 574 497 546 481 q 628 527 603 513 q 658 553 653 542 q 661 570 660 556 q 664 592 663 585 l 664 650 q 657 728 664 692 q 633 793 650 765 q 584 837 615 821 q 506 853 553 853 l 481 853 q 472 833 474 846 q 469 814 469 821 l 469 92 l 475 13 q 467 3 475 4 q 450 1 458 1 l 347 8 l 222 1 q 199 2 211 1 q 186 8 186 3 l 192 14 l 192 819 q 173 833 186 831 q 146 836 160 836 l 122 836 l 36 825 q 22 828 25 825 q 18 842 18 831 q 29 873 18 851 q 56 919 40 894 q 87 963 71 943 q 114 992 103 983 l 142 992 l 222 985 q 278 988 251 985 q 333 992 306 992 q 349 975 349 992 q 346 967 349 971 q 340 958 343 963 l 340 161 q 343 140 340 139 l 414 140 l 414 869 q 433 909 424 885 q 456 957 443 933 q 488 997 469 981 q 533 1014 507 1014 q 665 991 610 1014 q 755 926 719 968 q 808 826 790 885 q 825 694 825 767 l 825 642 q 822 615 824 632 q 819 597 821 599 l 719 542 l 697 518 q 706 498 697 511 q 725 469 714 485 q 747 436 736 453 q 764 408 758 419 q 789 315 778 361 q 815 231 800 268 q 853 169 831 193 q 913 146 876 146 l 931 147 l 936 128 q 923 92 936 115 q 893 46 910 68 q 860 7 876 24 q 836 -10 843 -10 q 763 11 793 -10 q 710 66 732 32 q 674 142 689 100 q 646 227 658 185 q 621 308 633 269 q 593 371 608 346 q 569 393 585 383 q 539 411 554 403 q 513 426 524 419 q 501 439 501 433 z "},"S":{"ha":865,"x_min":22,"x_max":835,"o":"m 22 14 q 32 32 22 14 q 56 74 42 50 q 88 122 71 99 q 118 156 104 144 q 137 158 124 157 q 165 162 150 160 q 194 165 181 164 q 213 167 207 167 l 229 167 q 366 165 299 167 q 501 154 433 163 q 561 147 529 151 q 610 143 593 143 l 640 144 q 679 249 668 193 q 690 358 690 304 q 683 424 690 404 q 646 456 675 444 q 567 477 603 469 q 479 485 532 485 q 425 461 449 485 q 383 408 401 438 q 349 356 364 379 q 321 332 335 332 q 212 353 263 332 q 124 411 161 374 q 67 499 88 449 q 46 608 46 550 q 50 665 46 635 q 63 723 54 696 q 83 771 71 750 q 113 800 96 792 q 181 839 150 819 q 242 880 213 858 q 299 926 271 901 q 357 983 326 951 l 390 983 q 451 969 414 978 q 527 951 488 961 q 607 931 567 942 q 679 912 647 921 q 731 896 711 903 q 751 886 751 889 q 738 860 751 879 q 708 822 725 842 q 673 787 690 803 q 647 771 656 771 q 640 772 644 771 q 635 772 636 772 l 281 850 q 236 827 254 850 q 208 773 218 804 q 193 710 197 742 q 189 660 189 678 q 200 599 189 631 q 233 541 211 567 q 284 499 254 515 q 351 482 314 482 q 388 502 372 482 q 417 548 404 522 q 441 599 429 574 q 468 633 453 624 q 513 638 496 638 q 556 639 531 639 q 660 623 610 639 q 749 577 710 607 q 811 503 788 547 q 835 400 835 458 q 832 322 835 363 q 819 242 829 281 q 788 172 808 204 q 729 122 767 140 q 690 107 711 111 q 651 94 669 103 q 622 76 633 85 q 601 56 611 67 q 581 35 592 46 q 557 11 571 24 l 293 22 l 43 -1 q 27 1 32 -1 q 22 14 22 3 z "},"T":{"ha":950,"x_min":19,"x_max":917,"o":"m 92 54 q 103 84 92 67 q 129 119 114 101 q 158 153 144 136 q 179 183 172 171 q 253 403 219 294 q 311 631 286 513 q 347 655 318 640 q 415 687 376 669 q 499 724 454 704 q 580 762 543 743 q 641 796 617 781 q 665 822 665 811 q 653 833 665 831 q 636 836 640 835 q 583 835 621 835 q 503 835 546 835 q 416 834 454 835 q 346 833 378 833 q 265 836 301 833 q 196 847 229 839 l 190 847 q 173 844 183 846 q 163 842 163 842 l 163 825 l 247 733 q 235 706 247 721 q 208 676 224 692 q 176 646 192 661 q 150 618 160 631 l 139 618 q 122 630 135 618 q 90 659 108 642 q 53 697 72 676 q 19 733 33 717 l 19 736 q 32 759 19 742 q 61 794 44 776 q 94 828 78 813 q 117 847 110 843 l 185 990 l 196 1001 l 213 1001 q 253 997 233 1001 q 293 990 274 993 q 412 980 361 982 q 519 978 463 978 q 658 980 589 978 q 797 985 728 982 q 842 991 819 986 q 889 996 865 996 l 911 996 q 916 983 915 988 q 917 971 917 979 l 911 858 q 838 847 872 844 q 776 844 803 849 q 730 820 749 840 q 706 744 711 800 l 585 332 q 578 328 585 332 q 564 318 572 324 q 547 307 556 313 q 533 299 539 301 q 489 272 521 290 q 417 231 457 254 q 334 182 378 208 q 255 133 290 156 q 196 91 219 110 q 172 64 172 72 q 178 51 172 54 q 190 40 183 47 l 193 39 q 194 40 193 39 q 196 40 194 40 q 280 96 242 74 q 358 131 318 118 q 442 150 397 144 q 547 156 488 156 l 632 156 q 696 155 651 156 q 785 151 740 154 q 865 140 831 147 q 900 119 900 133 q 881 97 900 117 q 837 56 861 78 q 790 16 813 33 q 763 -1 768 -1 q 756 -1 760 -1 q 751 0 751 0 q 662 10 706 7 q 574 16 618 14 q 481 19 529 18 q 379 19 433 19 q 307 14 343 19 q 240 1 271 8 q 185 -12 208 -7 q 153 -18 161 -18 q 134 -10 144 -18 q 114 10 124 -1 q 98 33 104 21 q 92 54 92 46 m 338 251 q 343 247 338 247 l 350 247 q 395 275 378 261 q 423 304 413 289 q 440 339 433 319 q 456 383 447 358 q 459 395 458 390 q 463 407 460 400 q 503 540 483 474 q 539 676 522 607 l 539 679 q 528 688 539 688 q 478 673 497 688 q 449 636 460 658 q 431 588 438 614 q 417 539 424 561 q 412 524 414 532 q 407 511 410 515 l 338 251 z "},"U":{"ha":947,"x_min":26,"x_max":921,"o":"m 53 11 q 59 20 53 14 q 74 35 65 26 q 91 53 82 43 q 104 72 100 63 l 188 150 q 199 165 193 154 q 204 183 204 175 l 143 472 q 130 507 138 486 q 115 550 122 528 q 102 593 107 572 q 97 628 97 614 q 98 639 97 636 q 104 646 99 642 q 110 650 107 649 l 199 728 q 223 751 210 738 q 248 776 236 764 q 268 800 260 789 q 276 817 276 811 q 276 828 276 819 q 271 839 275 836 l 26 839 l 26 850 l 115 989 l 131 989 l 315 972 l 432 978 l 460 689 l 465 661 q 472 611 467 651 q 484 525 478 571 q 497 439 490 479 q 504 389 503 399 q 506 375 504 386 q 510 361 508 364 l 510 338 q 499 322 510 329 l 376 244 q 351 224 367 235 q 319 205 335 214 q 293 187 304 196 q 282 172 282 178 q 288 167 282 167 q 361 163 319 165 q 446 159 403 161 q 531 156 489 157 q 604 152 572 154 q 654 149 636 150 q 668 149 672 149 q 684 163 679 149 q 691 198 689 178 q 693 240 693 218 q 694 278 693 263 l 694 601 q 690 826 694 714 q 677 837 688 835 q 656 839 667 839 l 521 839 q 514 850 514 842 q 524 869 514 851 q 547 908 535 886 q 572 951 560 931 q 588 978 583 971 q 590 981 588 979 q 593 983 592 982 l 724 983 q 797 980 761 983 q 849 961 833 976 l 843 958 l 843 192 q 849 171 843 181 q 864 154 856 161 q 881 143 872 147 q 896 139 890 139 l 906 139 q 917 137 913 139 q 921 125 921 135 q 904 95 921 115 q 865 55 888 75 q 823 19 843 35 q 796 4 803 4 q 768 21 782 4 q 740 58 754 38 q 713 94 726 78 q 688 111 700 111 q 651 95 667 111 q 618 60 635 79 q 582 26 601 42 q 536 10 563 10 q 459 17 497 10 q 375 24 421 24 l 233 24 q 148 19 185 24 q 65 0 111 14 l 63 0 q 53 11 53 0 m 321 294 q 326 279 324 288 q 338 271 328 271 q 369 285 357 271 q 382 317 382 300 l 310 728 q 304 745 308 735 q 293 756 300 756 l 288 756 q 257 722 272 738 q 242 682 242 706 l 242 674 q 243 659 242 667 q 249 644 244 651 l 321 294 z "},"V":{"ha":992,"x_min":24,"x_max":968,"o":"m 168 831 l 24 831 l 24 844 q 32 868 24 850 q 52 907 40 886 q 77 947 64 928 q 101 978 90 967 l 129 978 l 304 967 l 324 967 l 329 961 l 340 878 q 346 872 340 872 l 349 871 q 372 885 358 871 q 398 917 385 899 q 421 956 411 936 q 435 985 431 975 l 504 983 l 915 972 l 963 972 q 968 963 968 971 l 968 956 q 960 896 968 925 q 940 839 951 867 l 840 239 q 824 128 836 182 q 810 121 818 124 q 792 116 801 118 q 776 113 783 114 q 768 111 769 111 q 716 93 742 104 q 668 67 690 82 q 650 49 658 60 q 633 26 642 38 q 616 7 625 15 q 594 -1 607 -1 q 548 5 571 -1 q 501 18 525 11 l 128 -1 q 131 10 129 0 q 135 22 132 19 l 213 133 q 231 142 217 140 q 261 143 246 143 l 269 143 q 292 144 283 143 q 301 150 301 144 l 168 831 m 664 138 q 673 138 667 138 q 679 139 679 139 l 774 811 q 779 821 774 814 q 781 828 785 828 l 351 828 q 344 806 344 828 l 440 289 l 440 250 q 429 236 440 246 q 403 214 418 226 q 375 188 389 201 q 357 167 361 175 q 374 156 360 161 l 664 138 z "},"W":{"ha":1131,"x_min":28,"x_max":1104,"o":"m 510 78 q 473 66 489 78 q 442 41 457 54 q 411 16 426 28 q 375 4 396 4 q 332 8 358 4 q 275 20 306 13 q 214 38 244 28 q 158 60 183 49 q 117 82 133 71 q 101 104 101 93 q 106 114 101 110 l 74 744 q 52 817 58 781 q 29 889 46 853 l 28 897 q 49 916 28 904 q 98 942 71 928 q 151 968 125 956 q 185 989 176 981 l 190 989 q 201 971 196 989 q 211 931 207 953 q 219 892 215 910 q 224 872 222 874 q 225 871 224 871 q 226 871 226 871 q 238 883 228 871 q 258 912 247 896 q 278 942 268 928 q 290 961 288 957 l 301 972 l 351 972 q 425 969 386 972 q 496 950 464 965 q 519 935 506 946 q 546 915 532 925 q 572 897 560 904 q 593 889 585 889 l 596 889 q 616 912 603 894 q 643 948 629 929 q 668 981 657 967 q 683 994 679 994 l 690 994 q 844 972 769 983 q 1000 960 919 960 l 1104 968 q 1101 931 1104 949 q 1090 894 1097 913 l 1018 383 l 1018 385 q 1014 353 1018 382 q 1004 284 1010 324 q 993 202 999 244 q 985 133 988 160 q 967 113 982 119 q 931 103 951 107 q 891 94 911 99 q 857 78 871 89 q 825 53 842 67 q 792 27 808 39 q 765 7 776 15 q 751 -1 754 -1 q 748 -1 750 -1 q 746 0 746 0 q 685 22 718 8 q 619 47 651 35 q 558 69 588 60 q 510 78 529 78 m 235 206 q 270 185 239 199 q 339 159 301 172 q 412 136 376 146 q 460 126 447 126 q 474 128 464 126 q 483 133 485 129 l 483 433 l 325 433 q 326 452 325 439 q 328 480 326 465 q 335 506 331 494 q 346 518 339 518 l 479 518 l 479 571 q 476 669 479 621 q 457 753 474 717 q 406 811 440 789 q 310 833 372 833 l 264 832 q 239 824 251 829 q 213 804 226 819 q 215 801 213 803 l 235 206 m 613 206 q 635 193 615 201 q 683 175 656 185 q 738 156 710 165 q 783 140 765 146 q 801 133 800 133 l 832 125 q 836 139 835 125 q 838 171 838 153 q 841 207 839 189 q 846 233 843 225 l 918 792 l 925 819 q 918 825 925 825 l 690 839 l 601 833 q 602 790 601 815 q 603 734 603 764 q 605 673 604 704 q 606 613 606 642 q 607 552 606 578 q 606 511 608 526 l 782 521 q 776 500 782 513 q 764 475 771 488 q 750 451 757 463 q 740 433 743 439 l 613 433 l 613 206 z "},"X":{"ha":914,"x_min":31,"x_max":888,"o":"m 32 122 q 31 124 32 122 q 31 128 31 126 q 43 139 31 139 q 52 138 47 139 q 61 138 57 138 q 144 157 108 138 q 209 207 181 176 q 260 275 238 238 q 304 350 283 313 q 319 374 310 360 q 337 402 328 388 q 353 431 346 417 q 360 456 360 444 l 360 461 q 346 465 357 463 q 332 467 335 467 q 227 460 279 467 q 122 453 175 453 q 124 469 122 457 q 126 483 125 481 l 143 517 q 147 534 146 526 q 151 548 149 542 q 158 558 153 554 q 175 561 164 561 l 313 549 q 333 549 322 549 q 343 560 343 550 l 343 567 l 260 839 l 249 844 q 235 846 247 844 q 208 848 224 847 q 175 849 192 849 q 149 850 158 850 l 38 850 q 31 856 32 851 q 31 864 31 860 q 36 894 31 871 q 51 942 42 917 q 71 986 60 967 q 93 1006 82 1006 l 100 1006 q 238 1002 168 1006 q 376 994 307 999 q 388 976 385 988 q 393 956 390 964 q 395 934 393 956 q 401 880 397 913 q 411 810 406 847 q 424 740 417 772 q 441 687 432 708 q 460 665 450 665 q 484 690 468 665 q 518 749 500 714 q 556 827 536 785 q 592 905 575 869 q 621 965 608 940 q 638 989 633 989 l 876 989 q 885 978 883 989 q 888 964 888 968 q 886 936 888 956 q 881 896 885 917 q 874 860 878 875 q 865 844 869 844 l 721 844 q 697 833 707 844 q 682 811 688 821 l 565 578 q 561 567 563 575 q 560 556 560 558 q 569 549 560 551 q 591 547 578 547 q 619 545 604 546 q 646 544 635 544 l 654 544 q 671 546 657 544 q 701 549 685 547 q 731 553 717 551 q 749 556 744 556 l 767 556 q 763 531 767 547 q 753 499 758 515 q 740 469 747 482 q 726 456 732 457 l 550 461 q 532 459 539 461 q 525 446 525 457 q 526 431 525 435 q 532 417 528 428 q 582 308 557 358 q 640 219 607 257 q 717 160 672 182 q 826 139 761 139 l 849 139 q 854 128 854 136 l 854 122 q 824 80 839 101 q 794 40 810 58 q 762 10 778 22 q 729 -1 746 -1 q 675 10 706 -1 q 614 40 644 21 q 556 85 583 60 q 515 139 529 111 q 497 178 507 153 q 477 228 488 203 q 455 274 467 253 q 432 300 443 294 l 431 300 q 407 278 421 300 q 374 222 393 256 q 332 149 356 189 q 278 76 308 110 q 210 21 247 43 q 129 -1 174 -1 q 99 11 110 -1 q 78 42 88 24 q 58 81 68 60 q 32 122 47 103 z "},"Y":{"ha":788,"x_min":19,"x_max":799,"o":"m 147 -121 q 158 -108 147 -114 q 185 -99 169 -103 q 217 -91 201 -94 q 243 -85 233 -87 q 271 -74 251 -83 q 310 -51 290 -64 q 344 -24 329 -39 q 360 1 360 -10 q 342 25 360 14 q 296 47 324 36 q 237 69 268 58 q 178 89 206 79 q 132 108 150 99 q 114 125 114 117 l 132 371 q 120 475 125 422 q 109 581 115 528 q 93 685 103 633 q 65 788 83 738 q 55 809 63 796 q 40 836 47 822 q 26 862 32 850 q 19 879 19 874 q 33 892 19 879 q 64 922 46 906 q 101 955 82 939 q 132 976 121 971 l 165 999 q 180 982 175 999 q 188 945 185 965 q 197 908 192 925 q 210 892 201 892 q 241 908 226 892 q 271 945 256 925 q 301 982 286 965 q 335 999 317 999 l 343 999 q 423 983 388 990 q 496 970 458 975 q 578 962 533 965 q 685 958 622 958 q 749 958 718 958 q 793 960 781 958 q 799 949 799 957 l 799 943 q 795 938 797 942 q 793 932 793 933 q 749 805 768 867 q 714 681 731 743 q 682 553 697 618 q 647 421 667 489 q 619 310 635 375 q 584 176 604 246 q 536 38 564 106 q 470 -85 508 -31 q 381 -174 432 -140 q 264 -207 331 -207 q 236 -194 256 -207 q 197 -165 217 -181 q 163 -135 178 -149 q 147 -121 147 -121 m 260 215 q 281 191 260 206 q 329 163 301 176 q 383 140 357 150 q 419 131 410 131 l 424 131 q 446 161 435 131 q 467 232 457 192 q 487 312 478 272 q 504 371 496 351 q 547 580 524 479 q 593 788 571 681 l 593 801 q 586 821 593 818 q 560 826 579 824 q 471 834 515 829 q 387 843 426 839 q 315 851 347 847 q 260 854 282 854 l 221 854 q 215 849 217 853 q 214 840 214 844 l 214 835 l 215 821 q 261 303 261 567 q 261 258 261 281 q 260 215 261 238 z "},"Z":{"ha":879,"x_min":25,"x_max":854,"o":"m 31 22 q 47 60 31 36 q 90 117 64 85 q 150 187 117 149 q 216 266 183 225 q 278 348 249 307 q 326 428 307 389 l 326 433 l 285 439 q 226 432 254 439 q 169 425 199 425 q 175 455 169 438 q 189 489 181 472 q 208 517 197 506 q 232 528 219 528 q 302 524 268 528 q 372 521 336 521 q 403 528 390 521 q 426 550 415 535 q 474 607 443 571 q 537 682 506 643 q 592 756 568 721 q 615 808 615 790 l 615 813 q 610 822 615 821 l 215 850 q 207 848 213 850 q 199 844 201 846 l 197 842 q 213 816 197 832 q 246 782 228 800 q 279 748 264 764 q 294 722 294 732 q 277 694 294 711 q 239 661 260 678 q 201 633 218 644 q 182 621 183 621 q 151 644 176 621 q 98 694 126 667 q 47 747 69 722 q 25 775 25 771 q 40 799 25 785 q 75 830 56 814 q 113 860 94 846 q 138 883 131 874 q 153 916 146 894 q 168 958 160 938 q 189 995 176 979 q 221 1011 201 1011 l 226 1011 q 497 985 368 992 q 767 978 626 978 l 843 978 q 854 967 850 974 l 854 964 q 842 935 854 953 q 813 900 829 918 q 779 865 796 882 q 754 839 763 849 q 723 801 744 826 q 676 743 701 775 q 622 677 650 711 q 572 614 594 643 q 535 564 549 585 q 521 539 521 543 l 521 522 q 538 520 521 522 q 565 517 554 518 l 571 517 q 621 519 590 517 q 671 525 651 522 q 693 528 690 528 q 704 514 704 528 q 685 471 704 493 q 654 433 665 449 l 626 433 q 542 436 583 433 q 458 439 500 439 q 433 425 447 439 q 405 392 419 411 q 378 356 390 374 q 360 328 367 338 q 334 292 353 315 q 296 245 315 269 q 262 199 276 221 q 247 165 247 176 q 249 158 247 160 q 260 156 251 156 l 828 156 q 823 115 828 138 q 809 70 818 92 q 788 29 800 49 q 760 0 775 10 q 729 -1 753 0 q 699 -1 706 -1 q 555 2 626 -1 q 413 6 483 6 q 235 3 324 6 q 57 0 147 0 q 31 22 31 0 z "},"[":{"ha":272,"x_min":35,"x_max":268,"o":"m 46 1115 l 246 1115 q 260 1106 257 1115 q 264 1090 264 1097 q 251 1071 264 1076 l 228 1071 l 197 1071 q 181 1072 189 1071 q 165 1072 172 1072 q 149 1069 156 1072 q 139 1056 142 1067 l 139 1 l 251 1 q 265 -12 263 1 q 268 -32 268 -25 q 264 -45 268 -39 q 251 -51 260 -51 l 51 -51 q 40 -47 44 -51 q 35 -35 35 -42 l 35 1104 l 46 1115 z "},"\u001a":{"ha":613,"x_min":18,"x_max":601,"o":"m 103 -135 l 103 644 l 18 644 l 18 715 l 96 715 l 96 944 q 118 960 96 946 q 167 993 140 975 q 219 1028 194 1011 q 251 1050 244 1044 q 274 1075 263 1061 q 304 1089 285 1089 l 307 1089 q 340 1069 315 1081 q 392 1042 365 1057 q 441 1012 419 1028 q 463 981 463 996 l 463 972 q 438 942 450 958 q 413 910 425 925 q 390 886 401 896 q 371 876 379 876 q 347 884 363 876 q 317 901 332 892 q 286 920 301 911 q 263 933 271 929 l 257 933 q 242 921 244 933 q 240 900 240 908 l 240 744 q 242 719 240 722 q 253 717 243 715 q 253 716 253 717 q 254 717 254 715 l 346 717 q 399 725 381 719 q 430 736 418 731 q 450 746 442 742 q 472 750 458 750 q 502 736 490 750 q 521 702 514 722 q 530 658 528 682 q 532 614 532 635 l 532 578 l 532 203 q 536 161 532 182 q 549 142 539 147 q 572 133 560 136 q 592 124 583 129 q 601 104 601 118 q 584 79 601 97 q 544 42 567 61 q 501 8 522 22 q 474 -7 481 -7 q 470 -6 472 -7 q 468 -6 468 -6 l 413 50 q 385 69 404 57 q 367 97 367 82 q 378 135 367 118 q 390 178 390 153 l 390 483 q 390 506 390 483 q 387 555 389 528 q 380 605 385 582 q 367 628 375 628 l 244 628 l 244 -200 q 230 -212 244 -206 q 195 -223 215 -218 q 155 -231 175 -228 q 125 -235 135 -235 l 121 -235 q 112 -234 117 -235 q 106 -228 107 -233 l 103 -135 z "},"\u001b":{"ha":647,"x_min":22,"x_max":633,"o":"m 118 625 l 65 625 q 36 628 50 625 q 22 644 22 631 q 28 672 22 656 q 42 708 35 688 l 114 711 l 114 936 l 119 953 q 182 982 156 968 q 238 1019 208 996 q 256 1035 246 1025 q 276 1056 265 1046 q 299 1074 288 1067 q 324 1081 311 1081 q 353 1074 339 1081 q 380 1061 367 1068 q 408 1048 393 1054 q 438 1042 422 1042 q 492 1056 465 1042 q 543 1086 519 1071 l 549 1086 q 556 1083 556 1086 q 554 1082 556 1082 q 554 1081 554 1082 l 554 878 q 553 809 554 846 q 553 707 553 772 q 553 648 553 681 q 554 575 554 615 l 554 181 q 567 155 554 163 q 594 142 579 147 q 621 132 608 138 q 633 114 633 126 q 617 77 633 97 q 580 39 600 57 q 542 8 560 21 q 524 -4 525 -4 q 494 10 515 -4 q 449 43 472 25 q 409 78 426 61 q 392 99 392 94 l 404 192 l 404 875 q 392 890 404 881 q 360 910 379 900 q 319 928 342 921 q 279 936 297 936 l 272 936 q 264 935 268 936 q 260 931 260 935 l 260 744 q 261 722 260 732 q 268 711 263 711 l 346 711 l 347 632 l 256 632 l 256 -7 q 255 -102 256 -56 q 250 -197 254 -149 q 228 -211 244 -204 q 194 -224 213 -218 q 157 -233 175 -229 q 129 -236 139 -236 q 119 -231 124 -236 q 114 -219 114 -226 l 114 614 l 118 625 z "}," ":{"ha":372,"x_min":0,"x_max":0,"o":""},"!":{"ha":261,"x_min":18,"x_max":247,"o":"m 115 233 q 103 274 110 249 q 97 322 97 299 q 99 339 97 333 l 46 744 l 46 861 q 53 874 46 869 q 68 878 61 878 l 171 878 q 182 875 174 878 q 193 867 190 872 l 193 779 q 191 748 193 786 q 185 648 189 710 q 175 513 181 586 q 162 376 169 440 q 146 269 154 313 q 129 226 138 226 l 125 226 q 115 233 117 226 m 247 51 q 188 -3 214 28 q 131 -61 163 -35 q 76 -3 104 -31 q 18 51 47 24 q 76 108 47 79 q 132 167 104 136 q 188 107 158 135 q 247 51 217 79 z "},"\"":{"ha":301,"x_min":47,"x_max":261,"o":"m 243 811 q 225 801 238 800 q 203 806 213 801 q 196 825 199 807 q 193 869 193 843 q 194 927 193 896 q 197 986 194 958 q 202 1035 199 1014 q 208 1064 206 1057 q 224 1078 214 1078 q 244 1072 233 1078 q 256 1049 253 1068 q 260 1003 260 1031 q 260 944 261 975 q 256 885 258 913 q 249 836 253 857 q 243 811 246 815 m 97 814 q 88 804 94 804 q 75 808 82 804 l 69 810 q 51 851 54 818 q 49 925 47 885 q 56 1002 51 965 q 61 1053 61 1039 q 63 1058 61 1054 q 65 1064 65 1063 q 85 1080 72 1079 q 111 1074 99 1081 q 115 1054 114 1072 q 115 1009 115 1036 q 113 950 114 982 q 108 890 111 918 q 103 840 106 861 q 97 814 100 819 z "},"#":{"ha":340,"x_min":17,"x_max":375,"o":"m 17 649 q 26 667 17 661 q 48 680 36 674 q 69 695 60 686 q 79 721 79 704 l 79 954 q 114 994 96 971 q 150 1040 132 1018 q 185 1078 168 1063 q 214 1094 201 1094 q 265 1085 236 1094 q 319 1063 294 1076 q 360 1031 344 1049 q 371 997 375 1014 l 340 904 q 333 899 338 900 q 325 899 329 899 q 288 907 306 899 q 250 915 269 915 l 246 915 q 235 907 242 913 q 224 899 228 901 l 224 -185 q 205 -208 222 -199 q 166 -223 188 -217 q 123 -232 144 -229 q 92 -235 101 -235 q 84 -234 89 -235 q 79 -229 79 -233 l 79 554 q 69 600 79 585 q 48 623 60 615 q 26 635 36 631 q 17 649 17 640 z "},"&":{"ha":611,"x_min":22,"x_max":596,"o":"m 22 215 q 42 274 22 249 q 87 319 63 300 q 131 353 111 339 q 151 376 151 367 q 134 422 151 400 q 95 463 117 443 q 56 502 74 483 q 39 539 39 521 q 52 558 39 547 q 83 579 65 568 q 117 601 100 590 q 140 622 133 613 q 153 657 150 638 q 160 696 157 676 q 169 733 163 715 q 190 761 175 750 q 202 762 193 761 q 221 764 211 763 q 239 766 231 765 q 251 767 247 767 l 264 767 q 338 756 303 767 q 400 723 374 744 q 442 670 426 701 q 457 597 457 639 l 457 594 q 456 577 457 589 q 454 552 456 565 q 452 527 453 539 q 451 511 451 515 q 409 487 432 499 q 367 463 386 475 q 335 439 347 451 q 322 413 322 426 q 323 408 322 411 q 324 406 324 406 l 424 228 q 440 208 426 222 q 471 178 454 193 q 503 151 488 163 q 524 139 518 139 l 590 139 l 596 125 q 579 98 596 118 q 542 56 563 78 q 501 16 521 33 q 472 -1 481 -1 q 432 10 451 -1 q 394 37 413 21 q 360 70 376 53 q 329 100 344 88 l 324 100 q 291 84 304 100 q 265 49 278 68 q 236 15 251 31 q 199 -1 221 -1 q 161 4 186 -1 q 110 21 136 10 q 65 49 85 32 q 40 89 44 65 q 33 130 36 108 q 27 170 29 151 q 24 201 25 189 q 22 215 22 214 m 390 56 q 396 50 390 50 l 396 53 l 390 61 q 390 59 390 60 q 389 58 389 58 l 390 56 m 140 250 q 149 205 140 226 q 172 165 157 183 q 207 137 186 147 q 251 126 228 126 q 279 131 263 126 q 296 150 296 135 q 280 204 296 174 q 244 263 264 235 q 204 309 224 290 q 178 328 185 328 q 161 319 168 328 q 149 297 154 310 q 142 272 144 285 q 140 250 140 258 m 190 597 q 205 569 190 590 q 238 524 219 547 q 272 483 256 501 q 290 465 288 465 q 306 473 300 465 q 314 491 311 481 q 317 513 317 501 q 318 533 318 525 l 318 543 q 298 605 318 588 q 238 622 278 622 q 208 619 225 622 q 190 597 190 617 z "},"'":{"ha":154,"x_min":47,"x_max":115,"o":"m 97 814 q 88 804 94 804 q 75 808 82 804 l 69 810 q 51 851 54 818 q 49 925 47 885 q 56 1002 51 965 q 61 1053 61 1039 q 63 1058 61 1054 q 65 1064 65 1063 q 85 1080 72 1079 q 111 1074 99 1081 q 115 1054 114 1072 q 115 1009 115 1036 q 113 950 114 982 q 108 890 111 918 q 103 840 106 861 q 97 814 100 819 z "},"(":{"ha":389,"x_min":15,"x_max":372,"o":"m 15 401 q 22 528 15 461 q 44 661 28 596 q 90 785 61 726 q 167 888 119 843 q 210 927 188 907 q 260 963 233 947 q 315 990 286 979 q 372 1000 343 1000 l 372 949 q 364 939 372 943 q 345 931 356 935 q 325 926 335 928 q 311 921 315 924 q 211 817 247 881 q 158 681 175 754 q 136 531 140 607 q 132 393 132 456 q 138 258 132 331 q 165 119 144 186 q 224 -2 186 53 q 328 -85 263 -57 q 349 -92 340 -90 q 363 -97 358 -94 q 370 -108 368 -100 q 372 -132 372 -115 l 372 -157 q 365 -163 369 -162 q 358 -164 361 -164 l 356 -164 q 299 -149 324 -164 q 250 -118 275 -133 q 140 -20 185 -79 q 67 108 94 39 q 27 253 39 178 q 15 401 15 329 z "},")":{"ha":389,"x_min":17,"x_max":374,"o":"m 374 403 q 362 255 374 331 q 322 110 350 179 q 249 -19 294 40 q 139 -117 204 -78 q 90 -147 114 -132 q 33 -162 65 -162 l 31 -162 q 24 -162 28 -162 q 17 -156 19 -161 l 17 -131 q 19 -106 17 -114 q 26 -96 21 -99 q 40 -91 31 -93 q 61 -83 49 -89 q 164 -1 125 -56 q 224 121 203 54 q 251 260 244 188 q 257 394 257 332 q 253 533 257 457 q 231 682 249 608 q 177 819 213 756 q 78 922 142 882 q 63 927 74 925 q 42 933 53 929 q 24 940 32 936 q 17 950 17 944 l 17 1001 q 74 991 46 1001 q 128 965 103 981 q 178 928 154 949 q 222 889 201 908 q 299 786 269 844 q 344 663 328 728 q 367 530 361 597 q 374 403 374 463 z "},"*":{"ha":375,"x_min":38,"x_max":338,"o":"m 142 796 q 136 795 140 796 q 132 794 132 794 l 76 761 q 71 760 75 760 q 65 760 68 760 q 42 786 42 760 q 53 810 42 803 q 78 824 65 818 q 103 835 92 829 q 115 853 115 840 l 115 856 q 99 872 111 864 q 74 888 88 881 q 50 901 61 894 q 38 911 39 907 l 38 914 q 44 938 38 926 q 67 950 51 950 q 88 944 79 950 q 106 933 97 939 q 125 921 115 926 q 146 915 135 915 q 158 919 157 915 q 160 939 158 924 l 160 1006 q 174 1015 165 1014 q 190 1017 182 1017 l 200 1017 q 215 1006 213 1017 q 214 990 214 999 q 214 972 214 982 q 214 956 214 965 q 216 937 214 946 q 222 922 218 928 q 232 915 225 915 q 252 922 243 915 q 271 935 261 928 q 290 949 281 943 q 310 956 299 956 q 329 943 321 956 q 338 919 338 931 l 332 906 l 265 867 q 265 864 265 867 q 264 860 264 861 q 276 839 264 846 q 301 826 288 832 q 326 814 314 821 q 338 794 338 807 q 331 767 338 779 q 307 754 325 754 q 289 762 303 754 q 260 779 275 769 q 235 795 246 789 q 226 800 224 801 l 221 800 q 215 794 218 797 q 213 789 213 790 l 213 700 q 199 694 213 696 q 181 693 185 693 q 167 697 174 693 q 160 711 160 700 l 160 783 q 154 794 160 793 q 142 796 149 796 z "},"+":{"ha":558,"x_min":6,"x_max":553,"o":"m 6 417 l 222 417 l 225 665 l 326 663 l 326 417 l 553 417 l 553 317 l 328 317 q 321 225 321 288 q 325 60 321 163 l 325 56 q 297 51 314 51 q 233 51 281 50 l 219 56 l 221 297 q 219 317 221 311 l 6 317 l 6 417 z "},",":{"ha":240,"x_min":11,"x_max":235,"o":"m 11 -192 q 12 -187 11 -190 q 13 -183 13 -185 l 113 78 q 117 99 114 86 q 124 122 119 111 q 137 142 129 133 q 156 150 144 150 q 174 148 161 150 q 201 142 188 146 q 224 131 214 138 q 235 117 235 125 q 233 106 235 110 q 229 94 232 101 l 96 -161 q 88 -176 92 -167 q 78 -197 83 -186 q 68 -215 74 -207 q 54 -222 63 -222 q 26 -214 42 -222 q 11 -192 11 -206 z "},".":{"ha":250,"x_min":10,"x_max":239,"o":"m 239 78 q 180 23 206 54 q 122 -35 154 -8 q 67 23 96 -4 q 10 78 39 50 q 67 134 39 106 q 124 193 96 163 q 179 133 150 161 q 239 78 208 106 z "},":":{"ha":264,"x_min":13,"x_max":251,"o":"m 242 81 q 183 26 208 57 q 125 -32 157 -6 q 70 26 99 -1 q 13 81 42 53 q 70 137 42 108 q 126 196 99 165 q 182 136 153 164 q 242 81 211 108 m 251 518 q 192 463 218 494 q 135 406 167 432 q 80 463 108 436 q 22 518 51 490 q 80 574 51 546 q 136 633 108 603 q 192 574 163 601 q 251 518 221 546 z "},";":{"ha":282,"x_min":17,"x_max":278,"o":"m 17 -203 q 17 -198 17 -201 q 18 -192 18 -194 q 29 -155 21 -183 q 49 -90 38 -126 q 75 -12 61 -53 q 103 63 89 29 q 131 119 117 97 q 156 142 144 142 q 178 139 164 142 q 207 131 193 136 q 231 118 221 126 q 240 100 240 110 l 79 -203 q 69 -221 76 -210 q 51 -232 61 -232 q 26 -224 36 -232 q 17 -203 17 -217 m 278 517 q 219 462 244 493 q 161 404 193 431 q 106 462 135 435 q 49 517 78 489 q 106 573 78 544 q 163 632 135 601 q 218 572 189 600 q 278 517 247 544 z "},"<":{"ha":861,"x_min":40,"x_max":799,"o":"m 526 -90 q 544 -47 526 -68 q 585 -2 563 -25 q 628 47 608 21 q 650 101 647 72 l 650 535 q 635 556 650 544 q 602 578 621 568 q 565 594 583 588 q 536 601 546 601 l 532 601 q 525 601 529 601 q 517 596 521 600 l 517 179 q 522 158 517 167 q 531 140 526 149 q 541 124 536 132 q 546 107 546 115 q 530 82 546 100 q 495 44 514 64 q 460 10 476 25 q 444 -6 444 -6 q 426 11 442 -6 q 394 49 411 28 q 363 88 376 69 q 349 111 349 107 q 358 130 349 114 q 367 157 367 146 l 367 563 q 341 597 367 589 q 286 604 315 604 q 252 603 268 604 q 226 603 236 603 l 206 601 q 199 599 203 600 q 194 596 194 597 l 189 563 l 189 196 q 207 180 189 192 q 248 155 225 168 q 292 131 271 142 q 317 118 313 119 l 317 108 q 308 81 317 96 q 285 51 299 67 q 258 23 272 36 q 233 1 243 10 l 231 1 q 188 14 219 1 q 124 44 157 26 q 66 80 92 61 q 40 111 40 99 l 40 597 q 60 629 40 611 q 106 666 81 647 q 155 701 131 685 q 188 729 179 718 l 350 729 q 360 739 356 733 q 367 751 364 744 l 367 1039 q 382 1059 367 1051 q 418 1072 397 1067 q 462 1078 439 1076 q 500 1081 485 1081 q 509 1080 503 1081 q 517 1079 515 1079 l 522 1074 l 522 668 q 529 664 522 667 q 538 661 536 661 l 622 746 q 627 747 622 746 q 635 747 632 747 q 668 733 642 747 q 724 698 694 718 q 776 658 753 678 q 799 629 799 639 l 799 628 l 799 131 q 788 116 799 128 q 762 88 778 104 q 726 51 746 71 q 690 14 707 32 q 658 -18 672 -4 q 639 -37 644 -32 q 615 -68 628 -51 q 591 -99 603 -85 q 569 -124 579 -114 q 553 -133 558 -133 q 533 -117 539 -133 q 526 -90 526 -100 z "},">":{"ha":868,"x_min":19,"x_max":853,"o":"m 336 106 q 335 108 336 106 q 335 111 335 110 q 344 139 335 126 q 353 167 353 151 l 353 604 q 326 615 353 615 l 201 615 q 183 615 194 615 q 171 610 171 614 l 171 206 q 192 178 171 190 q 240 154 214 165 q 287 133 265 143 q 308 111 308 122 l 308 106 q 283 72 297 89 q 257 39 269 54 q 235 14 244 24 q 222 4 225 4 q 166 19 200 4 q 101 53 132 35 q 47 89 69 72 q 25 107 25 106 l 25 550 q 22 569 24 554 q 19 589 19 583 l 19 604 q 31 618 19 607 q 60 644 43 629 q 98 676 78 658 q 135 707 118 693 q 164 730 153 721 q 175 739 175 739 l 364 739 l 364 1035 q 377 1063 364 1053 q 409 1079 390 1074 q 450 1088 428 1085 q 490 1094 472 1090 l 503 1094 q 508 1093 508 1094 q 507 1089 508 1090 l 507 719 q 514 693 507 693 q 544 703 531 693 q 572 727 558 714 q 599 751 585 740 q 628 761 613 761 q 646 749 631 761 q 683 719 661 738 q 731 681 706 701 q 776 641 756 660 q 811 608 797 622 q 825 592 825 594 l 825 586 q 801 557 825 572 q 749 526 778 542 q 697 493 721 510 q 674 458 674 476 q 682 417 674 449 q 703 344 690 385 q 734 259 717 303 q 769 183 751 215 q 790 162 776 169 q 818 149 804 154 q 842 138 832 143 q 853 128 853 133 q 837 91 853 113 q 801 49 821 69 q 764 13 782 28 q 742 -1 746 -1 q 673 26 701 -1 q 625 96 644 54 q 592 185 606 138 q 569 275 579 233 q 549 344 558 317 q 525 372 539 372 q 513 367 518 372 q 508 356 508 363 l 508 167 q 517 138 508 151 q 531 111 526 124 l 531 108 q 519 87 531 103 q 492 53 507 71 q 462 21 476 36 q 442 0 447 6 q 437 -1 440 0 q 433 -1 433 -1 q 413 10 425 -1 q 389 40 401 22 q 363 75 376 57 q 336 106 349 93 m 525 639 q 513 634 518 639 q 508 622 508 629 l 508 439 q 513 432 508 436 q 519 428 517 428 q 549 440 531 428 q 585 469 567 453 q 619 504 604 486 q 636 533 633 522 q 616 560 629 543 q 586 595 603 578 q 553 626 569 613 q 525 639 536 639 z "},"?":{"ha":396,"x_min":18,"x_max":379,"o":"m 147 275 q 157 306 147 288 q 180 343 167 324 q 206 381 193 363 q 226 411 219 399 q 254 495 246 447 q 265 583 263 543 l 265 622 q 261 670 265 646 q 246 714 257 694 q 217 746 235 733 q 171 760 199 758 l 139 760 q 109 756 124 760 q 82 747 94 751 q 47 734 63 743 q 18 725 31 725 q 27 790 18 760 q 53 843 36 821 q 99 878 71 865 q 164 892 126 892 l 190 896 q 274 885 240 896 q 330 851 308 874 q 362 791 351 828 q 375 704 372 754 l 379 642 q 369 562 379 604 q 338 478 358 519 q 310 424 331 463 q 265 347 289 386 q 219 278 240 308 q 190 249 199 249 q 164 255 181 249 q 147 275 147 261 m 290 79 q 231 24 257 56 q 174 -33 206 -7 q 119 24 147 -3 q 61 79 90 51 q 119 135 90 107 q 175 194 147 164 q 231 135 201 163 q 290 79 260 107 z "},"a":{"ha":536,"x_min":15,"x_max":517,"o":"m 21 144 q 17 149 19 146 q 15 156 15 153 l 15 161 q 17 166 15 163 q 21 172 19 169 q 31 179 25 176 q 83 215 64 201 q 111 246 101 229 q 124 287 121 263 q 126 353 126 311 q 120 454 126 403 q 104 556 114 506 q 94 588 101 572 q 86 622 86 604 q 97 635 86 624 q 125 663 108 646 q 161 699 142 679 q 199 734 181 718 q 229 761 217 750 q 246 772 242 772 l 249 772 q 285 751 258 763 q 342 724 311 739 q 401 692 372 710 q 444 656 429 675 l 444 194 q 458 164 446 174 q 483 149 469 154 q 506 138 496 143 q 517 119 517 132 q 516 114 517 117 q 515 111 515 111 l 404 0 q 401 -1 404 0 q 396 -1 399 -1 l 301 83 q 268 70 282 83 q 242 41 254 57 q 216 12 229 25 q 185 -1 203 -1 q 158 15 178 -1 q 114 52 138 31 q 67 97 90 74 q 31 135 44 119 l 21 144 m 182 206 q 219 165 197 186 q 271 143 240 143 q 294 158 290 143 q 299 189 299 172 l 299 300 l 296 300 q 270 289 289 300 q 231 263 251 278 q 196 232 211 247 q 181 208 181 217 l 182 206 m 171 311 q 175 301 171 308 q 182 294 179 294 q 186 296 182 294 q 193 300 190 297 q 209 311 193 300 q 244 337 225 322 q 279 363 263 351 q 299 378 296 375 l 299 556 q 284 567 299 560 q 251 581 269 574 q 215 594 232 589 q 190 600 197 600 q 177 597 183 600 q 171 586 171 594 l 171 583 q 179 510 176 547 q 182 436 182 472 l 171 311 z "},"b":{"ha":536,"x_min":31,"x_max":492,"o":"m 31 117 q 44 285 42 201 q 47 456 47 369 l 47 690 q 44 863 47 778 q 31 1039 42 947 l 31 1044 q 49 1063 31 1054 q 93 1079 68 1072 q 142 1090 118 1086 q 175 1094 165 1094 l 182 1094 q 199 1080 196 1094 q 203 1050 203 1065 q 197 1035 203 1039 l 197 856 q 197 811 197 839 q 196 756 196 783 q 198 708 196 728 q 204 688 200 688 q 221 693 214 688 q 235 706 228 699 q 248 720 242 713 q 261 735 254 728 q 300 751 278 751 l 381 757 q 453 748 419 757 q 486 717 486 739 l 486 165 l 492 146 q 473 133 492 144 q 427 106 454 122 q 367 70 400 89 q 308 35 335 51 q 263 9 281 19 q 244 -1 244 -1 q 215 10 242 -1 q 153 39 188 22 q 83 75 118 56 q 31 110 49 94 l 31 117 m 192 278 q 194 228 194 246 q 198 201 193 211 q 216 185 203 192 q 258 167 229 178 q 280 155 269 161 q 306 149 290 149 q 327 158 317 149 q 338 178 338 167 l 338 603 q 324 619 338 610 q 300 628 310 628 l 208 617 l 197 611 q 194 596 194 608 q 192 564 193 583 q 190 521 190 544 q 190 478 190 499 l 190 406 q 190 364 190 383 q 192 339 190 346 l 192 278 z "},"c":{"ha":418,"x_min":32,"x_max":397,"o":"m 32 113 q 36 206 32 160 q 39 264 39 235 q 39 324 39 293 q 39 382 39 353 q 36 442 39 413 l 36 640 q 58 651 36 642 q 113 678 81 661 q 180 719 144 696 q 242 772 215 743 l 250 772 q 284 756 263 772 q 328 719 306 740 q 369 678 350 699 q 397 650 389 658 l 397 642 q 384 619 397 635 q 354 585 371 603 q 322 553 338 568 q 303 533 307 538 q 301 533 301 533 q 300 532 300 532 q 281 542 290 532 q 260 563 271 551 q 240 586 250 575 q 219 600 229 597 l 218 600 q 204 579 210 600 q 195 526 199 558 q 191 453 192 493 q 190 374 190 413 q 191 295 190 331 q 192 242 192 260 l 192 232 q 194 223 192 225 q 208 211 197 221 q 267 174 236 185 q 325 158 299 164 q 369 147 351 153 q 386 125 386 142 q 367 94 386 115 q 325 52 349 74 q 279 15 301 31 q 250 -1 257 -1 q 193 14 221 -1 q 138 49 165 29 q 83 87 110 68 q 32 113 57 106 z "},"d":{"ha":540,"x_min":21,"x_max":506,"o":"m 76 118 l 76 511 q 77 565 76 538 q 79 633 78 593 l 167 683 q 183 692 176 688 q 189 706 189 697 q 163 740 189 722 q 105 776 136 758 q 47 813 74 794 q 21 847 21 831 q 33 870 21 854 q 60 903 44 886 q 91 932 75 919 q 115 944 107 944 l 122 944 q 131 944 126 944 q 139 939 135 943 q 316 807 229 869 q 494 678 403 744 q 502 642 501 664 q 506 600 503 619 l 506 111 q 486 103 500 108 q 458 91 472 97 q 430 79 443 85 q 411 72 417 74 q 378 53 396 65 q 342 28 360 40 q 306 8 324 17 q 274 -1 289 -1 l 76 118 m 222 217 q 238 194 222 207 q 276 168 254 181 q 318 147 297 156 q 347 138 339 138 q 358 140 354 138 q 365 150 363 142 l 365 594 q 347 610 361 596 q 316 639 333 624 q 281 667 299 654 q 249 679 263 679 l 222 657 l 222 606 l 222 217 z "},"e":{"ha":425,"x_min":43,"x_max":407,"o":"m 43 97 q 44 126 44 110 q 44 161 44 144 q 44 179 44 172 q 43 194 44 188 l 43 617 q 57 642 43 632 q 90 659 71 651 q 131 672 110 667 q 168 683 153 676 q 192 702 182 689 q 212 728 201 715 q 233 751 222 742 q 260 761 244 761 l 268 761 l 401 628 q 406 620 406 624 q 407 613 407 617 l 407 594 q 388 574 401 589 q 360 544 375 560 q 331 514 344 528 q 313 494 318 500 q 282 463 301 482 q 243 422 263 443 q 210 382 224 401 q 196 350 196 363 l 196 206 q 216 176 196 189 q 263 156 236 164 q 317 142 290 147 q 357 138 344 138 q 368 138 363 138 q 379 139 374 138 q 388 127 386 132 q 390 114 390 122 q 370 88 390 107 q 324 50 350 69 q 274 15 297 31 q 243 -1 250 -1 q 217 6 232 -1 q 183 24 201 14 q 148 44 165 33 q 118 61 131 54 l 43 97 m 192 475 q 197 467 192 469 q 207 465 203 465 q 222 473 211 465 q 242 491 232 481 q 260 513 253 501 q 268 533 268 525 q 262 555 268 543 q 247 577 256 567 q 227 595 238 588 q 207 606 217 603 q 194 594 197 606 q 192 571 192 582 l 192 478 l 192 475 z "},"f":{"ha":367,"x_min":14,"x_max":388,"o":"m 93 361 q 93 438 93 392 q 92 526 93 483 q 92 600 92 569 q 92 632 92 632 l 14 633 l 14 728 l 92 728 l 93 781 l 93 972 q 210 1106 157 1035 l 221 1106 q 251 1098 225 1106 q 306 1080 276 1090 q 359 1060 335 1069 q 388 1044 383 1050 l 388 1025 q 383 999 388 1018 q 371 960 378 981 q 356 925 364 940 q 339 910 347 910 q 302 919 319 910 q 267 928 285 928 q 247 914 253 928 q 240 880 242 900 q 240 837 239 860 q 240 794 240 814 q 241 752 240 771 q 247 733 242 733 l 353 733 l 353 647 l 236 647 l 236 394 q 236 376 236 386 q 236 346 236 367 q 235 292 236 326 q 235 200 235 258 q 235 58 235 143 q 235 -144 235 -25 q 224 -190 235 -174 q 195 -213 213 -206 q 156 -222 178 -221 q 114 -224 135 -224 l 110 -224 q 100 -223 106 -224 q 93 -217 94 -222 l 93 361 z "},"g":{"ha":572,"x_min":24,"x_max":533,"o":"m 24 -125 q 38 -99 29 -115 q 58 -65 47 -82 q 83 -37 69 -49 q 111 -25 96 -25 l 118 -25 q 167 -49 140 -35 q 223 -77 194 -64 q 278 -100 251 -90 q 329 -110 306 -110 q 351 -89 351 -110 l 351 -86 l 346 -64 l 346 14 q 345 28 346 19 q 344 44 344 36 q 342 58 343 53 q 340 64 340 64 l 318 64 q 276 26 299 44 q 247 7 254 7 q 199 24 231 7 q 138 60 168 40 q 86 98 108 81 q 65 115 64 115 l 65 304 q 65 342 65 324 q 64 375 65 360 l 64 619 q 76 643 64 631 q 103 667 88 656 q 134 690 118 679 q 157 707 150 700 q 176 727 169 718 q 196 747 182 736 l 474 744 q 489 745 478 744 q 510 744 500 746 q 527 737 521 742 q 528 721 533 732 l 492 679 l 492 -108 l 396 -164 q 372 -185 385 -169 q 347 -218 360 -201 q 322 -247 335 -235 q 299 -260 310 -260 q 278 -252 299 -260 q 228 -232 258 -244 q 164 -204 199 -219 q 99 -175 129 -189 q 47 -149 68 -161 q 24 -131 25 -137 l 24 -128 l 24 -125 m 324 131 q 341 138 331 131 q 351 153 351 144 l 351 597 l 335 614 l 224 614 l 210 603 l 210 190 l 324 131 z "},"h":{"ha":540,"x_min":24,"x_max":496,"o":"m 213 -108 q 235 -70 218 -89 q 269 -31 251 -51 q 304 10 288 -11 q 329 53 321 31 q 331 73 329 58 q 333 103 332 88 q 334 133 333 118 q 335 153 335 147 l 335 481 q 338 492 335 483 q 340 503 340 500 l 340 506 q 326 531 340 518 q 294 556 313 544 q 258 574 276 567 q 232 581 240 581 q 217 578 228 581 q 207 569 207 576 l 207 147 q 211 131 207 138 q 221 117 215 124 q 231 102 226 110 q 235 86 235 94 l 235 75 l 163 3 q 151 -12 160 0 q 140 -25 143 -24 l 129 -25 q 110 -19 117 -25 q 99 -3 104 -12 q 90 16 94 6 q 79 36 86 26 q 47 63 64 51 q 24 86 31 75 l 24 89 q 28 111 24 94 q 40 153 33 128 q 51 210 46 178 q 56 281 56 243 l 56 914 q 48 960 56 939 q 40 1006 40 982 q 59 1030 40 1019 q 103 1048 78 1040 q 158 1060 129 1056 q 207 1064 186 1064 q 222 1051 219 1064 q 224 1031 224 1039 l 224 1025 q 210 847 213 936 q 207 668 207 758 l 207 664 q 210 650 207 658 q 213 642 213 642 l 224 642 l 301 719 q 311 724 306 724 q 324 725 317 725 q 372 708 342 725 q 428 671 401 692 q 476 631 456 650 q 496 608 496 613 l 479 508 l 479 92 q 447 60 471 78 q 407 31 422 42 q 375 -5 400 25 q 322 -69 350 -35 q 270 -131 293 -103 q 243 -158 247 -158 q 233 -152 239 -158 q 223 -137 228 -146 q 215 -122 218 -129 q 213 -111 213 -114 l 213 -108 z "},"i":{"ha":301,"x_min":11,"x_max":289,"o":"m 54 97 q 62 123 54 111 q 72 150 69 135 q 76 243 75 196 q 78 336 78 290 l 78 394 q 77 461 75 426 q 75 526 79 496 q 57 576 71 556 q 11 600 43 596 l 11 617 q 27 628 15 608 q 56 674 39 647 q 94 726 74 701 q 139 750 115 750 l 144 750 q 207 684 181 718 q 233 600 233 650 q 228 436 233 518 q 222 272 222 354 l 222 267 q 223 244 222 260 q 224 211 224 229 q 226 177 225 193 q 228 156 228 161 q 242 140 232 144 q 262 131 251 135 q 281 121 272 126 q 289 103 289 115 l 289 100 q 264 75 282 92 q 226 41 246 58 q 187 11 206 24 q 158 -1 168 -1 q 136 12 153 -1 q 101 42 119 25 q 69 74 83 58 q 54 97 54 90 m 71 833 q 81 853 71 840 q 105 881 90 867 q 136 908 119 894 q 167 928 153 921 l 171 928 q 203 915 185 928 q 222 886 222 901 q 208 863 222 878 q 174 834 193 849 q 138 809 156 819 q 114 799 119 799 q 85 808 99 799 q 71 833 71 818 z "},"j":{"ha":278,"x_min":7,"x_max":258,"o":"m 7 -233 q 19 -204 7 -224 q 44 -162 31 -185 q 71 -114 58 -139 q 86 -67 83 -89 q 100 213 97 72 q 103 493 103 354 q 99 544 103 514 q 75 589 96 574 q 61 594 68 593 q 48 597 54 596 q 38 602 42 599 q 35 614 35 606 q 47 635 35 619 q 77 669 58 650 q 117 710 96 689 q 158 750 139 732 l 164 750 q 186 737 171 750 q 217 704 201 724 q 246 662 233 685 q 258 619 258 639 q 252 356 258 482 q 246 96 246 231 q 247 60 246 78 q 247 22 247 42 l 153 -111 q 128 -141 144 -118 q 95 -190 113 -164 q 62 -237 78 -217 q 36 -257 46 -257 q 17 -250 28 -257 q 7 -233 7 -243 m 85 842 q 99 860 85 846 q 131 890 113 875 q 169 916 150 904 q 201 928 189 928 q 232 913 217 928 q 247 882 247 897 q 234 859 247 874 q 202 831 221 844 q 165 808 183 818 q 133 799 146 799 q 101 810 117 799 q 85 842 85 822 z "},"k":{"ha":564,"x_min":26,"x_max":556,"o":"m 231 372 q 213 365 218 372 q 205 345 207 357 q 203 320 203 333 q 204 297 204 307 q 204 260 204 276 q 206 226 204 243 q 208 192 207 210 q 211 150 208 174 q 228 133 224 139 q 233 114 233 126 q 233 103 233 108 q 228 94 232 99 l 139 6 l 122 6 q 103 31 118 13 q 83 56 88 49 l 44 94 q 32 103 38 101 q 26 117 26 106 q 40 140 26 124 q 56 172 53 157 q 64 300 61 233 q 67 428 67 367 l 67 1044 q 95 1065 71 1057 q 148 1076 119 1072 q 201 1083 176 1081 q 229 1085 225 1085 q 222 910 229 997 q 215 736 215 824 q 215 708 215 725 q 226 693 215 693 l 231 693 q 256 700 243 693 q 282 717 269 707 q 305 738 294 728 q 322 756 315 749 l 331 756 q 369 735 343 756 q 425 687 394 715 q 483 629 456 658 q 528 583 511 600 l 528 578 q 503 553 528 567 q 450 522 479 539 q 397 489 421 506 q 372 458 372 472 l 372 456 q 417 305 396 381 q 478 161 439 229 q 497 146 483 150 q 523 140 510 142 q 546 134 536 138 q 556 121 556 131 q 541 99 556 117 q 508 60 526 81 q 473 23 490 40 q 450 0 456 6 q 445 -1 449 0 q 442 -1 442 -1 q 419 7 435 -1 q 387 29 404 15 q 354 62 369 43 q 333 100 339 81 q 322 138 329 113 q 307 193 315 163 q 289 256 299 224 q 269 313 279 288 q 249 356 260 339 q 231 372 239 372 m 210 514 q 210 490 210 506 q 210 462 210 476 q 215 437 211 447 q 225 426 218 426 q 253 438 231 426 q 299 462 275 449 q 342 488 322 475 q 361 506 361 501 l 361 528 q 347 548 361 533 q 314 578 333 563 q 275 610 294 594 q 244 633 256 625 l 236 633 q 218 624 224 633 q 210 600 213 614 q 209 569 208 586 q 210 539 210 553 l 210 514 z "},"l":{"ha":272,"x_min":29,"x_max":258,"o":"m 29 99 q 35 144 29 119 q 42 189 40 169 l 42 772 q 35 899 42 836 q 31 1025 29 963 l 31 1044 q 53 1054 32 1047 q 99 1067 74 1061 q 149 1078 125 1074 q 178 1083 172 1083 l 192 1083 q 194 1077 193 1081 q 197 1072 196 1074 l 197 1069 l 185 447 l 186 183 q 197 156 186 167 q 222 139 208 146 q 247 127 236 132 q 258 114 258 122 l 258 111 q 236 79 251 99 q 203 42 221 60 q 172 12 186 25 q 153 -1 157 -1 q 127 13 147 -1 q 85 44 107 26 q 47 78 64 61 q 29 99 29 94 z "},"m":{"ha":914,"x_min":25,"x_max":888,"o":"m 358 117 q 367 138 358 128 q 378 161 375 147 q 381 208 381 185 q 382 253 382 231 l 382 540 q 349 590 376 574 q 290 607 322 607 q 271 606 278 607 l 254 606 l 254 183 q 265 144 254 160 q 276 108 276 129 l 276 100 q 257 77 269 93 q 231 45 244 61 q 203 17 217 29 q 179 4 189 4 l 172 4 q 149 22 165 4 q 115 60 132 39 q 84 97 97 81 q 71 114 71 114 q 84 152 71 121 q 97 242 97 183 l 97 547 q 85 588 96 578 q 60 599 74 597 q 36 601 47 600 q 25 614 25 601 q 39 634 25 619 q 73 669 53 649 q 117 712 93 689 q 160 756 140 735 l 176 756 q 194 740 185 756 q 213 705 203 724 q 232 671 222 686 q 253 656 242 656 l 254 656 q 288 674 272 658 q 319 708 303 690 q 351 741 335 726 q 388 756 368 756 q 424 742 406 756 q 462 713 443 729 q 500 684 481 697 q 540 671 519 671 q 573 685 558 671 q 600 716 588 699 q 624 747 613 733 q 651 761 636 761 q 690 743 661 761 q 751 703 719 725 q 807 662 782 681 q 832 642 832 643 q 830 589 832 610 q 826 543 828 568 q 822 483 824 518 q 821 385 821 447 l 821 203 q 831 159 821 171 q 854 142 842 147 q 877 132 867 136 q 888 114 888 128 l 888 106 l 782 0 l 760 0 l 669 94 l 669 426 q 665 511 669 469 q 644 572 661 553 q 588 606 626 590 l 557 606 q 539 578 543 606 q 535 514 535 550 l 535 167 q 540 152 535 158 q 550 140 544 146 q 560 127 556 133 q 565 114 565 121 q 553 93 565 111 q 523 54 540 75 q 488 16 506 33 q 458 -1 469 -1 q 440 15 456 -1 q 406 53 425 32 q 373 94 388 75 q 358 117 358 113 z "},"n":{"ha":621,"x_min":22,"x_max":597,"o":"m 60 97 l 94 144 q 95 156 94 147 q 96 176 96 165 q 96 200 96 189 q 96 217 96 211 l 96 425 q 95 490 96 457 q 90 556 94 522 q 72 570 83 563 q 50 585 61 578 q 31 598 39 592 q 22 608 22 604 q 39 631 24 610 q 74 678 54 653 q 115 724 94 703 q 149 744 136 744 l 157 744 l 235 667 q 240 663 236 664 q 246 661 243 661 q 274 671 258 661 q 303 695 289 681 q 331 724 318 710 q 351 750 343 739 l 360 750 q 390 736 364 750 q 446 706 415 722 q 503 674 476 689 q 535 656 529 658 q 548 648 542 650 q 554 640 554 646 l 535 528 l 535 178 q 544 153 535 158 q 566 148 554 149 q 588 144 578 147 q 597 128 597 142 q 582 103 597 124 q 547 60 567 83 q 509 19 526 38 q 488 0 492 0 l 485 0 q 466 13 482 0 q 432 40 450 25 q 399 70 414 56 q 385 89 385 85 l 385 550 q 369 578 385 565 q 332 599 353 590 q 292 612 311 607 q 265 617 272 617 q 249 599 256 617 q 242 557 242 582 l 242 183 q 242 167 242 175 q 243 151 242 160 q 260 128 246 140 q 274 108 274 117 q 262 84 274 101 q 233 47 250 67 q 200 13 217 28 q 174 -1 183 -1 l 60 97 z "},"o":{"ha":543,"x_min":54,"x_max":496,"o":"m 56 244 l 56 639 l 299 767 q 343 753 318 767 q 395 722 368 740 q 449 685 422 704 q 496 656 475 667 l 496 122 q 473 108 490 114 q 434 97 456 103 q 390 83 413 90 q 351 61 368 75 q 335 45 344 56 q 313 24 325 35 q 289 6 301 14 q 265 -1 276 -1 q 247 1 253 -1 q 229 11 242 3 q 181 40 210 22 q 123 75 151 57 q 74 108 94 93 q 54 126 54 122 l 56 244 m 210 642 q 201 633 203 642 q 200 615 200 625 q 201 601 200 608 q 201 594 201 594 l 201 228 q 216 203 201 217 q 250 179 231 190 q 289 161 269 168 q 317 154 308 154 q 347 165 335 154 q 358 192 358 176 l 358 526 q 357 563 358 549 q 344 583 356 578 l 210 642 z "},"p":{"ha":572,"x_min":21,"x_max":538,"o":"m 99 82 q 85 99 97 94 q 58 106 72 103 q 33 115 44 110 q 21 132 21 119 q 32 158 21 147 q 57 178 43 169 q 84 198 71 188 q 101 221 97 208 q 104 250 104 236 q 104 279 104 265 l 104 504 q 93 574 104 554 q 68 603 82 594 q 43 614 54 611 q 32 631 32 617 q 52 652 32 631 q 98 699 72 674 q 148 746 124 725 q 179 767 172 767 q 204 754 194 767 q 222 727 214 742 q 240 700 231 713 q 263 688 249 688 q 282 694 274 688 q 297 712 290 701 q 311 732 304 722 q 326 749 318 742 q 366 750 338 749 q 426 752 394 751 q 487 753 458 753 q 526 754 515 754 l 538 729 l 538 142 q 513 115 538 129 q 456 83 489 100 q 390 44 424 65 q 338 -1 357 24 l 315 -1 q 299 5 313 0 q 282 13 285 10 l 254 35 l 254 -174 q 234 -185 254 -178 q 190 -200 214 -193 q 144 -212 165 -207 q 121 -218 124 -218 q 110 -216 117 -218 q 104 -207 104 -214 l 104 38 l 99 82 m 249 204 q 266 180 249 193 q 306 155 283 167 q 349 135 328 143 q 379 126 371 126 q 389 133 385 126 q 394 143 393 140 l 394 622 l 313 622 q 292 623 301 622 q 276 624 283 624 q 257 620 265 624 q 249 606 249 617 q 248 596 249 603 q 247 582 247 589 q 249 569 247 574 l 249 338 l 249 204 z "},"q":{"ha":503,"x_min":33,"x_max":474,"o":"m 319 -32 l 319 53 l 294 65 q 274 51 285 61 q 251 33 263 42 q 230 17 240 24 q 213 10 219 10 q 156 27 188 10 q 98 66 125 44 q 52 106 71 88 q 33 125 33 124 l 33 628 l 194 761 l 381 750 l 474 756 l 461 711 l 461 -147 q 445 -180 461 -167 q 406 -202 429 -193 q 360 -215 383 -211 q 321 -219 336 -219 l 321 -78 l 319 -32 m 172 211 q 182 197 172 203 l 317 121 l 317 611 l 182 611 q 177 603 178 611 q 174 594 176 596 l 174 254 l 172 211 z "},"r":{"ha":456,"x_min":17,"x_max":435,"o":"m 72 131 q 74 169 71 143 q 83 228 78 194 q 92 298 88 261 q 96 367 96 335 l 96 457 q 97 484 96 468 q 97 518 97 500 q 85 581 97 557 q 58 616 72 604 q 31 632 43 628 q 18 639 18 636 l 17 642 q 31 661 19 647 q 59 692 43 675 q 94 728 75 710 q 129 761 113 746 l 132 761 q 160 749 149 761 q 181 722 171 736 q 203 694 192 707 q 232 682 215 682 q 260 694 249 682 q 281 719 271 706 q 303 744 292 732 q 332 756 315 756 l 340 756 q 356 743 342 754 q 388 717 371 732 q 420 688 406 703 q 435 667 435 674 l 435 644 q 381 592 407 621 q 346 550 354 563 l 329 550 q 292 583 310 565 q 263 600 274 600 q 250 592 254 600 q 246 578 246 585 l 246 233 q 267 182 246 197 q 316 160 289 167 q 368 148 343 153 q 401 128 393 143 l 401 125 q 382 94 401 115 q 338 52 363 74 q 292 15 314 31 q 265 -1 269 -1 l 263 0 q 215 27 246 10 q 151 63 183 44 q 96 100 119 82 q 72 131 72 118 z "},"s":{"ha":513,"x_min":38,"x_max":472,"o":"m 42 131 q 42 134 42 131 q 43 139 43 138 l 99 194 q 109 205 101 197 q 124 221 117 213 q 138 238 132 229 q 143 253 143 246 q 126 287 143 275 q 90 309 110 299 q 54 333 71 319 q 38 371 38 346 l 38 628 q 52 658 42 649 q 76 672 63 668 q 106 676 90 675 q 138 683 122 678 q 172 702 151 689 q 216 730 193 715 q 259 756 239 744 q 290 767 279 767 q 303 765 296 767 q 315 761 310 764 l 314 763 q 338 744 314 763 q 390 704 361 726 q 442 661 418 682 q 465 633 465 640 q 451 603 465 621 q 422 567 438 585 q 392 534 406 549 q 381 514 379 519 q 394 488 381 499 q 426 465 408 476 q 458 440 443 453 q 472 411 472 428 l 472 351 q 472 332 472 342 q 469 317 472 324 l 469 122 l 458 111 q 400 101 431 108 q 343 83 369 94 q 303 60 325 75 q 260 33 281 46 q 222 9 239 19 q 199 -1 206 -1 q 172 17 197 -1 q 118 58 147 35 q 65 102 89 81 q 42 131 42 124 m 176 217 q 201 191 185 207 q 235 159 217 175 q 272 132 253 143 q 303 121 290 121 q 321 130 315 121 q 328 152 326 139 q 331 181 331 165 q 332 211 331 197 l 332 222 q 324 326 328 290 q 288 363 319 363 q 268 347 286 363 q 229 308 250 331 q 192 263 208 286 q 175 222 175 239 q 176 219 175 221 q 176 217 176 217 m 192 633 q 182 628 182 633 l 182 444 q 190 428 182 438 q 208 409 197 418 q 228 394 218 400 q 246 388 239 388 q 272 405 256 388 q 302 445 288 422 q 328 490 317 468 q 339 519 339 511 q 321 551 339 532 q 279 588 303 569 q 232 620 256 607 q 199 633 208 633 l 192 633 z "},"t":{"ha":350,"x_min":11,"x_max":336,"o":"m 63 100 q 67 108 64 101 q 74 122 71 114 q 81 135 78 129 q 85 144 85 142 l 85 194 q 85 224 85 200 q 88 274 86 247 q 90 325 89 301 q 90 356 90 349 q 90 427 90 383 q 88 513 89 471 q 86 585 88 554 q 85 617 85 615 l 79 631 l 24 631 q 15 643 18 638 q 11 656 11 649 q 28 688 11 665 q 69 737 44 710 q 121 792 93 764 q 173 845 149 821 q 213 885 197 869 q 226 900 228 900 l 229 900 q 236 894 232 897 q 240 889 240 890 l 240 739 q 256 717 240 719 q 288 715 271 715 q 321 710 306 715 q 336 681 336 704 l 336 667 q 335 654 336 663 q 335 644 335 646 l 251 628 q 242 619 246 628 q 237 597 239 610 q 234 570 235 583 q 233 549 233 557 q 234 513 233 531 q 235 481 235 496 l 235 472 q 234 422 235 458 q 232 347 233 386 q 230 272 231 307 q 229 222 229 236 l 229 217 q 249 147 229 171 q 318 122 269 124 l 318 111 q 306 89 318 107 q 278 51 294 71 q 246 15 263 31 q 218 -1 229 -1 q 188 12 213 -1 q 135 42 163 25 q 85 74 107 58 q 63 97 63 90 l 63 100 z "},"u":{"ha":594,"x_min":28,"x_max":574,"o":"m 39 104 l 39 125 q 42 163 39 139 q 48 213 44 186 q 54 267 51 239 q 57 317 57 294 q 57 367 57 332 q 57 439 57 401 q 56 510 57 478 q 56 556 56 543 q 49 589 53 571 q 40 622 44 607 q 31 649 35 638 q 28 665 28 661 q 48 688 28 672 q 95 720 68 704 q 149 749 122 736 q 189 761 176 761 q 197 759 194 761 q 206 750 200 757 l 206 200 q 222 183 206 194 q 258 160 238 172 q 297 140 278 149 q 324 132 317 132 q 339 149 333 132 q 347 194 344 167 q 351 256 350 221 q 351 324 351 290 l 351 678 q 348 697 350 682 q 346 717 346 711 l 346 719 q 351 731 346 726 q 372 735 357 735 q 383 735 378 735 q 396 733 389 735 l 507 733 q 508 732 507 733 q 508 728 508 731 q 501 711 508 717 l 501 178 q 514 151 503 158 q 538 140 525 143 q 563 134 551 136 q 574 122 574 132 q 561 107 574 125 q 531 66 549 89 q 495 24 514 43 q 463 4 476 4 q 431 14 444 4 q 403 35 417 24 q 376 57 389 47 q 346 67 363 67 q 330 59 342 67 q 304 41 318 51 q 276 19 290 31 q 251 0 261 8 q 247 -1 250 0 q 243 -1 243 -1 l 39 104 z "},"v":{"ha":565,"x_min":19,"x_max":521,"o":"m 69 104 q 81 183 69 143 q 93 269 93 222 l 93 389 q 92 413 92 397 q 92 447 92 428 l 92 553 q 78 584 89 575 q 53 597 67 593 q 30 602 40 600 q 19 615 19 604 q 32 631 19 608 q 64 682 44 653 q 105 736 83 711 q 146 761 126 761 l 149 761 q 165 743 154 757 q 188 715 175 729 q 210 688 200 700 q 226 676 221 676 q 247 687 240 676 q 258 710 253 697 q 269 734 263 724 q 288 744 275 744 l 521 736 l 521 125 q 511 99 521 108 q 483 85 501 90 q 438 74 464 79 q 382 61 413 69 q 356 45 368 56 q 333 24 344 35 q 310 6 322 14 q 282 -1 297 -1 l 283 -1 q 267 6 283 0 q 228 22 251 13 q 176 43 204 32 q 125 65 149 54 q 85 85 101 76 q 69 99 69 93 l 69 104 m 239 200 q 258 179 242 192 q 294 155 275 167 q 333 135 314 143 q 360 126 351 126 q 382 139 375 126 l 382 606 l 371 617 l 249 617 q 244 613 247 617 q 239 606 240 608 l 239 200 z "},"w":{"ha":833,"x_min":25,"x_max":801,"o":"m 85 110 l 85 535 q 83 571 85 553 q 79 606 82 589 q 67 622 76 617 q 49 631 58 628 q 33 639 40 635 q 25 653 25 643 q 49 674 25 661 q 103 702 72 688 q 163 733 133 717 q 204 761 193 749 l 217 761 q 224 756 222 761 l 224 304 q 224 249 224 276 q 226 196 224 222 l 344 132 q 358 143 353 132 q 367 172 364 154 q 372 212 371 189 q 372 258 372 235 q 372 307 372 283 q 371 346 371 331 l 371 683 q 366 708 368 699 q 364 728 364 717 l 364 732 q 365 740 364 736 q 371 744 365 744 l 521 744 l 521 663 q 548 675 539 663 q 565 703 557 688 q 585 732 574 719 q 615 744 596 744 l 796 744 q 801 732 800 744 q 799 717 801 719 l 799 122 q 773 101 794 108 q 719 83 751 93 q 647 53 686 72 q 565 0 607 35 q 560 -1 564 0 q 557 -1 557 -1 q 519 11 539 -1 q 476 38 499 24 q 430 65 454 53 q 379 78 406 78 q 342 65 358 78 q 309 38 325 53 q 277 11 293 24 q 240 -1 261 -1 l 85 110 m 515 206 q 524 190 518 199 q 538 178 531 181 l 632 128 l 649 128 q 653 138 650 128 q 660 156 657 149 l 660 600 l 649 611 l 538 611 q 524 601 533 611 q 515 589 515 592 l 515 206 z "},"x":{"ha":497,"x_min":26,"x_max":489,"o":"m 32 -114 q 35 -103 33 -111 q 38 -92 36 -94 q 69 0 53 -44 q 99 88 86 44 q 121 175 113 131 q 129 269 129 219 q 128 296 129 276 q 126 319 128 315 l 121 325 q 106 324 117 324 q 82 324 94 324 q 42 325 57 324 q 26 331 26 326 l 26 414 l 115 414 q 128 429 125 414 q 132 447 132 444 l 132 558 q 116 592 132 581 q 81 608 100 603 q 47 616 63 613 q 31 626 31 619 q 31 631 31 628 q 32 636 32 635 l 71 675 q 92 697 78 681 q 124 728 107 713 q 155 757 140 744 q 178 769 169 769 q 203 751 192 769 q 221 725 214 733 q 234 712 225 721 q 251 694 243 703 q 267 678 260 685 q 274 674 274 672 q 299 688 286 674 q 325 719 313 701 q 349 750 338 736 q 368 764 360 764 q 394 748 374 764 q 435 712 414 732 q 472 673 456 692 q 489 649 489 654 q 489 644 489 647 q 488 642 489 642 l 393 542 q 392 541 393 542 q 389 540 390 540 q 362 551 374 540 q 339 574 350 561 q 315 598 328 588 q 288 608 303 608 q 281 592 283 608 q 278 553 279 575 q 277 510 278 532 q 276 481 276 489 l 276 475 q 281 444 279 463 q 282 425 282 425 l 288 419 q 296 418 288 419 q 315 416 304 417 q 336 415 325 415 q 354 414 347 414 l 404 414 q 436 409 419 411 q 449 403 453 407 l 449 321 l 293 321 q 284 313 288 321 q 279 294 281 306 q 277 271 278 283 q 276 249 276 258 l 276 232 l 282 197 q 290 196 278 200 q 321 183 301 192 q 365 163 340 174 q 410 142 389 153 q 445 124 431 132 q 460 115 460 117 q 443 91 460 110 q 405 53 426 72 q 363 17 383 33 q 338 1 343 1 q 299 11 321 1 q 255 34 278 21 q 210 60 232 47 q 171 81 188 74 q 147 40 161 74 q 119 -34 133 6 q 95 -105 106 -74 q 82 -136 85 -136 l 43 -136 q 34 -131 36 -136 q 32 -121 32 -125 l 32 -114 z "},"y":{"ha":618,"x_min":24,"x_max":603,"o":"m 40 -151 q 56 -123 40 -142 q 91 -85 71 -104 q 129 -53 111 -67 q 153 -39 147 -39 q 188 -49 169 -39 q 223 -72 206 -58 q 256 -97 240 -85 q 286 -112 272 -108 q 305 -76 300 -106 q 314 -18 310 -46 l 314 -15 q 297 4 314 -6 q 253 24 279 14 q 197 44 226 35 q 140 62 167 53 q 97 79 114 71 q 79 94 79 88 l 79 93 q 83 128 79 93 q 90 214 86 164 q 98 319 94 264 q 103 415 101 375 l 103 428 q 102 456 103 432 q 98 507 101 479 q 89 559 94 535 q 75 588 83 583 q 62 592 71 590 q 44 598 53 594 q 30 607 36 601 q 24 622 24 613 q 24 624 24 622 q 25 626 24 626 l 125 726 q 142 749 129 738 q 167 760 156 760 l 169 760 q 178 753 172 757 q 186 749 185 750 l 231 654 l 242 654 q 255 663 246 654 q 275 685 264 672 q 298 715 286 699 q 319 743 310 731 l 597 743 q 603 738 603 743 l 603 719 l 486 188 q 462 40 474 113 q 436 -107 450 -32 q 403 -149 432 -135 q 342 -176 375 -164 q 279 -203 308 -187 q 242 -251 250 -219 l 192 -251 q 151 -225 176 -240 q 101 -194 126 -210 q 58 -167 76 -179 q 40 -151 40 -156 m 296 606 q 260 603 279 606 q 242 588 242 600 l 242 199 q 254 188 242 194 q 283 174 267 182 q 314 161 299 167 q 336 154 329 156 q 345 175 340 156 q 355 221 350 194 q 365 276 360 247 q 375 326 371 306 l 425 583 q 422 595 425 592 q 408 606 419 599 l 318 606 l 296 606 z "},"z":{"ha":486,"x_min":25,"x_max":465,"o":"m 31 -136 q 42 -114 31 -132 q 70 -75 54 -96 q 101 -38 86 -54 q 121 -22 115 -22 l 126 -22 q 161 -40 142 -31 q 198 -56 181 -49 q 229 -69 215 -64 q 246 -74 243 -74 q 263 -58 256 -74 q 274 -24 269 -43 q 280 14 278 -4 q 282 39 282 32 l 282 97 q 276 186 282 149 q 255 247 271 224 q 209 281 239 269 q 131 292 179 292 q 108 291 119 292 q 82 289 96 290 q 76 294 76 289 l 76 297 q 78 315 76 297 q 85 353 81 332 q 98 394 90 375 q 115 417 106 413 q 235 485 186 444 q 315 600 285 526 q 301 609 313 607 q 288 611 290 611 l 49 611 l 26 617 q 26 624 26 617 q 25 636 25 632 q 26 667 25 647 q 29 705 28 686 q 33 737 31 724 q 38 750 35 750 l 460 750 q 465 740 464 750 q 465 725 465 729 q 445 680 465 713 q 399 610 425 647 q 348 539 372 572 q 315 494 324 506 q 307 484 313 492 q 295 469 301 476 q 283 454 289 461 q 276 444 278 447 l 276 422 q 360 370 328 397 q 409 309 392 343 q 432 231 426 275 q 438 131 438 188 l 410 -83 q 390 -108 407 -99 q 351 -123 374 -117 q 307 -136 329 -129 q 271 -156 285 -143 q 256 -170 267 -160 q 234 -192 246 -181 q 213 -213 222 -203 q 199 -228 203 -224 l 196 -228 q 167 -216 193 -228 q 110 -188 140 -204 q 56 -158 81 -172 q 31 -136 31 -143 z "},"":{"ha":528,"x_min":13,"x_max":508,"o":"m 289 89 q 263 76 278 89 q 231 47 247 63 q 201 17 215 31 q 181 4 188 4 q 164 11 171 4 l 13 158 q 29 190 13 178 q 66 215 46 201 q 103 250 86 229 q 119 311 119 271 l 119 347 q 119 419 119 381 q 114 489 118 457 q 106 526 111 506 q 94 567 100 547 q 83 601 88 586 q 79 622 79 617 q 90 641 79 632 q 115 657 101 650 q 143 670 129 664 q 164 683 157 676 q 178 701 169 689 q 198 727 188 714 q 217 751 208 740 q 233 761 226 761 q 277 745 243 761 q 347 710 311 729 q 412 672 383 690 q 442 650 440 654 l 442 183 q 460 151 442 163 q 497 139 478 139 l 503 139 q 508 131 507 135 q 508 122 508 128 l 508 106 l 392 -1 q 363 13 374 -1 q 341 44 351 26 q 319 75 331 61 q 289 89 307 89 m 175 206 q 185 188 175 199 q 209 166 194 176 q 240 148 224 156 q 271 140 257 140 l 274 140 q 288 140 278 140 q 300 147 297 140 l 300 285 q 299 303 300 299 q 290 307 297 307 q 265 296 281 307 q 232 270 249 285 q 199 242 215 256 q 175 222 183 228 l 175 206 m 169 311 q 175 305 171 306 q 183 304 179 304 q 232 330 203 304 q 297 383 261 356 l 297 550 l 292 561 q 270 569 286 561 q 235 586 254 576 q 198 603 215 596 q 172 611 181 611 q 163 610 168 611 q 158 604 158 610 l 158 600 q 168 506 165 556 q 171 407 171 456 q 171 357 171 381 q 169 311 171 333 m 290 844 q 308 867 290 851 q 347 899 325 883 q 387 927 368 915 q 408 939 406 939 q 432 922 421 939 q 443 894 443 906 q 429 872 443 886 q 396 842 415 857 q 357 817 376 828 q 328 806 338 806 q 303 819 315 806 q 290 844 290 833 m 146 850 q 160 870 146 856 q 194 900 175 885 q 231 927 213 915 q 258 939 250 939 q 286 929 274 939 q 299 903 299 919 q 285 884 299 899 q 252 853 271 869 q 215 823 233 836 q 186 810 196 810 q 158 822 171 810 q 146 850 146 835 z "},"":{"ha":921,"x_min":25,"x_max":919,"o":"m 614 1085 q 627 1108 614 1092 q 658 1140 640 1124 q 693 1167 675 1156 q 721 1179 711 1179 q 751 1166 736 1179 q 765 1138 765 1153 l 765 1129 q 742 1103 756 1118 q 712 1076 728 1089 q 655 1068 696 1063 q 614 1085 614 1074 m 464 1096 q 482 1122 464 1107 q 522 1149 500 1136 q 560 1170 543 1161 q 574 1179 576 1179 q 601 1170 588 1179 q 615 1146 615 1161 q 605 1126 615 1138 q 580 1101 594 1114 q 547 1075 565 1088 q 515 1051 529 1063 q 510 1051 514 1051 q 507 1050 507 1050 q 478 1065 492 1050 q 464 1096 464 1081 m 46 14 q 47 17 46 14 q 47 22 47 21 l 92 111 q 105 128 97 124 q 121 135 113 133 q 138 140 129 138 q 158 150 147 143 q 230 233 200 178 q 284 356 260 288 q 330 502 308 425 q 375 650 351 579 q 396 690 375 674 q 442 719 417 706 q 488 745 467 733 q 508 772 508 757 q 490 785 508 778 q 442 800 471 792 q 378 816 414 808 q 310 830 343 824 q 251 840 278 836 q 211 844 224 844 q 189 841 199 844 q 179 825 179 838 q 192 797 179 808 q 219 774 204 785 q 246 753 233 764 q 258 725 258 742 l 258 722 q 202 678 235 704 q 147 628 169 653 l 136 628 q 120 644 138 628 q 82 683 103 661 q 43 724 61 704 q 25 750 25 744 l 25 767 q 59 795 40 779 q 94 826 78 811 q 123 851 111 840 q 136 867 135 863 l 197 1000 q 204 1001 197 1000 q 215 1001 211 1001 q 328 988 272 1001 q 440 958 385 975 q 551 928 494 942 q 664 915 607 915 q 713 928 688 915 q 760 958 738 942 q 803 987 783 974 q 836 1000 824 1000 q 847 986 847 1000 l 847 978 q 844 944 846 968 q 841 894 843 921 q 838 844 839 868 q 836 811 836 821 l 836 256 q 849 198 836 218 q 878 167 863 178 q 906 149 893 156 q 919 135 919 143 l 919 128 l 819 22 q 810 16 815 17 q 800 15 804 15 q 773 26 786 15 q 749 51 760 36 q 728 82 738 65 q 714 111 719 99 l 708 111 q 689 103 699 111 q 669 86 679 96 q 649 66 658 76 q 631 50 639 56 l 597 17 l 589 17 q 488 22 539 17 q 385 28 436 28 l 344 28 q 277 24 313 28 q 205 14 242 19 q 130 4 168 8 q 57 0 92 0 q 46 14 46 0 m 592 161 q 610 158 597 160 q 636 155 622 157 q 663 151 650 153 q 681 150 675 150 q 685 149 682 150 q 689 149 689 149 q 701 156 700 149 q 703 171 703 163 l 703 183 q 700 227 701 200 q 697 280 699 254 q 693 324 694 306 q 692 344 692 343 l 688 367 l 569 299 q 552 310 568 299 q 516 337 536 322 q 476 364 496 351 q 451 376 457 376 q 431 360 440 376 q 415 324 422 344 q 400 283 407 303 q 386 256 393 263 q 351 231 371 240 q 312 211 332 221 q 274 190 292 201 q 242 161 256 179 q 258 158 244 160 q 275 156 271 156 l 281 156 q 294 156 283 156 q 338 158 306 157 q 431 160 371 158 q 592 161 490 161 m 450 413 q 454 411 450 411 l 574 458 l 692 392 l 692 822 l 686 850 l 682 850 q 644 838 664 850 q 608 809 625 825 q 577 778 590 793 q 558 756 564 763 q 544 724 554 750 q 524 663 535 699 q 501 585 513 626 q 479 509 489 544 q 463 449 469 474 q 457 424 457 425 l 450 413 z "},"":{"ha":1096,"x_min":24,"x_max":1056,"o":"m 274 31 q 220 25 246 31 q 169 13 194 19 q 119 0 144 6 q 68 -6 93 -6 q 36 3 49 -6 q 24 33 24 13 q 24 50 24 47 q 24 53 24 53 q 28 53 25 53 q 36 64 31 54 q 107 228 79 143 q 153 399 135 313 q 183 574 171 485 q 207 750 194 663 q 310 783 260 771 q 414 819 361 796 q 483 867 454 836 q 538 929 511 899 q 596 982 565 960 q 671 1004 626 1004 q 833 965 761 1004 q 953 861 904 925 q 1029 716 1003 797 q 1056 551 1056 635 q 1051 490 1056 529 q 1040 405 1047 451 q 1022 308 1032 358 q 998 215 1011 258 q 970 136 985 171 q 940 86 956 101 q 930 81 939 85 q 918 75 921 76 q 895 71 914 74 q 855 65 876 68 q 815 58 833 61 q 792 53 796 54 q 757 37 774 49 q 724 13 740 25 q 690 -8 707 1 q 656 -17 674 -17 q 560 -9 607 -17 q 465 7 513 -1 q 370 23 418 15 q 274 31 322 31 m 482 315 q 451 300 474 311 q 402 276 428 289 q 353 251 376 263 q 322 236 331 240 q 269 206 306 226 q 196 160 232 185 q 132 109 160 135 q 104 64 104 83 q 105 58 104 63 q 106 53 106 54 q 168 76 140 58 q 225 111 196 93 q 288 143 254 129 q 371 157 322 157 q 471 154 424 157 q 574 144 518 151 q 619 136 594 142 q 668 124 643 131 q 717 114 693 118 q 764 110 742 110 l 792 110 q 873 301 850 203 q 896 507 896 399 q 880 621 896 561 q 831 730 864 681 q 750 811 799 779 q 636 843 701 843 q 615 842 629 843 q 597 831 600 840 l 482 315 m 265 263 q 305 274 289 263 q 331 304 321 286 q 347 344 342 322 q 357 383 353 365 q 374 469 364 417 q 392 572 383 522 q 408 657 401 621 q 414 694 414 693 l 414 753 q 402 752 411 753 q 383 749 393 751 q 366 745 374 747 q 357 740 358 743 l 265 304 l 265 263 m 614 1085 q 627 1108 614 1092 q 658 1140 640 1124 q 693 1167 675 1156 q 721 1179 711 1179 q 751 1166 736 1179 q 765 1138 765 1153 l 765 1129 q 742 1103 756 1118 q 712 1076 728 1089 q 655 1068 696 1063 q 614 1085 614 1074 m 464 1096 q 482 1122 464 1107 q 522 1149 500 1136 q 560 1170 543 1161 q 574 1179 576 1179 q 601 1170 588 1179 q 615 1146 615 1161 q 605 1126 615 1138 q 580 1101 594 1114 q 547 1075 565 1088 q 515 1051 529 1063 q 510 1051 514 1051 q 507 1050 507 1050 q 478 1065 492 1050 q 464 1096 464 1081 z "},"":{"ha":524,"x_min":33,"x_max":475,"o":"m 132 850 q 145 875 132 860 q 176 905 158 890 q 213 929 194 919 q 240 939 231 939 l 250 939 l 283 906 q 284 901 283 904 q 285 897 285 899 q 272 874 285 889 q 240 842 258 858 q 201 815 221 826 q 171 804 182 804 q 160 809 167 804 q 147 822 153 814 q 136 837 140 829 q 132 850 132 844 m 278 842 q 294 865 278 849 q 330 897 310 881 q 367 926 350 914 q 386 939 383 939 q 418 923 403 939 q 433 892 433 907 q 417 870 433 885 q 381 841 401 856 q 342 815 361 826 q 317 804 324 804 q 290 816 303 804 q 278 842 278 828 m 35 236 l 35 631 l 278 758 q 322 745 297 758 q 374 714 347 732 q 428 677 401 696 q 475 647 454 658 l 475 114 q 452 100 469 106 q 413 88 435 94 q 369 74 392 82 q 331 53 347 67 q 314 37 324 47 q 292 16 304 26 q 268 -2 281 6 q 244 -10 256 -10 q 226 -8 232 -10 q 208 3 221 -6 q 160 31 189 14 q 102 67 131 49 q 53 99 74 85 q 33 118 33 114 l 35 236 m 189 633 q 181 625 182 633 q 179 607 179 617 q 180 593 179 600 q 181 586 181 586 l 181 219 q 195 195 181 208 q 229 171 210 182 q 268 153 249 160 q 296 146 288 146 q 326 157 314 146 q 338 183 338 168 l 338 546 q 328 572 338 567 l 189 633 z "},"":{"ha":938,"x_min":26,"x_max":921,"o":"m 53 11 q 59 20 53 14 q 74 35 65 26 q 91 53 82 43 q 104 72 100 63 l 188 150 q 199 165 193 154 q 204 183 204 175 l 143 472 q 130 507 138 486 q 115 550 122 528 q 102 593 107 572 q 97 628 97 614 q 98 639 97 636 q 104 646 99 642 q 110 650 107 649 l 199 728 q 223 751 210 738 q 248 776 236 764 q 268 800 260 789 q 276 817 276 811 q 276 828 276 819 q 271 839 275 836 l 26 839 l 26 850 l 115 989 l 131 989 l 315 972 l 432 978 l 460 689 l 465 661 q 472 611 467 651 q 484 525 478 571 q 497 439 490 479 q 504 389 503 399 q 506 375 504 386 q 510 361 508 364 l 510 338 q 499 322 510 329 l 376 244 q 351 224 367 235 q 319 205 335 214 q 293 187 304 196 q 282 172 282 178 q 288 167 282 167 q 361 163 319 165 q 446 159 403 161 q 531 156 489 157 q 604 152 572 154 q 654 149 636 150 q 668 149 672 149 q 684 163 679 149 q 691 198 689 178 q 693 240 693 218 q 694 278 693 263 l 694 601 q 690 826 694 714 q 677 837 688 835 q 656 839 667 839 l 521 839 q 514 850 514 842 q 524 869 514 851 q 547 908 535 886 q 572 951 560 931 q 588 978 583 971 q 590 981 588 979 q 593 983 592 982 l 724 983 q 797 980 761 983 q 849 961 833 976 l 843 958 l 843 192 q 849 171 843 181 q 864 154 856 161 q 881 143 872 147 q 896 139 890 139 l 906 139 q 917 137 913 139 q 921 125 921 135 q 904 95 921 115 q 865 55 888 75 q 823 19 843 35 q 796 4 803 4 q 768 21 782 4 q 740 58 754 38 q 713 94 726 78 q 688 111 700 111 q 651 95 667 111 q 618 60 635 79 q 582 26 601 42 q 536 10 563 10 q 459 17 497 10 q 375 24 421 24 l 233 24 q 148 19 185 24 q 65 0 111 14 l 63 0 q 53 11 53 0 m 321 294 q 326 279 324 288 q 338 271 328 271 q 369 285 357 271 q 382 317 382 300 l 310 728 q 304 745 308 735 q 293 756 300 756 l 288 756 q 257 722 272 738 q 242 682 242 706 l 242 674 q 243 659 242 667 q 249 644 244 651 l 321 294 m 614 1085 q 627 1108 614 1092 q 658 1140 640 1124 q 693 1167 675 1156 q 721 1179 711 1179 q 751 1166 736 1179 q 765 1138 765 1153 l 765 1129 q 742 1103 756 1118 q 712 1076 728 1089 q 655 1068 696 1063 q 614 1085 614 1074 m 464 1096 q 482 1122 464 1107 q 522 1149 500 1136 q 560 1170 543 1161 q 574 1179 576 1179 q 601 1170 588 1179 q 615 1146 615 1161 q 605 1126 615 1138 q 580 1101 594 1114 q 547 1075 565 1088 q 515 1051 529 1063 q 510 1051 514 1051 q 507 1050 507 1050 q 478 1065 492 1050 q 464 1096 464 1081 z "},"":{"ha":583,"x_min":24,"x_max":564,"o":"m 25 122 q 47 307 47 213 l 47 322 q 41 449 44 399 q 33 535 38 500 q 26 597 29 571 q 24 649 24 622 q 24 658 24 651 q 25 667 25 665 q 49 685 26 671 q 99 716 71 700 q 150 744 126 732 q 178 756 174 756 q 188 737 183 756 q 194 689 192 718 q 197 624 196 660 q 197 556 197 589 l 197 385 q 197 301 197 342 q 192 211 196 261 q 213 178 194 193 q 251 153 231 164 q 290 138 272 143 q 311 132 307 132 q 327 161 321 132 q 337 234 333 190 q 341 330 340 278 q 342 428 342 382 l 342 533 l 331 708 q 335 722 331 715 q 347 728 339 728 l 497 728 q 503 718 503 728 l 497 650 q 495 601 496 633 q 493 526 494 568 q 491 439 492 485 q 489 351 490 393 q 487 276 488 310 q 486 228 486 243 q 490 187 488 204 q 499 158 492 169 q 522 141 507 147 q 564 133 536 135 l 564 115 q 563 108 564 111 q 558 100 563 104 l 458 0 q 456 -1 458 0 q 450 -1 453 -1 q 417 9 432 -1 q 389 33 403 19 q 360 56 375 46 q 328 67 346 67 q 300 56 313 67 q 276 33 288 46 q 253 9 264 19 q 231 -1 242 -1 q 189 17 222 -1 q 119 57 156 35 q 54 98 83 79 q 25 117 25 117 l 25 119 l 25 122 m 307 833 q 322 862 307 844 q 355 895 336 879 q 392 923 374 911 q 417 935 410 935 q 445 917 432 935 q 458 883 458 899 l 458 872 q 424 847 442 861 q 391 822 407 833 q 363 801 375 810 q 344 793 350 793 q 316 808 325 793 q 307 833 307 822 m 157 838 q 172 866 157 849 q 207 899 188 883 q 244 927 226 915 q 267 939 261 939 q 299 923 283 939 q 314 892 314 907 l 314 889 q 294 864 310 879 q 260 834 279 849 q 224 809 242 819 q 196 799 206 799 q 193 799 194 799 q 192 800 192 800 l 158 833 q 158 835 158 833 q 157 838 157 836 z "},"":{"ha":626,"x_min":21,"x_max":588,"o":"m 89 619 q 73 629 85 625 q 50 637 61 633 q 30 645 39 640 q 21 658 21 650 q 31 674 21 668 q 54 688 42 681 q 77 706 67 694 q 88 736 88 717 l 88 953 q 94 963 88 958 q 108 972 100 968 q 122 977 115 975 q 132 981 129 979 q 176 1008 153 989 q 223 1045 200 1026 q 266 1078 246 1064 q 299 1092 286 1092 l 310 1092 q 345 1076 315 1089 q 408 1048 375 1064 q 468 1015 442 1032 q 494 986 494 997 q 483 958 494 976 q 459 921 472 939 q 433 889 446 903 q 419 875 421 875 l 418 875 q 374 886 394 875 q 333 911 353 897 q 292 936 313 925 q 249 947 271 947 q 242 947 246 947 q 238 942 238 946 l 238 669 l 249 658 q 263 674 254 663 q 281 696 272 685 q 295 716 289 707 q 304 725 301 725 l 564 725 q 554 691 564 713 q 529 644 544 669 q 495 591 514 618 q 460 542 476 564 q 456 535 458 539 q 454 531 454 531 q 466 517 454 526 q 494 497 478 507 q 524 475 510 486 q 543 458 539 464 q 577 380 567 422 q 588 296 588 338 l 588 292 q 572 187 581 225 q 554 129 564 149 q 532 105 544 110 q 506 100 519 100 l 486 100 q 453 96 471 100 q 415 75 436 92 q 397 53 406 67 q 380 26 389 39 q 360 5 371 14 q 338 -4 350 -4 q 313 3 324 -4 q 290 19 301 10 q 268 36 279 28 q 243 47 257 44 l 242 47 q 233 42 236 47 q 228 31 229 38 q 226 19 226 25 q 226 14 226 15 l 226 -186 l 89 -225 l 89 619 m 219 599 l 219 115 q 243 126 233 115 q 261 151 253 138 q 278 175 269 164 q 299 186 286 186 q 325 177 313 186 q 349 158 338 168 q 373 138 361 147 q 399 129 385 129 q 423 153 414 129 q 436 206 432 176 q 442 262 440 235 q 443 296 443 289 q 433 340 443 322 q 405 370 422 358 q 366 388 388 382 q 322 393 344 393 q 313 392 318 393 q 304 392 308 392 q 299 397 299 392 q 301 401 299 397 q 304 408 303 406 q 315 424 308 413 q 328 446 321 435 q 342 467 336 457 q 349 481 347 478 q 365 503 354 490 q 386 529 376 515 q 403 557 396 543 q 411 583 411 571 q 396 595 411 593 q 363 599 381 597 l 222 599 l 219 599 z "},"":{"ha":450,"x_min":17,"x_max":433,"o":"m 433 424 q 403 377 418 404 q 375 328 388 350 q 327 331 347 329 q 289 333 307 332 q 251 335 271 335 q 203 335 232 335 l 264 335 q 194 334 222 335 q 140 333 167 333 q 86 330 114 332 q 17 325 58 328 q 42 370 29 344 q 64 418 56 396 q 92 417 85 418 q 104 417 100 417 q 117 417 110 417 q 143 417 124 417 q 201 417 164 417 q 307 417 240 417 q 370 419 339 417 q 433 424 401 421 z "},"":{"ha":161,"x_min":10,"x_max":150,"o":"m 10 -82 q 16 -51 10 -67 q 31 -22 22 -36 q 48 7 39 -7 q 61 35 57 21 q 68 64 64 44 q 79 103 72 83 q 96 137 86 122 q 121 151 106 151 q 143 147 136 151 q 150 126 150 142 q 137 75 150 113 q 106 -3 124 38 q 70 -74 89 -43 q 40 -106 51 -106 q 19 -101 29 -106 q 10 -82 10 -96 z "},"":{"ha":301,"x_min":19,"x_max":282,"o":"m 19 -85 q 34 -32 19 -69 q 67 44 49 6 q 98 111 85 82 q 110 140 111 140 l 149 140 q 158 135 156 140 q 160 124 160 129 l 160 119 q 147 72 160 108 q 115 -6 133 35 q 81 -78 97 -46 q 57 -110 64 -110 q 32 -105 44 -110 q 19 -85 19 -100 m 142 -87 q 148 -57 142 -72 q 163 -27 154 -42 q 180 1 171 -12 q 193 29 189 15 q 200 58 196 39 q 211 97 204 78 q 228 131 218 117 q 253 146 238 146 q 275 141 268 146 q 282 121 282 136 q 269 69 282 107 q 238 -9 256 31 q 201 -80 219 -49 q 171 -111 182 -111 q 151 -106 160 -111 q 142 -87 142 -101 z "},"":{"ha":904,"x_min":32,"x_max":864,"o":"m 261 78 q 202 23 228 54 q 144 -35 176 -8 q 90 23 118 -4 q 32 78 61 50 q 90 134 61 106 q 146 193 118 163 q 201 133 172 161 q 261 78 231 106 m 565 79 q 506 24 532 56 q 449 -33 481 -7 q 394 24 422 -3 q 336 79 365 51 q 394 135 365 107 q 450 194 422 164 q 506 135 476 163 q 565 79 535 107 m 864 79 q 805 24 831 56 q 747 -33 779 -7 q 692 24 721 -3 q 635 79 664 51 q 692 135 664 107 q 749 194 721 164 q 804 135 775 163 q 864 79 833 107 z "},"=":{"ha":493,"x_min":36,"x_max":485,"o":"m 453 326 q 422 280 438 307 q 394 231 407 253 q 347 233 367 232 q 308 236 326 235 q 271 238 290 238 q 222 238 251 238 l 283 238 q 214 237 242 238 q 160 235 186 236 q 106 233 133 235 q 36 228 78 231 q 62 273 49 247 q 83 321 75 299 q 112 320 104 321 q 124 319 119 319 q 136 319 129 319 q 163 319 143 319 q 221 319 183 319 q 326 319 260 319 q 390 322 358 319 q 453 326 421 324 m 485 485 q 454 438 469 465 q 426 389 439 411 q 378 392 399 390 q 340 394 358 393 q 303 396 322 396 q 254 396 283 396 l 315 396 q 246 395 274 396 q 192 394 218 394 q 138 391 165 393 q 68 386 110 389 q 94 431 81 406 q 115 479 107 457 q 144 478 136 479 q 156 478 151 478 q 168 478 161 478 q 194 478 175 478 q 253 478 215 478 q 358 478 292 478 q 422 480 390 478 q 485 485 453 482 z "},"-":{"ha":303,"x_min":47,"x_max":261,"o":"m 256 479 q 149 397 203 439 q 47 310 96 354 l 54 438 q 159 519 107 478 q 261 606 211 561 l 256 479 m 256 275 q 151 191 203 238 q 47 107 100 144 l 54 221 q 107 265 81 240 q 160 316 133 290 q 211 368 186 342 q 261 417 236 394 l 256 275 z "},"":{"ha":454,"x_min":21,"x_max":433,"o":"m 43 119 q 56 135 43 122 q 86 163 69 149 q 119 189 103 178 q 142 200 135 200 q 169 190 157 200 q 192 167 181 179 q 215 144 203 154 q 243 133 226 133 l 250 133 q 275 144 264 135 q 294 165 286 153 q 307 192 303 178 q 311 219 311 207 l 311 229 q 310 249 311 238 q 307 272 310 261 q 299 290 304 282 q 283 297 293 297 l 94 297 q 54 310 69 297 q 32 342 39 322 q 23 385 25 361 q 21 429 21 408 l 21 461 q 31 505 21 488 q 52 537 40 522 q 74 566 64 551 q 83 601 83 581 q 71 631 83 619 q 56 661 58 642 q 47 745 49 701 q 44 829 44 789 q 68 856 44 839 q 122 892 92 874 q 182 928 153 911 q 222 956 211 946 q 238 972 231 963 q 251 990 244 982 q 268 1005 258 999 q 292 1011 278 1011 q 313 996 296 1011 q 350 961 331 981 q 385 924 369 942 q 401 900 401 906 q 389 876 401 892 q 360 846 376 861 q 328 819 344 831 q 304 808 313 808 q 299 809 303 808 q 294 811 294 810 l 228 878 q 218 883 226 879 q 206 889 210 886 l 203 889 q 183 878 190 889 q 171 852 175 867 q 166 823 167 838 q 165 800 165 808 q 175 746 165 764 q 205 721 185 728 q 257 715 225 714 q 333 715 289 715 q 360 715 347 715 q 378 717 372 715 q 410 697 399 710 q 426 667 421 683 q 432 631 431 650 q 433 593 433 611 q 422 538 433 561 q 397 498 410 515 q 372 466 383 481 q 360 436 360 451 q 370 421 360 429 q 394 401 381 413 q 417 374 407 389 q 428 339 428 358 l 428 206 q 406 183 428 201 q 357 144 385 165 q 303 104 329 124 q 267 78 276 85 q 235 54 253 68 q 203 28 218 40 q 176 7 188 15 q 164 -1 165 -1 q 158 -1 161 -1 q 156 0 156 -1 l 50 106 q 47 110 49 106 q 44 117 46 114 l 43 119 m 99 481 q 109 454 99 464 q 135 440 119 444 q 171 433 151 435 q 208 431 190 431 q 263 435 238 431 q 306 449 288 439 q 334 478 324 460 q 344 526 344 497 q 337 557 344 546 q 317 574 329 568 q 288 583 304 581 q 256 585 272 585 q 227 584 240 585 q 203 583 214 583 l 144 583 q 108 538 118 564 q 99 481 99 513 z "},"\\":{"ha":340,"x_min":17,"x_max":375,"o":"m 17 649 q 26 667 17 661 q 48 680 36 674 q 69 695 60 686 q 79 721 79 704 l 79 954 q 114 994 96 971 q 150 1040 132 1018 q 185 1078 168 1063 q 214 1094 201 1094 q 265 1085 236 1094 q 319 1063 294 1076 q 360 1031 344 1049 q 371 997 375 1014 l 340 904 q 333 899 338 900 q 325 899 329 899 q 288 907 306 899 q 250 915 269 915 l 246 915 q 235 907 242 913 q 224 899 228 901 l 224 -185 q 205 -208 222 -199 q 166 -223 188 -217 q 123 -232 144 -229 q 92 -235 101 -235 q 84 -234 89 -235 q 79 -229 79 -233 l 79 554 q 69 600 79 585 q 48 623 60 615 q 26 635 36 631 q 17 649 17 640 z "},"]":{"ha":274,"x_min":4,"x_max":238,"o":"m 238 1104 l 238 -35 q 233 -47 238 -42 q 221 -51 228 -51 l 21 -51 q 8 -45 13 -51 q 4 -32 4 -39 q 7 -12 4 -25 q 21 1 10 1 l 131 1 l 131 1056 q 123 1069 129 1067 q 107 1072 117 1072 q 92 1072 100 1072 q 75 1071 83 1071 l 44 1071 l 21 1071 q 8 1090 8 1076 q 12 1106 8 1097 q 26 1115 15 1115 l 226 1115 l 238 1104 z "},"@":{"ha":1142,"x_min":47,"x_max":1079,"o":"m 682 540 l 824 546 l 717 179 q 700 88 700 96 q 713 56 700 69 q 746 42 726 42 q 903 139 822 42 q 999 406 999 251 q 904 661 999 558 q 625 772 801 772 q 243 604 386 772 q 108 235 108 451 q 243 -100 108 26 q 565 -225 372 -225 q 832 -153 704 -225 q 1043 97 979 -68 l 1079 97 q 1035 6 1060 47 q 978 -72 1010 -36 q 564 -257 822 -257 q 197 -115 343 -257 q 47 254 47 31 q 201 646 47 489 q 611 808 360 808 q 932 685 817 808 q 1031 415 1031 575 q 939 131 1031 249 q 681 0 839 0 q 576 47 607 0 q 563 100 563 71 q 566 142 563 122 q 576 182 569 163 l 575 183 q 375 0 468 0 q 297 46 322 0 q 278 129 278 81 q 332 347 278 240 q 456 503 379 439 q 579 561 522 561 q 661 471 649 561 l 663 471 l 682 540 m 593 519 q 543 488 567 519 q 499 411 519 453 q 463 319 479 369 q 428 160 428 224 q 438 123 428 139 q 463 107 447 107 q 568 218 507 107 q 636 444 636 338 q 593 519 636 519 z "},"":{"ha":929,"x_min":17,"x_max":907,"o":"m 867 685 q 567 832 738 832 q 374 758 460 832 q 260 579 286 683 l 822 579 l 781 482 l 243 482 l 243 435 l 761 435 l 721 338 l 261 338 q 372 160 296 229 q 567 85 457 85 q 875 243 739 85 l 875 103 q 567 -10 735 -10 q 303 92 417 -10 q 161 338 199 188 l 17 338 l 57 435 l 147 435 q 146 451 146 446 q 146 458 146 457 q 146 467 146 461 q 147 482 146 472 l 17 482 l 57 579 l 161 579 q 303 826 194 729 q 567 929 417 929 q 907 782 761 929 l 867 685 z "},"\u0005":{"ha":463,"x_min":32,"x_max":431,"o":"m 58 1025 q 81 974 67 999 q 115 931 94 950 q 165 901 136 913 q 229 890 193 890 q 338 924 290 890 q 403 1025 385 958 l 431 1025 q 418 952 428 996 q 386 869 408 908 q 326 801 364 829 q 231 772 289 772 q 142 797 178 772 q 82 860 106 822 q 47 942 58 897 q 32 1025 35 986 l 58 1025 z "},"\u0006":{"ha":463,"x_min":158,"x_max":307,"o":"m 158 885 l 232 958 l 307 885 l 232 810 l 158 885 z "},"\b":{"ha":463,"x_min":136,"x_max":363,"o":"m 249 1039 q 328 1007 294 1039 q 363 926 363 975 q 330 846 363 879 q 249 813 297 813 q 169 846 201 813 q 136 926 136 879 q 145 971 136 950 q 170 1007 154 992 q 206 1031 186 1022 q 249 1039 226 1039 m 250 1000 q 197 978 219 1000 q 175 925 175 957 q 197 873 175 894 q 250 851 218 851 q 302 873 281 851 q 324 925 324 894 q 302 978 324 957 q 250 1000 281 1000 z "},"\n":{"ha":463,"x_min":93,"x_max":514,"o":"m 294 775 l 356 1028 l 514 1028 l 332 775 l 294 775 m 93 775 l 154 1028 l 313 1028 l 131 775 l 93 775 z "},"\u000b":{"ha":463,"x_min":78,"x_max":385,"o":"m 190 11 q 165 -22 179 -3 q 151 -67 151 -42 q 163 -109 151 -87 q 192 -149 174 -131 q 235 -178 211 -167 q 288 -189 260 -189 q 340 -180 319 -189 q 374 -161 360 -171 l 385 -178 q 306 -231 349 -210 q 214 -251 263 -251 q 164 -244 189 -251 q 120 -222 139 -236 q 90 -185 101 -207 q 78 -133 78 -162 q 85 -89 78 -110 q 106 -51 93 -68 q 133 -17 118 -33 q 161 11 147 -1 l 190 11 z "},"\f":{"ha":463,"x_min":56,"x_max":454,"o":"m 454 1058 l 326 804 l 181 804 l 56 1058 l 96 1058 l 254 913 l 414 1058 l 454 1058 z "},"":{"ha":301,"x_min":-125,"x_max":289,"o":"m 54 97 q 62 123 54 111 q 72 150 69 135 q 76 243 75 196 q 78 336 78 290 l 78 394 q 77 461 75 426 q 75 526 79 496 q 57 576 71 556 q 11 600 43 596 l 11 617 q 27 628 15 608 q 56 674 39 647 q 94 726 74 701 q 139 750 115 750 l 144 750 q 207 684 181 718 q 233 600 233 650 q 228 436 233 518 q 222 272 222 354 l 222 267 q 223 244 222 260 q 224 211 224 229 q 226 177 225 193 q 228 156 228 161 q 242 140 232 144 q 262 131 251 135 q 281 121 272 126 q 289 103 289 115 l 289 100 q 264 75 282 92 q 226 41 246 58 q 187 11 206 24 q 158 -1 168 -1 q 136 12 153 -1 q 101 42 119 25 q 69 74 83 58 q 54 97 54 90 m -125 1053 l 33 1053 l 94 800 l 57 800 l -125 1053 z "},"\r":{"ha":301,"x_min":11,"x_max":289,"o":"m 54 97 q 62 123 54 111 q 72 150 69 135 q 76 243 75 196 q 78 336 78 290 l 78 394 q 77 461 75 426 q 75 526 79 496 q 57 576 71 556 q 11 600 43 596 l 11 617 q 27 628 15 608 q 56 674 39 647 q 94 726 74 701 q 139 750 115 750 l 144 750 q 207 684 181 718 q 233 600 233 650 q 228 436 233 518 q 222 272 222 354 l 222 267 q 223 244 222 260 q 224 211 224 229 q 226 177 225 193 q 228 156 228 161 q 242 140 232 144 q 262 131 251 135 q 281 121 272 126 q 289 103 289 115 l 289 100 q 264 75 282 92 q 226 41 246 58 q 187 11 206 24 q 158 -1 168 -1 q 136 12 153 -1 q 101 42 119 25 q 69 74 83 58 q 54 97 54 90 z "},"\u0019":{"ha":174,"x_min":-271,"x_max":436,"o":"m -271 -46 l 347 943 l 436 943 l -182 -46 l -271 -46 z "},"$":{"ha":708,"x_min":39,"x_max":669,"o":"m 404 936 q 517 909 467 926 q 600 876 568 892 l 546 754 l 404 794 l 404 538 l 579 628 q 629 557 611 593 q 656 489 647 521 q 667 431 665 457 q 669 388 669 404 q 650 276 669 329 q 595 176 631 224 q 511 84 560 128 q 404 0 463 40 l 404 -121 l 331 -121 l 331 14 l 39 96 l 117 219 l 331 161 l 331 465 l 168 382 q 120 431 143 406 q 79 485 97 456 q 50 552 61 515 q 39 635 39 589 q 52 725 39 675 q 99 819 65 775 q 188 897 132 864 q 331 939 244 931 l 331 996 l 404 996 l 404 936 m 331 815 l 182 857 q 156 803 171 836 q 142 721 142 771 q 158 632 142 671 q 199 564 175 593 q 249 515 222 535 q 294 481 275 494 l 331 499 l 331 815 m 404 140 l 499 115 q 549 204 531 156 q 567 306 567 253 q 562 353 567 324 q 543 415 557 383 q 505 475 529 446 q 442 524 481 504 l 404 504 l 404 140 z "},"%":{"ha":1013,"x_min":53,"x_max":957,"o":"m 272 875 q 328 849 292 867 q 397 789 364 832 q 408 774 404 779 q 418 760 413 769 q 438 713 431 736 q 449 669 444 690 q 453 633 453 649 q 454 610 454 618 q 446 539 454 578 q 422 471 438 500 q 413 453 418 461 q 400 436 407 444 q 385 415 397 431 q 356 383 372 399 q 308 347 332 361 q 256 318 283 333 q 210 335 231 326 q 168 358 190 343 q 82 458 111 396 q 53 590 53 521 q 83 720 53 663 q 171 819 114 778 q 190 833 172 821 q 222 853 207 846 q 247 865 235 860 q 272 875 260 869 m 774 864 l 306 1 l 236 1 l 704 864 l 774 864 m 215 799 q 167 747 185 793 q 149 639 149 701 q 150 601 149 618 q 157 564 151 583 q 188 483 168 513 q 224 438 208 453 q 264 407 244 415 q 297 399 283 399 q 345 435 329 399 q 361 531 361 472 q 360 566 361 540 q 351 625 358 592 q 328 694 343 658 q 288 760 314 731 q 256 787 276 772 q 215 799 236 801 m 772 546 q 822 524 801 535 q 867 494 843 514 q 899 464 882 483 q 932 404 915 444 q 953 331 949 364 q 957 282 957 299 q 953 238 957 265 q 939 178 950 210 q 906 111 928 146 q 847 46 885 76 q 813 20 832 31 q 757 -10 794 10 q 709 8 729 0 q 665 33 689 17 q 606 94 628 60 q 573 160 585 128 q 558 221 561 193 q 556 263 556 249 q 561 319 556 283 q 592 400 567 356 q 603 417 596 407 q 621 443 610 428 q 635 458 632 454 q 656 475 639 461 q 678 494 668 486 q 700 509 688 501 q 729 525 713 517 q 772 546 746 533 m 718 469 q 708 467 714 468 q 696 458 703 465 q 665 406 678 443 q 651 314 651 368 q 667 206 651 258 q 721 114 683 154 q 765 80 744 90 q 800 69 785 69 q 813 72 806 69 q 829 82 819 74 q 850 116 843 94 q 860 158 857 138 q 864 193 864 178 q 864 208 864 208 q 840 347 864 292 q 794 425 815 401 q 762 455 783 439 q 718 469 740 471 z "},"/":{"ha":492,"x_min":6,"x_max":478,"o":"m 478 983 l 74 1 l 6 1 l 411 983 l 478 983 z "},"^":{"ha":810,"x_min":101,"x_max":710,"o":"m 379 1014 l 435 1014 l 710 526 l 601 526 l 401 874 l 204 526 l 101 526 l 379 1014 z "},"_":{"ha":694,"x_min":-8,"x_max":703,"o":"m 703 -104 l 703 -174 l -8 -174 l -8 -104 l 703 -104 z "},"{":{"ha":550,"x_min":113,"x_max":488,"o":"m 488 983 q 386 935 417 969 q 356 857 356 901 q 362 792 356 825 q 372 746 368 760 q 376 724 374 738 q 382 692 379 710 q 387 656 385 675 q 389 619 389 636 q 373 544 389 583 q 328 475 357 504 q 292 444 310 457 q 256 422 275 432 q 215 406 238 413 q 167 393 193 399 l 167 390 q 261 356 224 374 q 332 303 299 338 q 362 262 350 283 q 380 221 374 240 q 388 186 386 201 q 390 163 390 171 q 383 97 390 131 q 374 53 376 63 q 364 1 371 39 q 357 -71 357 -36 q 394 -162 357 -133 q 488 -203 432 -192 l 488 -235 q 352 -212 406 -236 q 267 -153 299 -187 q 222 -82 235 -119 q 208 -19 208 -44 q 211 19 208 -3 q 217 60 214 40 q 224 94 221 79 q 229 115 228 110 q 239 160 233 129 q 244 222 244 190 q 242 250 244 229 q 228 294 240 271 q 189 340 215 318 q 113 369 163 361 l 113 411 q 189 442 163 419 q 228 489 215 464 q 242 535 240 514 q 244 564 244 557 q 239 625 244 596 q 231 667 233 654 q 226 688 229 672 q 219 723 222 704 q 213 762 215 742 q 210 797 210 782 q 212 817 210 800 q 222 857 214 833 q 248 907 231 881 q 296 956 265 933 q 373 995 326 979 q 488 1014 419 1011 l 488 983 z "},"|":{"ha":782,"x_min":342,"x_max":440,"o":"m 440 1014 l 440 -140 l 342 -140 l 342 1014 l 440 1014 z "},"}":{"ha":550,"x_min":63,"x_max":438,"o":"m 63 1014 q 176 995 129 1011 q 254 956 224 979 q 302 907 285 933 q 328 857 319 881 q 338 817 336 833 q 340 797 340 800 q 338 762 340 782 q 331 723 335 742 q 324 688 328 704 q 319 667 321 672 q 311 625 317 654 q 306 564 306 596 q 308 535 306 557 q 322 489 310 514 q 361 442 335 464 q 438 411 388 419 l 438 369 q 361 340 388 361 q 322 294 335 318 q 308 250 310 271 q 306 222 306 229 q 311 160 306 190 q 321 115 317 129 q 326 94 322 110 q 333 60 329 79 q 339 19 336 40 q 342 -19 342 -3 q 328 -82 342 -44 q 283 -153 315 -119 q 197 -212 251 -187 q 63 -235 143 -236 l 63 -203 q 156 -162 118 -192 q 193 -71 193 -133 q 186 1 193 -36 q 176 53 179 39 q 167 97 174 63 q 160 163 160 131 q 162 186 160 171 q 170 221 164 201 q 188 262 176 240 q 218 303 199 283 q 289 356 251 338 q 383 390 326 374 l 383 393 q 294 422 331 406 q 222 475 257 439 q 177 544 193 504 q 161 619 161 583 q 163 656 161 636 q 168 692 165 675 q 174 724 171 710 q 178 746 176 738 q 188 792 182 760 q 194 857 194 825 q 164 935 194 901 q 63 983 133 969 l 63 1014 l 63 1014 z "},"~":{"ha":926,"x_min":90,"x_max":836,"o":"m 836 572 q 811 450 833 496 q 759 380 789 404 q 698 348 729 356 q 646 340 667 340 q 603 343 624 340 q 556 355 583 346 q 489 379 528 364 q 390 419 450 394 q 302 453 332 444 q 250 461 272 461 q 192 447 214 461 q 158 412 171 432 q 140 372 146 392 q 133 340 135 351 l 90 340 q 97 406 92 364 q 125 486 101 449 q 198 554 156 536 q 275 572 240 572 q 304 571 288 572 q 349 563 321 569 q 421 539 376 556 q 535 493 465 522 q 593 469 569 478 q 632 456 617 460 q 657 451 647 451 q 676 450 667 450 q 712 455 693 450 q 747 474 731 460 q 776 511 764 488 q 793 572 789 535 l 836 572 z "},"`":{"ha":463,"x_min":-17,"x_max":203,"o":"m -17 1056 l 142 1056 l 203 803 l 165 803 l -17 1056 z "},"":{"ha":681,"x_min":10,"x_max":671,"o":"m 314 26 q 311 11 313 19 q 310 -8 310 3 q 319 -52 310 -40 q 342 -72 329 -64 l 333 -89 q 216 -140 267 -108 q 138 -192 165 -172 l 10 -65 l 29 -47 l 74 -89 l 163 -32 l 313 617 l 249 617 l 267 692 l 331 692 l 368 856 q 450 905 399 874 q 549 972 501 936 l 671 940 l 624 826 l 506 856 l 468 692 l 574 692 l 556 617 l 450 617 l 314 26 z "},"":{"ha":781,"x_min":15,"x_max":769,"o":"m 643 483 q 594 526 628 499 q 503 571 560 554 q 483 576 496 574 q 451 582 469 579 q 435 583 443 583 q 418 583 426 583 q 416 499 415 542 q 418 415 417 457 q 426 199 419 283 q 447 57 432 115 q 457 19 451 38 q 471 -21 463 0 q 490 -68 479 -42 q 518 -129 501 -94 q 488 -166 503 -149 q 457 -203 472 -183 q 423 -251 439 -226 q 390 -300 407 -276 q 356 -249 372 -274 q 319 -199 339 -224 q 292 -163 306 -181 q 263 -128 278 -146 q 300 -46 282 -87 q 331 40 318 -4 q 359 252 351 117 q 365 581 367 388 q 338 580 346 581 q 318 578 329 579 q 260 562 300 575 q 178 517 219 549 q 158 501 167 510 q 138 482 149 492 q 103 517 121 500 q 68 550 86 533 q 41 575 54 563 q 15 600 28 588 l 138 714 q 163 692 151 701 q 184 674 174 682 q 207 660 194 667 q 236 644 219 653 q 312 621 281 625 q 363 615 343 617 q 364 644 365 629 q 358 685 363 658 q 316 809 344 765 q 264 879 288 853 q 293 905 282 894 q 312 923 304 915 q 326 938 319 931 q 342 957 332 946 q 356 974 349 965 q 371 992 364 982 q 381 1004 376 999 q 390 1017 385 1010 q 417 987 406 1003 q 442 956 428 971 q 486 908 465 928 q 517 879 507 888 q 486 842 497 858 q 463 801 475 826 q 440 753 451 779 q 422 678 429 726 q 419 649 419 663 q 418 633 418 636 q 419 617 418 622 q 467 621 439 618 q 535 640 494 624 q 594 674 571 656 q 644 715 617 692 q 707 658 676 686 q 769 600 738 629 l 643 483 z "},"":{"ha":1294,"x_min":31,"x_max":1196,"o":"m 1043 510 q 1035 570 1043 542 q 985 638 1028 599 q 896 702 954 665 q 763 767 838 739 l 669 710 l 669 150 q 719 147 688 149 q 797 135 751 144 q 904 107 843 125 q 1043 56 965 89 l 1043 293 l 1043 510 m 669 710 l 669 744 l 669 710 m 632 722 l 632 688 l 632 722 m 1196 133 l 964 -51 q 879 -25 917 -36 q 808 -6 842 -14 q 742 6 775 1 q 669 14 708 11 l 669 -196 l 388 -196 l 388 25 q 323 22 363 25 q 237 10 283 19 q 142 -18 190 1 q 50 -72 94 -37 l 31 -51 q 150 47 96 10 q 249 106 204 85 q 328 136 293 126 q 388 150 364 146 q 302 297 369 236 q 111 388 235 358 l 111 421 l 388 579 l 388 1001 l 669 1001 l 669 744 l 881 868 q 1063 747 999 803 q 1157 644 1128 692 q 1191 558 1186 597 q 1196 489 1196 519 l 1196 133 m 632 722 l 632 972 l 547 972 l 547 671 l 632 722 m 632 -165 l 632 688 l 547 635 l 547 -165 l 632 -165 m 388 343 l 388 540 l 225 442 q 277 420 254 431 q 319 399 300 410 q 353 374 338 388 q 388 343 369 360 z "},"":{"ha":636,"x_min":26,"x_max":569,"o":"m 26 158 q 80 170 63 168 q 118 175 97 172 l 118 754 q 117 812 118 788 q 108 856 115 836 q 86 895 101 876 q 44 935 71 914 l 56 949 q 115 922 89 939 q 167 876 140 904 q 226 930 199 911 q 275 958 253 949 q 317 970 297 968 q 354 972 336 972 l 354 954 q 320 934 338 946 q 289 902 303 922 q 266 849 275 882 q 257 764 257 815 l 257 560 l 429 721 q 510 656 482 683 q 552 603 539 628 q 567 553 565 579 q 569 493 569 528 l 569 142 q 447 65 493 104 q 372 -4 401 26 q 327 24 350 11 q 257 57 304 38 l 257 6 q 258 -44 257 -19 q 267 -91 260 -68 q 290 -135 274 -114 q 333 -174 306 -156 l 325 -192 q 219 -144 251 -169 q 168 -92 188 -118 q 126 -128 149 -114 q 75 -153 104 -142 l 67 -136 q 95 -106 85 -124 q 110 -67 106 -87 q 117 -25 115 -46 q 118 14 118 -4 l 118 94 q 80 101 97 99 q 26 104 63 103 l 26 158 m 257 526 l 257 175 q 263 174 258 175 q 271 172 268 174 q 323 163 301 167 q 362 153 344 158 q 395 142 379 149 q 431 125 411 135 l 431 494 q 429 526 431 514 q 419 550 428 539 q 396 574 413 561 q 347 608 379 588 l 257 526 z "},"":{"ha":940,"x_min":57,"x_max":889,"o":"m 110 517 l 289 517 q 272 572 279 542 q 264 650 264 601 q 272 724 264 699 q 289 771 279 750 l 625 939 l 871 785 l 772 667 l 493 839 q 475 813 486 829 q 454 776 464 797 q 438 726 444 754 q 431 661 431 697 q 435 602 431 629 q 456 532 440 575 q 459 524 457 531 q 461 517 461 518 l 736 517 l 694 397 l 485 397 q 476 306 488 365 q 417 175 465 247 q 497 192 454 185 q 593 200 539 200 q 744 184 669 200 q 889 140 818 168 l 814 0 q 624 52 725 29 q 426 75 524 75 q 322 67 374 75 q 223 49 269 60 q 136 24 176 38 q 68 0 96 11 l 57 18 q 102 44 71 26 q 175 81 133 61 q 267 123 217 101 q 372 161 318 144 q 373 177 372 165 q 374 199 374 189 q 362 283 374 228 q 325 397 350 339 l 68 397 l 110 517 z "},"":{"ha":956,"x_min":131,"x_max":825,"o":"m 742 803 l 825 719 l 736 631 q 772 564 754 604 q 790 454 790 524 q 771 344 790 386 q 736 279 751 301 l 825 192 l 742 110 l 654 196 q 628 181 644 190 q 590 163 613 172 q 539 148 568 154 q 475 142 510 142 q 415 147 442 142 q 367 161 388 153 q 330 179 346 169 q 301 196 314 189 l 214 110 l 131 192 l 218 279 q 183 344 203 303 q 164 456 164 386 q 184 566 164 524 q 218 631 204 608 l 131 719 l 213 803 l 301 714 q 367 749 324 729 q 478 768 410 768 q 588 749 546 768 q 654 714 631 729 l 742 803 m 478 650 q 402 635 438 650 q 340 593 367 619 q 297 531 313 567 q 282 456 282 496 q 297 379 282 415 q 339 317 313 343 q 401 275 365 290 q 478 260 438 260 q 554 275 518 260 q 617 317 590 290 q 658 379 643 343 q 674 456 674 415 q 658 531 674 496 q 616 593 643 567 q 553 635 589 619 q 478 650 518 650 z "},"":{"ha":1013,"x_min":33,"x_max":976,"o":"m 928 717 l 747 789 l 603 444 l 603 394 l 826 394 l 792 292 l 603 292 l 603 149 q 633 154 617 151 q 682 157 650 157 q 719 154 706 157 q 747 149 732 151 l 697 35 l 683 36 q 647 42 665 39 q 610 46 628 46 q 558 43 590 46 q 486 35 525 40 q 406 20 447 29 q 328 0 365 11 l 318 29 q 355 49 335 39 q 394 69 375 60 q 428 86 414 79 q 450 96 443 93 q 458 100 451 97 q 465 103 464 103 l 465 292 l 243 292 l 278 394 l 465 394 l 465 444 l 297 726 q 274 765 286 746 q 248 800 263 785 q 214 824 233 815 q 169 833 194 833 q 99 808 125 833 q 53 756 74 783 l 33 776 q 87 869 56 836 q 148 917 118 903 q 201 935 178 932 q 229 938 224 938 q 332 903 290 938 q 413 801 374 868 l 592 497 l 772 933 q 820 901 790 921 q 876 868 850 882 l 976 817 l 928 717 z "},"":{"ha":782,"x_min":342,"x_max":440,"o":"m 440 353 l 440 -140 l 342 -140 l 342 353 l 440 353 m 440 1014 l 440 521 l 342 521 l 342 1014 l 440 1014 z "},"":{"ha":1056,"x_min":46,"x_max":1008,"o":"m 754 571 l 728 571 q 697 648 718 619 q 649 692 675 676 q 599 712 624 707 q 561 717 575 717 q 470 690 504 717 q 417 626 436 664 q 392 545 399 588 q 386 469 386 503 q 392 370 386 419 q 431 281 399 321 q 486 235 453 253 q 558 217 519 217 q 625 228 596 217 q 676 253 654 239 q 713 284 699 268 q 735 310 726 300 l 735 263 q 637 197 693 218 q 519 176 581 176 q 414 193 465 176 q 322 244 363 210 q 258 331 282 279 q 233 453 233 383 q 258 576 233 521 q 322 670 282 632 q 417 729 363 708 q 532 750 471 750 q 601 743 571 750 q 665 722 631 736 q 685 717 679 718 q 697 715 690 715 q 722 728 717 715 q 728 749 726 742 l 754 749 l 754 571 m 526 940 q 713 903 625 940 q 866 801 800 865 q 970 648 932 736 q 1008 460 1008 560 q 971 272 1008 360 q 867 119 933 185 q 714 15 801 53 q 526 -22 626 -22 q 339 15 426 -22 q 186 119 251 53 q 83 272 121 185 q 46 460 46 360 q 84 648 46 560 q 188 801 122 736 q 340 903 253 865 q 526 940 428 940 m 526 879 q 364 847 440 879 q 231 757 288 814 q 140 624 174 700 q 107 460 107 547 q 140 296 107 372 q 229 163 172 219 q 363 72 286 106 q 526 39 439 39 q 690 72 614 39 q 824 163 767 106 q 914 296 881 219 q 947 460 947 372 q 914 624 947 547 q 823 757 881 700 q 689 847 765 814 q 526 879 613 879 z "},"":{"ha":419,"x_min":28,"x_max":399,"o":"m 399 665 l 289 593 q 259 619 275 603 q 239 679 243 636 l 101 593 q 52 640 76 613 q 28 704 28 668 q 37 751 28 729 q 59 793 46 774 q 88 828 72 813 q 119 857 104 844 l 72 968 l 89 993 q 113 986 103 989 q 138 983 124 983 q 174 991 160 983 q 211 1013 189 999 l 226 1007 q 249 998 231 1004 q 272 989 267 992 q 277 988 274 989 q 286 985 281 986 q 297 981 292 981 q 306 977 300 979 q 317 975 311 975 q 338 985 328 975 q 354 1001 347 994 l 372 988 q 367 978 368 981 q 364 974 367 976 q 357 960 363 971 q 349 946 351 949 q 342 930 346 940 q 336 908 338 919 q 331 867 332 876 q 331 851 331 858 l 331 758 q 331 737 331 751 q 334 708 332 722 q 342 682 336 693 q 357 671 347 671 q 363 672 360 671 q 375 681 365 674 q 381 684 378 682 q 386 686 385 686 l 399 665 m 239 708 l 239 800 l 142 847 q 124 802 129 819 q 118 765 118 785 q 135 699 118 724 q 164 661 153 674 l 239 708 m 239 826 l 239 918 l 101 963 l 140 874 l 239 826 z "},"":{"ha":492,"x_min":54,"x_max":417,"o":"m 236 447 l 174 372 l 238 297 l 238 156 l 54 374 q 78 403 67 389 q 104 432 90 417 q 117 447 111 440 q 129 463 122 454 q 166 505 149 485 q 199 544 183 525 q 208 554 203 549 q 217 564 213 560 q 226 574 222 569 q 236 586 229 579 l 236 447 m 415 450 l 351 371 l 417 297 l 417 157 l 235 372 q 263 406 250 390 q 290 439 276 422 q 312 464 301 451 q 333 489 322 476 q 374 537 353 513 q 415 585 394 561 l 415 450 z "},"":{"ha":1056,"x_min":46,"x_max":1008,"o":"m 515 739 q 591 736 561 739 q 641 728 621 733 q 673 717 661 724 q 694 704 685 711 q 713 689 703 699 q 733 665 724 679 q 749 633 742 651 q 756 590 756 614 q 753 565 756 583 q 740 526 751 547 q 705 483 729 504 q 635 450 681 463 l 728 281 q 760 233 744 250 q 799 213 776 217 l 799 190 l 635 190 l 496 440 l 464 440 l 464 306 q 467 260 464 278 q 478 233 469 243 q 502 218 486 222 q 546 213 518 214 l 546 190 l 258 190 l 258 213 q 288 215 275 213 q 310 226 301 217 q 324 253 319 235 q 329 306 329 272 l 329 625 q 327 669 329 651 q 319 695 325 686 q 301 708 313 704 q 269 715 289 713 l 269 739 l 515 739 m 464 474 q 481 472 469 474 q 503 471 492 471 q 538 477 519 471 q 573 498 557 483 q 599 536 589 513 q 610 593 610 560 q 594 660 610 636 q 560 694 579 683 q 520 706 540 704 q 490 708 500 708 l 464 708 l 464 474 m 526 940 q 713 903 625 940 q 866 801 800 865 q 970 648 932 736 q 1008 460 1008 560 q 971 272 1008 360 q 867 119 933 185 q 714 15 801 53 q 526 -22 626 -22 q 339 15 426 -22 q 186 119 251 53 q 83 272 121 185 q 46 460 46 360 q 84 648 46 560 q 188 801 122 736 q 340 903 253 865 q 526 940 428 940 m 526 879 q 364 847 440 879 q 231 757 288 814 q 140 624 174 700 q 107 460 107 547 q 140 296 107 372 q 229 163 172 219 q 363 72 286 106 q 526 39 439 39 q 690 72 614 39 q 824 163 767 106 q 914 296 881 219 q 947 460 947 372 q 914 624 947 547 q 823 757 881 700 q 689 847 765 814 q 526 879 613 879 z "},"":{"ha":463,"x_min":25,"x_max":438,"o":"m 25 844 l 25 936 l 438 936 l 438 844 l 25 844 z "},"":{"ha":550,"x_min":40,"x_max":510,"o":"m 275 939 q 366 921 324 939 q 440 871 408 903 q 491 796 472 839 q 510 704 510 753 q 491 613 510 656 q 440 539 472 571 q 366 488 408 507 q 275 469 324 469 q 184 488 226 469 q 110 539 142 507 q 59 613 78 571 q 40 704 40 656 q 59 796 40 753 q 110 871 78 839 q 184 921 142 903 q 275 939 226 939 m 275 850 q 219 839 246 850 q 172 808 192 828 q 141 761 153 788 q 129 704 129 735 q 140 647 129 674 q 172 601 151 621 q 218 571 192 582 q 275 560 244 560 q 332 571 306 560 q 378 602 358 582 q 409 649 397 622 q 421 704 421 675 q 409 761 421 735 q 378 808 397 788 q 332 839 358 828 q 275 850 306 850 z "},"":{"ha":926,"x_min":89,"x_max":838,"o":"m 400 638 l 400 949 l 526 949 l 526 638 l 838 638 l 838 511 l 526 511 l 526 200 l 400 200 l 400 511 l 89 511 l 89 638 l 400 638 m 838 126 l 838 0 l 89 0 l 89 126 l 838 126 z "},"":{"ha":463,"x_min":26,"x_max":428,"o":"m 26 443 q 38 483 31 464 q 63 523 46 501 q 109 569 81 544 q 183 626 138 594 q 222 655 201 639 q 260 692 243 671 q 290 742 278 714 q 301 808 301 771 q 292 846 301 832 q 274 869 283 860 l 107 765 l 26 836 l 185 939 l 422 842 q 426 821 424 832 q 428 797 428 810 q 405 714 428 749 q 350 655 382 679 q 283 615 318 631 q 222 589 247 599 q 158 558 182 574 q 107 507 133 542 l 110 504 q 155 522 131 514 q 204 535 179 529 q 253 544 229 540 q 297 547 278 547 q 342 544 304 547 q 428 525 381 542 l 350 431 q 274 451 307 443 q 197 458 240 458 q 114 449 144 458 q 64 431 83 440 l 26 443 z "},"":{"ha":463,"x_min":-6,"x_max":417,"o":"m -6 529 l 79 608 l 249 478 q 273 508 261 489 q 285 567 285 526 q 269 635 285 611 q 231 671 253 660 q 184 684 208 682 q 144 686 160 686 l 119 686 l 119 721 q 163 724 138 721 q 212 737 189 726 q 251 769 235 747 q 267 831 267 790 q 266 843 267 835 q 262 860 265 851 q 252 874 258 868 q 235 881 246 881 q 217 877 224 881 q 199 865 211 874 l 100 796 l 28 874 l 119 936 l 401 860 q 391 816 397 839 q 372 772 385 793 q 340 735 360 751 q 289 708 319 718 l 289 706 q 320 698 299 704 q 363 678 342 692 q 401 644 385 665 q 417 592 417 622 q 382 506 417 538 q 299 459 347 475 q 200 438 251 443 q 115 432 149 433 l -6 529 z "},"":{"ha":463,"x_min":258,"x_max":478,"o":"m 258 803 l 319 1056 l 478 1056 l 296 803 l 258 803 z "},"":{"ha":694,"x_min":47,"x_max":679,"o":"m 229 667 l 229 260 q 231 194 229 235 q 239 121 232 153 q 262 77 246 90 q 307 64 278 64 q 352 74 336 64 q 382 100 368 83 q 406 144 400 121 q 411 206 411 168 l 411 667 l 550 667 l 550 178 q 556 88 550 122 q 596 54 561 54 q 622 65 613 54 q 638 89 632 75 q 647 117 644 103 q 651 138 650 131 l 679 138 q 638 26 674 72 q 533 -19 603 -19 q 474 -8 497 -19 q 438 22 451 4 q 419 60 425 40 q 413 96 414 81 l 410 96 q 396 63 406 82 q 368 25 386 43 q 322 -6 350 7 q 256 -19 294 -19 q 186 0 207 -19 q 151 39 165 19 l 149 39 q 149 -1 149 17 q 152 -40 150 -19 q 159 -87 154 -61 q 172 -154 164 -114 q 178 -185 175 -165 q 182 -226 182 -206 q 178 -249 182 -236 q 165 -273 174 -261 q 142 -292 156 -285 q 113 -300 129 -300 q 81 -291 93 -300 q 60 -270 68 -282 q 50 -246 53 -258 q 47 -226 47 -233 q 48 -205 47 -214 q 52 -180 49 -196 q 61 -139 56 -164 q 78 -71 67 -114 q 87 6 83 -47 q 90 129 90 58 l 90 667 l 229 667 z "},"":{"ha":665,"x_min":79,"x_max":622,"o":"m 524 763 l 622 763 l 622 726 l 522 726 l 522 36 l 622 36 l 622 0 l 522 0 q 520 -81 521 -49 q 515 -132 519 -112 q 482 -201 507 -172 q 417 -262 457 -231 l 397 -237 q 428 -201 410 -224 q 458 -144 447 -179 q 469 -74 468 -114 q 469 -1 469 -33 q 435 1 451 1 q 400 1 418 0 q 320 8 360 3 q 244 30 281 14 q 176 76 208 46 q 122 156 144 106 q 94 242 108 183 q 79 376 79 301 q 80 408 79 385 q 85 465 81 432 q 98 535 89 497 q 124 607 107 572 q 135 628 128 615 q 157 660 142 640 q 172 677 163 665 q 197 700 182 689 q 216 712 206 707 q 235 721 226 717 q 281 742 257 733 q 357 757 314 753 q 471 764 400 761 l 471 906 l 532 949 q 526 884 529 917 q 524 819 524 851 l 524 763 m 469 725 q 422 720 442 726 q 390 704 403 714 q 365 675 372 692 q 357 656 358 658 q 348 615 353 642 q 340 552 343 588 q 333 475 336 517 q 331 390 331 433 q 331 346 331 368 q 333 300 332 324 q 338 223 335 260 q 347 154 340 186 q 362 99 353 122 q 386 63 371 75 q 412 49 397 53 q 439 42 426 44 q 469 39 454 39 l 469 725 z "},"":{"ha":492,"x_min":51,"x_max":439,"o":"m 246 653 q 320 638 285 653 q 382 597 356 622 q 424 535 408 571 q 439 458 439 500 q 424 383 439 418 q 383 322 408 347 q 322 281 357 296 q 246 265 286 265 q 170 281 206 265 q 108 322 135 296 q 67 383 82 347 q 51 458 51 418 q 67 535 51 500 q 109 597 82 571 q 171 638 136 622 q 246 653 206 653 z "},"":{"ha":204,"x_min":18,"x_max":188,"o":"m 160 701 q 135 675 160 675 q 129 676 132 675 q 125 676 126 676 l 75 726 l 19 832 q 19 847 19 832 q 18 869 18 863 l 18 889 q 23 930 18 907 q 38 973 28 953 q 65 1007 49 993 q 103 1021 81 1021 q 122 1010 111 1021 q 144 985 133 1000 q 167 953 156 971 q 188 924 178 936 q 176 908 188 917 q 151 886 164 899 q 126 856 138 874 q 114 815 114 839 q 128 755 114 781 q 160 701 143 729 z "},"":{"ha":206,"x_min":15,"x_max":185,"o":"m 43 701 q 74 755 60 729 q 89 815 89 781 q 77 856 89 839 q 52 886 65 874 q 27 908 39 899 q 15 924 15 917 q 36 953 25 936 q 58 985 47 971 q 81 1010 69 1000 q 100 1021 92 1021 q 138 1007 122 1021 q 165 973 154 993 q 180 930 175 953 q 185 889 185 907 l 185 869 q 184 847 185 863 q 183 832 183 832 l 128 726 l 78 676 q 74 676 76 676 q 68 675 71 675 q 43 701 43 675 z "},"":{"ha":301,"x_min":18,"x_max":282,"o":"m 282 774 q 269 757 282 763 q 247 751 257 751 q 223 784 240 751 q 188 858 206 817 q 156 937 169 899 q 142 988 142 975 q 151 1006 142 1001 q 172 1010 161 1010 q 192 994 181 1010 q 216 953 204 978 q 240 900 228 929 q 261 844 251 871 q 276 799 271 818 q 282 774 282 779 m 154 772 q 149 759 154 761 q 135 757 143 757 l 129 757 q 95 786 113 757 q 63 853 78 815 q 36 926 47 890 q 19 975 25 963 q 19 980 19 976 q 18 986 18 983 q 30 1008 18 1001 q 56 1014 42 1014 q 77 979 61 1014 q 110 901 93 944 q 141 819 128 858 q 154 772 154 781 z "},"":{"ha":303,"x_min":19,"x_max":283,"o":"m 19 774 q 25 799 19 779 q 40 844 31 818 q 62 900 50 871 q 85 953 74 929 q 109 994 97 978 q 129 1010 121 1010 q 150 1006 140 1010 q 160 988 160 1001 q 146 937 160 975 q 114 858 132 899 q 78 784 96 817 q 54 751 61 751 q 32 757 44 751 q 19 774 19 763 m 147 772 q 160 819 147 781 q 191 901 174 858 q 224 979 208 944 q 246 1014 240 1014 q 272 1008 260 1014 q 283 986 283 1001 q 283 980 283 983 q 282 975 282 976 q 265 926 276 963 q 239 853 254 890 q 206 786 224 815 q 172 757 189 757 l 167 757 q 153 759 158 757 q 147 772 147 761 z "},"":{"ha":457,"x_min":83,"x_max":396,"o":"m 396 433 q 358 401 379 421 q 316 358 338 381 q 274 313 294 335 q 238 279 253 292 q 204 315 225 294 q 162 358 183 336 q 119 399 140 379 q 83 433 97 419 q 119 468 97 447 q 163 511 140 489 q 205 554 185 533 q 239 590 225 575 q 272 553 251 575 q 315 510 293 532 q 359 467 338 488 q 396 433 381 447 z "},"":{"ha":463,"x_min":106,"x_max":383,"o":"m 203 -17 q 233 -6 215 -11 q 272 0 251 0 q 353 -31 324 0 q 383 -103 383 -62 q 380 -131 383 -111 q 358 -173 376 -151 q 304 -210 340 -194 q 204 -226 268 -226 q 170 -225 199 -226 q 106 -217 142 -224 l 117 -194 q 156 -198 143 -197 q 175 -199 168 -199 q 203 -195 186 -199 q 235 -183 219 -192 q 263 -162 251 -175 q 274 -129 274 -149 q 265 -101 274 -112 q 244 -81 257 -89 q 215 -70 231 -74 q 186 -67 200 -67 q 171 -67 178 -67 q 154 -69 164 -68 l 203 -17 z "},"":{"ha":463,"x_min":101,"x_max":368,"o":"m 253 435 l 150 494 l 174 522 l 174 788 q 172 841 174 821 q 156 861 169 861 q 140 855 149 861 q 118 839 131 849 l 101 865 l 213 939 q 258 915 242 929 q 282 883 275 901 q 290 841 289 864 q 292 793 292 818 l 292 576 q 293 541 292 549 q 306 522 294 533 q 310 517 308 519 q 314 515 313 515 l 350 540 l 368 515 l 253 435 z "},"":{"ha":390,"x_min":38,"x_max":351,"o":"m 351 658 q 312 646 328 651 q 281 633 296 640 q 250 617 265 626 q 214 596 235 608 q 158 619 181 610 q 119 633 136 628 q 85 639 101 638 q 49 640 69 640 l 38 658 q 58 690 50 672 q 65 756 65 707 l 65 953 q 108 963 90 958 q 139 973 125 967 q 167 989 153 979 q 203 1014 182 999 q 240 993 224 1001 q 273 980 257 985 q 308 972 289 975 q 351 967 326 968 l 351 658 m 261 672 l 261 899 q 210 919 235 913 q 157 931 185 926 l 157 710 l 261 672 z "},"":{"ha":492,"x_min":75,"x_max":439,"o":"m 258 376 l 76 163 l 76 299 l 142 376 l 75 453 l 75 593 l 258 376 m 439 375 l 256 161 l 256 303 l 318 375 l 254 453 l 254 594 l 439 375 z "},"":{"ha":868,"x_min":72,"x_max":796,"o":"m 796 396 l 796 331 l 72 331 l 72 396 l 796 396 z "},"":{"ha":926,"x_min":1,"x_max":924,"o":"m 1 383 l 1 425 l 924 425 l 924 383 l 1 383 z "},"":{"ha":463,"x_min":32,"x_max":469,"o":"m 32 844 q 39 884 33 857 q 59 940 44 911 q 99 989 74 968 q 168 1010 125 1010 q 192 1008 181 1010 q 217 1001 203 1006 q 250 988 231 996 q 300 965 269 979 q 331 955 307 963 q 375 947 356 947 q 405 954 393 947 q 424 971 417 961 q 437 991 432 981 q 444 1010 442 1001 l 469 1010 q 428 892 463 940 q 326 844 394 844 q 290 849 314 844 q 221 875 265 854 q 170 897 193 888 q 125 906 147 906 q 97 899 108 906 q 78 882 86 892 q 67 862 71 872 q 60 844 63 851 l 32 844 z "},"":{"ha":1360,"x_min":-50,"x_max":1347,"o":"m 476 1014 l 476 861 l 453 861 q 435 929 450 906 q 399 964 419 953 q 356 977 378 975 q 321 979 335 979 l 296 979 l 296 581 q 297 542 296 558 q 305 513 299 525 q 325 496 311 501 q 365 490 339 490 l 365 467 l 57 467 l 57 490 q 94 494 81 492 q 115 506 108 497 q 124 532 122 514 q 126 583 126 550 l 126 979 l 104 979 q 34 967 60 979 q -5 938 8 956 q -23 900 -18 921 q -29 861 -28 879 l -50 861 l -50 1014 l 476 1014 m 800 1014 l 957 679 l 1113 1014 l 1347 1014 l 1347 989 q 1308 984 1322 989 q 1288 968 1294 979 q 1281 940 1282 957 q 1279 899 1279 924 l 1279 578 q 1281 542 1279 557 q 1288 515 1282 526 q 1308 498 1294 504 q 1347 490 1322 492 l 1347 467 l 1035 467 l 1035 490 q 1074 493 1058 490 q 1097 505 1089 496 q 1109 531 1106 514 q 1113 578 1113 549 l 1113 921 l 1110 921 l 896 467 l 879 467 l 667 921 l 664 921 l 664 581 q 665 540 664 557 q 674 512 667 522 q 697 496 681 501 q 742 490 713 490 l 742 467 l 551 467 l 551 490 q 591 495 576 492 q 613 508 606 499 q 623 535 621 518 q 625 582 625 553 l 625 900 q 624 941 625 924 q 615 969 622 958 q 592 985 607 981 q 551 989 578 990 l 551 1014 l 800 1014 z "},"":{"ha":513,"x_min":38,"x_max":499,"o":"m 42 131 q 42 134 42 131 q 43 139 43 138 l 99 194 q 109 205 101 197 q 124 221 117 213 q 138 238 132 229 q 143 253 143 246 q 126 287 143 275 q 90 309 110 299 q 54 333 71 319 q 38 371 38 346 l 38 628 q 52 658 42 649 q 76 672 63 668 q 106 676 90 675 q 138 683 122 678 q 172 702 151 689 q 216 730 193 715 q 259 756 239 744 q 290 767 279 767 q 303 765 296 767 q 315 761 310 764 l 314 763 q 338 744 314 763 q 390 704 361 726 q 442 661 418 682 q 465 633 465 640 q 451 603 465 621 q 422 567 438 585 q 392 534 406 549 q 381 514 379 519 q 394 488 381 499 q 426 465 408 476 q 458 440 443 453 q 472 411 472 428 l 472 351 q 472 332 472 342 q 469 317 472 324 l 469 122 l 458 111 q 400 101 431 108 q 343 83 369 94 q 303 60 325 75 q 260 33 281 46 q 222 9 239 19 q 199 -1 206 -1 q 172 17 197 -1 q 118 58 147 35 q 65 102 89 81 q 42 131 42 124 m 176 217 q 201 191 185 207 q 235 159 217 175 q 272 132 253 143 q 303 121 290 121 q 321 130 315 121 q 328 152 326 139 q 331 181 331 165 q 332 211 331 197 l 332 222 q 324 326 328 290 q 288 363 319 363 q 268 347 286 363 q 229 308 250 331 q 192 263 208 286 q 175 222 175 239 q 176 219 175 221 q 176 217 176 217 m 192 633 q 182 628 182 633 l 182 444 q 190 428 182 438 q 208 409 197 418 q 228 394 218 400 q 246 388 239 388 q 272 405 256 388 q 302 445 288 422 q 328 490 317 468 q 339 519 339 511 q 321 551 339 532 q 279 588 303 569 q 232 620 256 607 q 199 633 208 633 l 192 633 m 499 1057 l 371 803 l 225 803 l 100 1057 l 140 1057 l 299 911 l 458 1057 l 499 1057 z "},"":{"ha":788,"x_min":19,"x_max":799,"o":"m 147 -121 q 158 -108 147 -114 q 185 -99 169 -103 q 217 -91 201 -94 q 243 -85 233 -87 q 271 -74 251 -83 q 310 -51 290 -64 q 344 -24 329 -39 q 360 1 360 -10 q 342 25 360 14 q 296 47 324 36 q 237 69 268 58 q 178 89 206 79 q 132 108 150 99 q 114 125 114 117 l 132 371 q 120 475 125 422 q 109 581 115 528 q 93 685 103 633 q 65 788 83 738 q 55 809 63 796 q 40 836 47 822 q 26 862 32 850 q 19 879 19 874 q 33 892 19 879 q 64 922 46 906 q 101 955 82 939 q 132 976 121 971 l 165 999 q 180 982 175 999 q 188 945 185 965 q 197 908 192 925 q 210 892 201 892 q 241 908 226 892 q 271 945 256 925 q 301 982 286 965 q 335 999 317 999 l 343 999 q 423 983 388 990 q 496 970 458 975 q 578 962 533 965 q 685 958 622 958 q 749 958 718 958 q 793 960 781 958 q 799 949 799 957 l 799 943 q 795 938 797 942 q 793 932 793 933 q 749 805 768 867 q 714 681 731 743 q 682 553 697 618 q 647 421 667 489 q 619 310 635 375 q 584 176 604 246 q 536 38 564 106 q 470 -85 508 -31 q 381 -174 432 -140 q 264 -207 331 -207 q 236 -194 256 -207 q 197 -165 217 -181 q 163 -135 178 -149 q 147 -121 147 -121 m 260 215 q 281 191 260 206 q 329 163 301 176 q 383 140 357 150 q 419 131 410 131 l 424 131 q 446 161 435 131 q 467 232 457 192 q 487 312 478 272 q 504 371 496 351 q 547 580 524 479 q 593 788 571 681 l 593 801 q 586 821 593 818 q 560 826 579 824 q 471 834 515 829 q 387 843 426 839 q 315 851 347 847 q 260 854 282 854 l 221 854 q 215 849 217 853 q 214 840 214 844 l 214 835 l 215 821 q 261 303 261 567 q 261 258 261 281 q 260 215 261 238 m 515 1076 q 528 1099 515 1083 q 559 1131 542 1115 q 594 1159 576 1147 q 622 1171 613 1171 q 652 1158 638 1171 q 667 1129 667 1144 l 667 1121 q 643 1095 657 1110 q 613 1067 629 1081 q 556 1060 597 1054 q 515 1076 515 1065 m 365 1088 q 383 1113 365 1099 q 423 1140 401 1128 q 461 1162 444 1153 q 475 1171 478 1171 q 503 1162 489 1171 q 517 1138 517 1153 q 506 1117 517 1129 q 481 1092 496 1106 q 449 1067 467 1079 q 417 1043 431 1054 q 412 1042 415 1043 q 408 1042 408 1042 q 379 1057 393 1042 q 365 1088 365 1072 z "},"":{"ha":789,"x_min":15,"x_max":758,"o":"m 154 -126 q 168 -99 154 -121 q 199 -55 182 -78 q 230 -14 215 -32 q 247 4 244 4 q 314 -11 276 4 q 393 -47 351 -26 q 479 -88 435 -68 q 567 -118 524 -108 q 585 -96 578 -118 q 592 -42 592 -74 l 592 135 q 569 122 588 135 q 531 95 551 110 q 494 67 511 81 q 472 54 476 54 l 157 161 l 157 821 l 151 838 l 146 843 l 28 843 q 17 845 19 843 q 15 853 15 847 q 22 889 15 865 q 40 935 29 913 q 65 974 51 957 q 90 990 78 990 q 96 989 94 990 l 289 989 l 300 978 q 299 965 299 975 q 299 947 299 957 l 299 939 q 301 903 299 910 q 317 896 303 896 q 340 908 326 896 q 369 936 354 919 q 397 969 383 953 q 422 996 411 986 l 628 988 l 739 994 q 758 983 750 994 l 758 922 l 754 876 q 741 710 747 793 q 735 544 735 628 q 739 425 735 485 l 739 -67 q 725 -101 739 -87 q 692 -125 711 -115 q 654 -142 674 -135 q 622 -157 635 -150 q 592 -185 606 -167 q 565 -220 578 -203 q 538 -251 551 -237 q 507 -264 524 -264 q 472 -253 485 -264 q 439 -235 458 -243 q 368 -208 415 -225 q 273 -175 321 -192 q 190 -144 225 -158 q 154 -126 154 -131 m 311 839 q 304 830 308 836 q 300 821 300 824 l 300 276 q 319 263 300 272 q 368 244 339 254 q 431 222 397 233 q 496 202 465 211 q 547 187 526 193 q 572 181 568 181 l 575 181 q 586 182 579 181 q 594 190 593 183 l 594 843 l 367 843 q 337 842 351 843 q 311 839 322 842 m 433 1042 l 494 1294 l 653 1294 l 471 1042 l 433 1042 z "},"":{"ha":944,"x_min":25,"x_max":919,"o":"m 46 14 q 47 17 46 14 q 47 22 47 21 l 92 111 q 105 128 97 124 q 121 135 113 133 q 138 140 129 138 q 158 150 147 143 q 230 233 200 178 q 284 356 260 288 q 330 502 308 425 q 375 650 351 579 q 396 690 375 674 q 442 719 417 706 q 488 745 467 733 q 508 772 508 757 q 490 785 508 778 q 442 800 471 792 q 378 816 414 808 q 310 830 343 824 q 251 840 278 836 q 211 844 224 844 q 189 841 199 844 q 179 825 179 838 q 192 797 179 808 q 219 774 204 785 q 246 753 233 764 q 258 725 258 742 l 258 722 q 202 678 235 704 q 147 628 169 653 l 136 628 q 120 644 138 628 q 82 683 103 661 q 43 724 61 704 q 25 750 25 744 l 25 767 q 59 795 40 779 q 94 826 78 811 q 123 851 111 840 q 136 867 135 863 l 197 1000 q 204 1001 197 1000 q 215 1001 211 1001 q 328 988 272 1001 q 440 958 385 975 q 551 928 494 942 q 664 915 607 915 q 713 928 688 915 q 760 958 738 942 q 803 987 783 974 q 836 1000 824 1000 q 847 986 847 1000 l 847 978 q 844 944 846 968 q 841 894 843 921 q 838 844 839 868 q 836 811 836 821 l 836 256 q 849 198 836 218 q 878 167 863 178 q 906 149 893 156 q 919 135 919 143 l 919 128 l 819 22 q 810 16 815 17 q 800 15 804 15 q 773 26 786 15 q 749 51 760 36 q 728 82 738 65 q 714 111 719 99 l 708 111 q 689 103 699 111 q 669 86 679 96 q 649 66 658 76 q 631 50 639 56 l 597 17 l 589 17 q 488 22 539 17 q 385 28 436 28 l 344 28 q 277 24 313 28 q 205 14 242 19 q 130 4 168 8 q 57 0 92 0 q 46 14 46 0 m 592 161 q 610 158 597 160 q 636 155 622 157 q 663 151 650 153 q 681 150 675 150 q 685 149 682 150 q 689 149 689 149 q 701 156 700 149 q 703 171 703 163 l 703 183 q 700 227 701 200 q 697 280 699 254 q 693 324 694 306 q 692 344 692 343 l 688 367 l 569 299 q 552 310 568 299 q 516 337 536 322 q 476 364 496 351 q 451 376 457 376 q 431 360 440 376 q 415 324 422 344 q 400 283 407 303 q 386 256 393 263 q 351 231 371 240 q 312 211 332 221 q 274 190 292 201 q 242 161 256 179 q 258 158 244 160 q 275 156 271 156 l 281 156 q 294 156 283 156 q 338 158 306 157 q 431 160 371 158 q 592 161 490 161 m 450 413 q 454 411 450 411 l 574 458 l 692 392 l 692 822 l 686 850 l 682 850 q 644 838 664 850 q 608 809 625 825 q 577 778 590 793 q 558 756 564 763 q 544 724 554 750 q 524 663 535 699 q 501 585 513 626 q 479 509 489 544 q 463 449 469 474 q 457 424 457 425 l 450 413 m 335 1293 l 493 1293 l 554 1040 l 517 1040 l 335 1293 z "},"":{"ha":944,"x_min":25,"x_max":919,"o":"m 46 14 q 47 17 46 14 q 47 22 47 21 l 92 111 q 105 128 97 124 q 121 135 113 133 q 138 140 129 138 q 158 150 147 143 q 230 233 200 178 q 284 356 260 288 q 330 502 308 425 q 375 650 351 579 q 396 690 375 674 q 442 719 417 706 q 488 745 467 733 q 508 772 508 757 q 490 785 508 778 q 442 800 471 792 q 378 816 414 808 q 310 830 343 824 q 251 840 278 836 q 211 844 224 844 q 189 841 199 844 q 179 825 179 838 q 192 797 179 808 q 219 774 204 785 q 246 753 233 764 q 258 725 258 742 l 258 722 q 202 678 235 704 q 147 628 169 653 l 136 628 q 120 644 138 628 q 82 683 103 661 q 43 724 61 704 q 25 750 25 744 l 25 767 q 59 795 40 779 q 94 826 78 811 q 123 851 111 840 q 136 867 135 863 l 197 1000 q 204 1001 197 1000 q 215 1001 211 1001 q 328 988 272 1001 q 440 958 385 975 q 551 928 494 942 q 664 915 607 915 q 713 928 688 915 q 760 958 738 942 q 803 987 783 974 q 836 1000 824 1000 q 847 986 847 1000 l 847 978 q 844 944 846 968 q 841 894 843 921 q 838 844 839 868 q 836 811 836 821 l 836 256 q 849 198 836 218 q 878 167 863 178 q 906 149 893 156 q 919 135 919 143 l 919 128 l 819 22 q 810 16 815 17 q 800 15 804 15 q 773 26 786 15 q 749 51 760 36 q 728 82 738 65 q 714 111 719 99 l 708 111 q 689 103 699 111 q 669 86 679 96 q 649 66 658 76 q 631 50 639 56 l 597 17 l 589 17 q 488 22 539 17 q 385 28 436 28 l 344 28 q 277 24 313 28 q 205 14 242 19 q 130 4 168 8 q 57 0 92 0 q 46 14 46 0 m 592 161 q 610 158 597 160 q 636 155 622 157 q 663 151 650 153 q 681 150 675 150 q 685 149 682 150 q 689 149 689 149 q 701 156 700 149 q 703 171 703 163 l 703 183 q 700 227 701 200 q 697 280 699 254 q 693 324 694 306 q 692 344 692 343 l 688 367 l 569 299 q 552 310 568 299 q 516 337 536 322 q 476 364 496 351 q 451 376 457 376 q 431 360 440 376 q 415 324 422 344 q 400 283 407 303 q 386 256 393 263 q 351 231 371 240 q 312 211 332 221 q 274 190 292 201 q 242 161 256 179 q 258 158 244 160 q 275 156 271 156 l 281 156 q 294 156 283 156 q 338 158 306 157 q 431 160 371 158 q 592 161 490 161 m 450 413 q 454 411 450 411 l 574 458 l 692 392 l 692 822 l 686 850 l 682 850 q 644 838 664 850 q 608 809 625 825 q 577 778 590 793 q 558 756 564 763 q 544 724 554 750 q 524 663 535 699 q 501 585 513 626 q 479 509 489 544 q 463 449 469 474 q 457 424 457 425 l 450 413 m 511 1040 l 572 1293 l 731 1293 l 549 1040 l 511 1040 z "},"":{"ha":944,"x_min":25,"x_max":919,"o":"m 46 14 q 47 17 46 14 q 47 22 47 21 l 92 111 q 105 128 97 124 q 121 135 113 133 q 138 140 129 138 q 158 150 147 143 q 230 233 200 178 q 284 356 260 288 q 330 502 308 425 q 375 650 351 579 q 396 690 375 674 q 442 719 417 706 q 488 745 467 733 q 508 772 508 757 q 490 785 508 778 q 442 800 471 792 q 378 816 414 808 q 310 830 343 824 q 251 840 278 836 q 211 844 224 844 q 189 841 199 844 q 179 825 179 838 q 192 797 179 808 q 219 774 204 785 q 246 753 233 764 q 258 725 258 742 l 258 722 q 202 678 235 704 q 147 628 169 653 l 136 628 q 120 644 138 628 q 82 683 103 661 q 43 724 61 704 q 25 750 25 744 l 25 767 q 59 795 40 779 q 94 826 78 811 q 123 851 111 840 q 136 867 135 863 l 197 1000 q 204 1001 197 1000 q 215 1001 211 1001 q 328 988 272 1001 q 440 958 385 975 q 551 928 494 942 q 664 915 607 915 q 713 928 688 915 q 760 958 738 942 q 803 987 783 974 q 836 1000 824 1000 q 847 986 847 1000 l 847 978 q 844 944 846 968 q 841 894 843 921 q 838 844 839 868 q 836 811 836 821 l 836 256 q 849 198 836 218 q 878 167 863 178 q 906 149 893 156 q 919 135 919 143 l 919 128 l 819 22 q 810 16 815 17 q 800 15 804 15 q 773 26 786 15 q 749 51 760 36 q 728 82 738 65 q 714 111 719 99 l 708 111 q 689 103 699 111 q 669 86 679 96 q 649 66 658 76 q 631 50 639 56 l 597 17 l 589 17 q 488 22 539 17 q 385 28 436 28 l 344 28 q 277 24 313 28 q 205 14 242 19 q 130 4 168 8 q 57 0 92 0 q 46 14 46 0 m 592 161 q 610 158 597 160 q 636 155 622 157 q 663 151 650 153 q 681 150 675 150 q 685 149 682 150 q 689 149 689 149 q 701 156 700 149 q 703 171 703 163 l 703 183 q 700 227 701 200 q 697 280 699 254 q 693 324 694 306 q 692 344 692 343 l 688 367 l 569 299 q 552 310 568 299 q 516 337 536 322 q 476 364 496 351 q 451 376 457 376 q 431 360 440 376 q 415 324 422 344 q 400 283 407 303 q 386 256 393 263 q 351 231 371 240 q 312 211 332 221 q 274 190 292 201 q 242 161 256 179 q 258 158 244 160 q 275 156 271 156 l 281 156 q 294 156 283 156 q 338 158 306 157 q 431 160 371 158 q 592 161 490 161 m 450 413 q 454 411 450 411 l 574 458 l 692 392 l 692 822 l 686 850 l 682 850 q 644 838 664 850 q 608 809 625 825 q 577 778 590 793 q 558 756 564 763 q 544 724 554 750 q 524 663 535 699 q 501 585 513 626 q 479 509 489 544 q 463 449 469 474 q 457 424 457 425 l 450 413 m 335 1039 l 463 1293 l 608 1293 l 733 1039 l 693 1039 l 535 1185 l 375 1039 l 335 1039 z "},"":{"ha":944,"x_min":25,"x_max":919,"o":"m 46 14 q 47 17 46 14 q 47 22 47 21 l 92 111 q 105 128 97 124 q 121 135 113 133 q 138 140 129 138 q 158 150 147 143 q 230 233 200 178 q 284 356 260 288 q 330 502 308 425 q 375 650 351 579 q 396 690 375 674 q 442 719 417 706 q 488 745 467 733 q 508 772 508 757 q 490 785 508 778 q 442 800 471 792 q 378 816 414 808 q 310 830 343 824 q 251 840 278 836 q 211 844 224 844 q 189 841 199 844 q 179 825 179 838 q 192 797 179 808 q 219 774 204 785 q 246 753 233 764 q 258 725 258 742 l 258 722 q 202 678 235 704 q 147 628 169 653 l 136 628 q 120 644 138 628 q 82 683 103 661 q 43 724 61 704 q 25 750 25 744 l 25 767 q 59 795 40 779 q 94 826 78 811 q 123 851 111 840 q 136 867 135 863 l 197 1000 q 204 1001 197 1000 q 215 1001 211 1001 q 328 988 272 1001 q 440 958 385 975 q 551 928 494 942 q 664 915 607 915 q 713 928 688 915 q 760 958 738 942 q 803 987 783 974 q 836 1000 824 1000 q 847 986 847 1000 l 847 978 q 844 944 846 968 q 841 894 843 921 q 838 844 839 868 q 836 811 836 821 l 836 256 q 849 198 836 218 q 878 167 863 178 q 906 149 893 156 q 919 135 919 143 l 919 128 l 819 22 q 810 16 815 17 q 800 15 804 15 q 773 26 786 15 q 749 51 760 36 q 728 82 738 65 q 714 111 719 99 l 708 111 q 689 103 699 111 q 669 86 679 96 q 649 66 658 76 q 631 50 639 56 l 597 17 l 589 17 q 488 22 539 17 q 385 28 436 28 l 344 28 q 277 24 313 28 q 205 14 242 19 q 130 4 168 8 q 57 0 92 0 q 46 14 46 0 m 592 161 q 610 158 597 160 q 636 155 622 157 q 663 151 650 153 q 681 150 675 150 q 685 149 682 150 q 689 149 689 149 q 701 156 700 149 q 703 171 703 163 l 703 183 q 700 227 701 200 q 697 280 699 254 q 693 324 694 306 q 692 344 692 343 l 688 367 l 569 299 q 552 310 568 299 q 516 337 536 322 q 476 364 496 351 q 451 376 457 376 q 431 360 440 376 q 415 324 422 344 q 400 283 407 303 q 386 256 393 263 q 351 231 371 240 q 312 211 332 221 q 274 190 292 201 q 242 161 256 179 q 258 158 244 160 q 275 156 271 156 l 281 156 q 294 156 283 156 q 338 158 306 157 q 431 160 371 158 q 592 161 490 161 m 450 413 q 454 411 450 411 l 574 458 l 692 392 l 692 822 l 686 850 l 682 850 q 644 838 664 850 q 608 809 625 825 q 577 778 590 793 q 558 756 564 763 q 544 724 554 750 q 524 663 535 699 q 501 585 513 626 q 479 509 489 544 q 463 449 469 474 q 457 424 457 425 l 450 413 m 363 1081 q 369 1120 364 1093 q 390 1176 375 1147 q 430 1225 404 1204 q 499 1246 456 1246 q 522 1244 511 1246 q 547 1237 533 1242 q 581 1224 561 1232 q 631 1201 600 1215 q 662 1191 638 1199 q 706 1183 686 1183 q 735 1190 724 1183 q 755 1207 747 1197 q 767 1227 763 1217 q 775 1246 772 1238 l 800 1246 q 759 1128 793 1176 q 657 1081 725 1081 q 620 1085 644 1081 q 551 1111 596 1090 q 501 1133 524 1124 q 456 1142 478 1142 q 428 1135 439 1142 q 409 1118 417 1128 q 397 1098 401 1108 q 390 1081 393 1088 l 363 1081 z "},"":{"ha":944,"x_min":25,"x_max":919,"o":"m 46 14 q 47 17 46 14 q 47 22 47 21 l 92 111 q 105 128 97 124 q 121 135 113 133 q 138 140 129 138 q 158 150 147 143 q 230 233 200 178 q 284 356 260 288 q 330 502 308 425 q 375 650 351 579 q 396 690 375 674 q 442 719 417 706 q 488 745 467 733 q 508 772 508 757 q 490 785 508 778 q 442 800 471 792 q 378 816 414 808 q 310 830 343 824 q 251 840 278 836 q 211 844 224 844 q 189 841 199 844 q 179 825 179 838 q 192 797 179 808 q 219 774 204 785 q 246 753 233 764 q 258 725 258 742 l 258 722 q 202 678 235 704 q 147 628 169 653 l 136 628 q 120 644 138 628 q 82 683 103 661 q 43 724 61 704 q 25 750 25 744 l 25 767 q 59 795 40 779 q 94 826 78 811 q 123 851 111 840 q 136 867 135 863 l 197 1000 q 204 1001 197 1000 q 215 1001 211 1001 q 328 988 272 1001 q 440 958 385 975 q 551 928 494 942 q 664 915 607 915 q 713 928 688 915 q 760 958 738 942 q 803 987 783 974 q 836 1000 824 1000 q 847 986 847 1000 l 847 978 q 844 944 846 968 q 841 894 843 921 q 838 844 839 868 q 836 811 836 821 l 836 256 q 849 198 836 218 q 878 167 863 178 q 906 149 893 156 q 919 135 919 143 l 919 128 l 819 22 q 810 16 815 17 q 800 15 804 15 q 773 26 786 15 q 749 51 760 36 q 728 82 738 65 q 714 111 719 99 l 708 111 q 689 103 699 111 q 669 86 679 96 q 649 66 658 76 q 631 50 639 56 l 597 17 l 589 17 q 488 22 539 17 q 385 28 436 28 l 344 28 q 277 24 313 28 q 205 14 242 19 q 130 4 168 8 q 57 0 92 0 q 46 14 46 0 m 592 161 q 610 158 597 160 q 636 155 622 157 q 663 151 650 153 q 681 150 675 150 q 685 149 682 150 q 689 149 689 149 q 701 156 700 149 q 703 171 703 163 l 703 183 q 700 227 701 200 q 697 280 699 254 q 693 324 694 306 q 692 344 692 343 l 688 367 l 569 299 q 552 310 568 299 q 516 337 536 322 q 476 364 496 351 q 451 376 457 376 q 431 360 440 376 q 415 324 422 344 q 400 283 407 303 q 386 256 393 263 q 351 231 371 240 q 312 211 332 221 q 274 190 292 201 q 242 161 256 179 q 258 158 244 160 q 275 156 271 156 l 281 156 q 294 156 283 156 q 338 158 306 157 q 431 160 371 158 q 592 161 490 161 m 450 413 q 454 411 450 411 l 574 458 l 692 392 l 692 822 l 686 850 l 682 850 q 644 838 664 850 q 608 809 625 825 q 577 778 590 793 q 558 756 564 763 q 544 724 554 750 q 524 663 535 699 q 501 585 513 626 q 479 509 489 544 q 463 449 469 474 q 457 424 457 425 l 450 413 m 615 1228 q 695 1196 661 1228 q 729 1115 729 1164 q 697 1035 729 1068 q 615 1001 664 1001 q 535 1035 568 1001 q 503 1115 503 1068 q 512 1160 503 1139 q 537 1196 521 1181 q 573 1219 553 1211 q 615 1228 593 1228 m 617 1189 q 564 1167 586 1189 q 542 1114 542 1146 q 563 1062 542 1083 q 617 1040 585 1040 q 669 1062 647 1040 q 690 1114 690 1083 q 669 1167 690 1146 q 617 1189 647 1189 z "},"":{"ha":1247,"x_min":25,"x_max":1232,"o":"m 703 183 q 702 225 703 201 q 699 274 701 249 q 694 324 697 300 q 688 367 692 349 l 569 299 q 545 317 563 304 q 509 342 528 329 q 474 366 490 356 q 451 376 457 376 q 431 360 440 376 q 415 324 422 344 q 401 283 408 303 q 386 256 394 264 q 351 231 371 240 q 313 211 332 221 q 274 190 293 201 q 242 161 256 179 q 261 157 251 158 q 281 156 271 156 q 435 158 358 156 q 592 161 513 161 q 640 155 615 161 q 689 149 665 149 q 703 161 703 149 q 703 183 703 174 m 692 392 l 692 822 q 690 836 692 825 q 686 850 688 847 l 682 850 q 649 840 667 850 q 613 815 631 829 q 581 784 596 800 q 558 756 567 768 q 547 726 556 750 q 526 667 538 701 q 503 594 515 633 q 482 520 492 556 q 465 458 472 485 q 457 424 458 432 l 450 413 l 454 411 l 574 458 l 692 392 m 1232 869 q 1224 838 1232 861 q 1203 789 1215 814 q 1179 744 1192 764 q 1158 725 1167 725 q 1097 742 1133 725 q 1017 781 1060 760 q 929 820 974 803 q 846 838 885 838 q 838 835 840 838 l 836 811 l 836 603 l 1175 603 l 1175 454 l 836 454 l 836 256 q 846 202 836 221 q 869 173 856 183 q 897 156 883 163 q 918 140 911 150 q 946 138 932 139 q 975 138 960 138 q 1055 147 1011 138 q 1131 171 1099 156 q 1160 189 1146 178 q 1193 200 1174 200 q 1188 179 1193 192 q 1175 154 1182 167 q 1160 130 1168 142 q 1147 110 1153 118 q 1095 43 1119 67 q 1042 9 1071 19 q 979 -3 1014 -1 q 896 -6 944 -6 q 864 -3 879 -6 q 832 0 849 -1 l 819 0 l 793 0 q 766 15 778 1 q 744 45 754 28 q 727 81 735 63 q 714 111 719 99 l 708 111 q 684 99 700 111 q 651 70 668 86 q 618 38 633 54 q 597 17 603 22 l 589 17 q 467 22 526 17 q 344 28 407 28 q 201 14 272 28 q 57 0 131 0 q 46 14 46 0 q 47 18 46 15 q 47 22 47 21 l 92 111 q 105 128 97 122 q 122 136 113 133 q 140 141 131 139 q 158 150 149 143 q 223 222 194 174 q 274 326 251 269 q 312 440 296 383 q 340 536 328 496 q 358 593 349 564 q 375 650 368 622 q 404 695 382 678 q 449 724 426 713 q 490 747 472 736 q 508 772 508 757 q 501 780 508 776 q 490 785 493 783 q 433 803 472 793 q 352 822 394 813 q 270 838 310 832 q 211 844 231 844 q 190 842 200 844 q 179 825 179 839 q 192 796 179 807 q 219 774 204 785 q 246 752 233 764 q 258 722 258 740 q 200 678 229 700 q 147 628 171 656 l 136 628 q 119 647 136 629 q 81 685 101 664 q 42 724 60 706 q 25 750 25 743 l 25 767 q 91 821 69 803 q 126 857 113 839 q 140 878 133 867 q 155 906 147 889 q 172 945 163 922 q 197 1000 182 968 q 206 1001 201 1000 q 215 1001 211 1001 q 329 988 274 1001 q 440 958 385 975 q 550 928 494 942 q 664 915 606 915 q 710 926 689 915 q 753 952 732 938 q 794 981 774 967 q 836 1000 814 994 l 853 1004 q 856 1008 854 1006 q 861 1010 858 1010 q 915 995 893 1010 q 964 971 936 981 l 1231 876 q 1231 873 1231 874 q 1232 869 1232 872 z "},"":{"ha":800,"x_min":40,"x_max":771,"o":"m 40 482 l 40 540 q 43 584 40 563 q 54 622 46 606 q 78 638 57 628 q 122 660 99 647 q 163 685 144 672 q 182 710 182 697 q 177 731 182 721 q 167 752 172 742 q 158 773 163 763 q 153 794 153 783 q 166 809 153 806 q 188 817 179 813 q 247 852 224 833 q 288 892 271 871 q 322 940 306 914 q 360 994 338 965 l 385 994 q 453 994 414 994 q 533 992 492 993 q 614 988 574 990 q 686 982 654 985 q 738 975 718 979 q 760 967 758 971 l 760 944 q 759 920 760 939 q 757 881 758 901 q 753 844 756 861 q 749 828 751 828 l 718 828 q 518 839 618 828 q 325 850 418 850 q 311 847 314 850 q 308 833 308 844 q 324 744 308 793 q 354 656 339 696 l 465 350 q 479 317 471 335 q 488 283 488 300 l 488 278 q 467 253 481 268 q 439 221 453 238 q 415 188 425 204 q 404 158 404 171 q 420 145 404 147 q 461 143 436 143 l 507 143 q 615 151 563 143 q 721 178 668 158 q 747 191 740 185 q 771 197 753 197 l 771 178 l 693 28 q 663 13 688 18 q 609 3 639 7 q 551 -1 579 0 q 510 -1 522 -1 q 308 33 394 -1 q 161 129 221 67 q 72 281 101 192 q 42 482 42 371 l 40 482 m 188 439 q 201 363 188 408 q 238 274 214 317 q 295 200 263 231 q 365 169 328 169 l 365 194 q 361 206 365 194 q 352 234 357 218 q 342 267 347 250 q 332 294 336 283 q 316 344 326 311 q 293 415 306 376 q 267 493 281 453 q 242 566 254 533 q 218 619 229 599 q 200 640 207 640 q 195 640 197 640 q 193 639 193 639 l 188 606 l 188 439 m 203 -17 q 233 -6 215 -11 q 272 0 251 0 q 353 -31 324 0 q 383 -103 383 -62 q 380 -131 383 -111 q 358 -173 376 -151 q 304 -210 340 -194 q 204 -226 268 -226 q 170 -225 199 -226 q 106 -217 142 -224 l 117 -194 q 156 -198 143 -197 q 175 -199 168 -199 q 203 -195 186 -199 q 235 -183 219 -192 q 263 -162 251 -175 q 274 -129 274 -149 q 265 -101 274 -112 q 244 -81 257 -89 q 215 -70 231 -74 q 186 -67 200 -67 q 171 -67 178 -67 q 154 -69 164 -68 l 203 -17 z "},"":{"ha":847,"x_min":18,"x_max":825,"o":"m 79 722 q 124 740 90 728 q 194 771 158 753 q 257 811 229 789 q 285 858 285 833 q 283 875 285 865 q 279 892 282 885 q 299 906 285 900 q 331 918 314 913 q 364 930 347 924 q 390 944 381 936 q 407 963 399 951 q 424 985 415 974 q 441 1003 432 996 q 460 1011 450 1011 q 510 997 483 1011 q 557 972 536 983 l 824 878 q 824 875 824 878 q 825 871 825 872 q 817 841 825 864 q 797 792 808 818 q 772 747 785 767 q 751 726 760 726 q 692 744 729 726 q 610 783 654 761 q 522 822 567 804 q 443 839 478 839 l 439 839 q 429 833 429 839 l 429 604 l 768 604 l 768 456 l 429 456 l 429 283 q 394 263 413 274 q 359 242 375 253 q 333 223 343 232 q 322 208 322 214 q 340 180 322 192 q 385 160 358 168 q 444 149 413 153 q 501 142 475 144 q 545 140 528 140 q 563 139 563 139 l 568 139 q 647 148 604 139 q 724 172 689 157 q 753 190 739 179 q 786 201 767 201 q 781 181 786 193 q 767 155 775 168 q 752 130 760 142 q 740 111 744 118 q 690 46 714 69 q 640 11 667 22 q 579 -3 613 0 q 499 -6 546 -6 l 489 -6 q 438 -4 464 -6 q 385 2 411 -3 q 334 15 358 7 q 290 39 310 24 q 201 101 247 65 q 117 188 156 138 q 52 302 79 238 q 18 450 25 367 l 31 589 q 35 615 31 596 q 46 656 39 635 q 62 696 53 676 q 79 722 71 715 m 183 514 q 188 444 183 489 q 204 353 193 399 q 233 276 215 308 q 275 243 250 243 q 279 244 279 243 l 285 283 q 285 304 285 286 q 285 347 285 324 q 286 393 286 369 q 286 431 286 417 l 286 758 q 281 769 286 764 q 272 774 276 774 q 242 757 256 774 q 219 714 229 740 q 203 656 210 688 q 192 596 196 625 q 185 544 188 567 q 183 514 183 522 m 171 1293 l 329 1293 l 390 1040 l 353 1040 l 171 1293 z "},"":{"ha":847,"x_min":18,"x_max":825,"o":"m 79 722 q 124 740 90 728 q 194 771 158 753 q 257 811 229 789 q 285 858 285 833 q 283 875 285 865 q 279 892 282 885 q 299 906 285 900 q 331 918 314 913 q 364 930 347 924 q 390 944 381 936 q 407 963 399 951 q 424 985 415 974 q 441 1003 432 996 q 460 1011 450 1011 q 510 997 483 1011 q 557 972 536 983 l 824 878 q 824 875 824 878 q 825 871 825 872 q 817 841 825 864 q 797 792 808 818 q 772 747 785 767 q 751 726 760 726 q 692 744 729 726 q 610 783 654 761 q 522 822 567 804 q 443 839 478 839 l 439 839 q 429 833 429 839 l 429 604 l 768 604 l 768 456 l 429 456 l 429 283 q 394 263 413 274 q 359 242 375 253 q 333 223 343 232 q 322 208 322 214 q 340 180 322 192 q 385 160 358 168 q 444 149 413 153 q 501 142 475 144 q 545 140 528 140 q 563 139 563 139 l 568 139 q 647 148 604 139 q 724 172 689 157 q 753 190 739 179 q 786 201 767 201 q 781 181 786 193 q 767 155 775 168 q 752 130 760 142 q 740 111 744 118 q 690 46 714 69 q 640 11 667 22 q 579 -3 613 0 q 499 -6 546 -6 l 489 -6 q 438 -4 464 -6 q 385 2 411 -3 q 334 15 358 7 q 290 39 310 24 q 201 101 247 65 q 117 188 156 138 q 52 302 79 238 q 18 450 25 367 l 31 589 q 35 615 31 596 q 46 656 39 635 q 62 696 53 676 q 79 722 71 715 m 183 514 q 188 444 183 489 q 204 353 193 399 q 233 276 215 308 q 275 243 250 243 q 279 244 279 243 l 285 283 q 285 304 285 286 q 285 347 285 324 q 286 393 286 369 q 286 431 286 417 l 286 758 q 281 769 286 764 q 272 774 276 774 q 242 757 256 774 q 219 714 229 740 q 203 656 210 688 q 192 596 196 625 q 185 544 188 567 q 183 514 183 522 m 511 1040 l 572 1293 l 731 1293 l 549 1040 l 511 1040 z "},"":{"ha":847,"x_min":18,"x_max":825,"o":"m 79 722 q 124 740 90 728 q 194 771 158 753 q 257 811 229 789 q 285 858 285 833 q 283 875 285 865 q 279 892 282 885 q 299 906 285 900 q 331 918 314 913 q 364 930 347 924 q 390 944 381 936 q 407 963 399 951 q 424 985 415 974 q 441 1003 432 996 q 460 1011 450 1011 q 510 997 483 1011 q 557 972 536 983 l 824 878 q 824 875 824 878 q 825 871 825 872 q 817 841 825 864 q 797 792 808 818 q 772 747 785 767 q 751 726 760 726 q 692 744 729 726 q 610 783 654 761 q 522 822 567 804 q 443 839 478 839 l 439 839 q 429 833 429 839 l 429 604 l 768 604 l 768 456 l 429 456 l 429 283 q 394 263 413 274 q 359 242 375 253 q 333 223 343 232 q 322 208 322 214 q 340 180 322 192 q 385 160 358 168 q 444 149 413 153 q 501 142 475 144 q 545 140 528 140 q 563 139 563 139 l 568 139 q 647 148 604 139 q 724 172 689 157 q 753 190 739 179 q 786 201 767 201 q 781 181 786 193 q 767 155 775 168 q 752 130 760 142 q 740 111 744 118 q 690 46 714 69 q 640 11 667 22 q 579 -3 613 0 q 499 -6 546 -6 l 489 -6 q 438 -4 464 -6 q 385 2 411 -3 q 334 15 358 7 q 290 39 310 24 q 201 101 247 65 q 117 188 156 138 q 52 302 79 238 q 18 450 25 367 l 31 589 q 35 615 31 596 q 46 656 39 635 q 62 696 53 676 q 79 722 71 715 m 183 514 q 188 444 183 489 q 204 353 193 399 q 233 276 215 308 q 275 243 250 243 q 279 244 279 243 l 285 283 q 285 304 285 286 q 285 347 285 324 q 286 393 286 369 q 286 431 286 417 l 286 758 q 281 769 286 764 q 272 774 276 774 q 242 757 256 774 q 219 714 229 740 q 203 656 210 688 q 192 596 196 625 q 185 544 188 567 q 183 514 183 522 m 288 1039 l 415 1293 l 561 1293 l 686 1039 l 646 1039 l 488 1185 l 328 1039 l 288 1039 z "},"":{"ha":544,"x_min":160,"x_max":460,"o":"m 308 846 q 325 873 308 857 q 363 904 342 889 q 401 930 383 919 q 421 940 419 940 q 435 935 428 940 q 447 921 442 929 q 456 904 453 913 q 460 890 460 896 l 460 885 q 434 863 450 876 q 400 835 418 849 q 366 810 382 821 q 342 800 350 800 q 317 816 326 800 q 308 846 308 832 m 160 851 q 173 869 160 854 q 204 899 186 883 q 242 928 222 915 q 274 942 261 942 q 299 926 289 942 q 310 897 310 911 q 295 874 310 889 q 262 843 281 858 q 224 817 243 828 q 197 806 206 806 q 194 806 196 806 q 193 807 193 807 l 160 840 l 160 851 z "},"":{"ha":847,"x_min":18,"x_max":825,"o":"m 79 722 q 124 740 90 728 q 194 771 158 753 q 257 811 229 789 q 285 858 285 833 q 283 875 285 865 q 279 892 282 885 q 299 906 285 900 q 331 918 314 913 q 364 930 347 924 q 390 944 381 936 q 407 963 399 951 q 424 985 415 974 q 441 1003 432 996 q 460 1011 450 1011 q 510 997 483 1011 q 557 972 536 983 l 824 878 q 824 875 824 878 q 825 871 825 872 q 817 841 825 864 q 797 792 808 818 q 772 747 785 767 q 751 726 760 726 q 692 744 729 726 q 610 783 654 761 q 522 822 567 804 q 443 839 478 839 l 439 839 q 429 833 429 839 l 429 604 l 768 604 l 768 456 l 429 456 l 429 283 q 394 263 413 274 q 359 242 375 253 q 333 223 343 232 q 322 208 322 214 q 340 180 322 192 q 385 160 358 168 q 444 149 413 153 q 501 142 475 144 q 545 140 528 140 q 563 139 563 139 l 568 139 q 647 148 604 139 q 724 172 689 157 q 753 190 739 179 q 786 201 767 201 q 781 181 786 193 q 767 155 775 168 q 752 130 760 142 q 740 111 744 118 q 690 46 714 69 q 640 11 667 22 q 579 -3 613 0 q 499 -6 546 -6 l 489 -6 q 438 -4 464 -6 q 385 2 411 -3 q 334 15 358 7 q 290 39 310 24 q 201 101 247 65 q 117 188 156 138 q 52 302 79 238 q 18 450 25 367 l 31 589 q 35 615 31 596 q 46 656 39 635 q 62 696 53 676 q 79 722 71 715 m 183 514 q 188 444 183 489 q 204 353 193 399 q 233 276 215 308 q 275 243 250 243 q 279 244 279 243 l 285 283 q 285 304 285 286 q 285 347 285 324 q 286 393 286 369 q 286 431 286 417 l 286 758 q 281 769 286 764 q 272 774 276 774 q 242 757 256 774 q 219 714 229 740 q 203 656 210 688 q 192 596 196 625 q 185 544 188 567 q 183 514 183 522 m 614 1085 q 627 1108 614 1092 q 658 1140 640 1124 q 693 1167 675 1156 q 721 1179 711 1179 q 751 1166 736 1179 q 765 1138 765 1153 l 765 1129 q 742 1103 756 1118 q 712 1076 728 1089 q 655 1068 696 1063 q 614 1085 614 1074 m 464 1096 q 482 1122 464 1107 q 522 1149 500 1136 q 560 1170 543 1161 q 574 1179 576 1179 q 601 1170 588 1179 q 615 1146 615 1161 q 605 1126 615 1138 q 580 1101 594 1114 q 547 1075 565 1088 q 515 1051 529 1063 q 510 1051 514 1051 q 507 1050 507 1050 q 478 1065 492 1050 q 464 1096 464 1081 z "},"":{"ha":729,"x_min":10,"x_max":694,"o":"m 54 110 q 67 129 54 110 q 95 171 79 149 q 127 212 111 193 q 150 231 143 231 q 192 214 167 231 q 245 176 218 197 q 297 139 272 156 q 333 122 321 122 q 347 131 344 122 q 350 149 350 140 l 350 168 q 345 234 346 196 q 341 308 344 272 q 327 372 338 344 q 294 407 317 400 l 222 429 q 215 443 215 432 q 233 466 214 451 q 274 497 251 481 q 315 531 296 514 q 333 563 333 549 q 330 600 333 582 q 326 660 326 618 q 335 717 326 696 q 357 753 343 739 q 388 781 371 768 q 422 813 406 793 l 422 825 q 417 835 422 835 l 206 835 q 194 833 201 835 q 181 829 188 832 q 168 822 174 826 q 161 813 163 818 l 161 810 q 174 788 161 800 q 201 763 186 776 q 228 735 215 749 q 240 710 240 722 q 225 687 240 703 q 191 654 210 671 q 154 624 172 638 q 132 611 136 611 q 110 631 129 611 q 68 676 90 651 q 28 724 46 701 q 10 754 10 747 q 31 778 18 767 q 58 803 44 790 q 85 830 72 817 q 106 857 97 843 q 118 890 111 867 q 134 936 125 913 q 155 978 143 960 q 181 996 167 996 l 189 996 q 331 983 263 988 q 472 978 399 978 q 574 981 524 978 q 674 985 624 985 l 679 985 q 686 984 682 985 q 694 979 690 983 l 694 954 q 683 688 694 819 q 671 422 671 557 q 674 281 671 351 q 678 139 678 210 q 665 124 678 126 q 644 118 653 121 l 478 90 q 428 79 454 86 q 383 57 403 72 q 364 35 375 50 q 341 4 353 19 q 319 -22 329 -11 q 303 -33 310 -33 q 272 -24 293 -33 q 222 1 250 -14 q 165 34 194 17 q 110 67 135 51 q 70 95 86 83 q 54 110 54 107 m 465 422 q 467 335 465 379 q 472 253 468 290 q 485 188 476 215 q 506 151 493 160 q 538 178 535 161 q 550 218 542 194 l 544 813 q 534 831 542 828 q 511 835 526 835 q 488 815 496 835 q 474 765 479 796 q 467 699 468 735 q 465 628 465 663 l 465 532 l 465 422 m 247 1294 l 406 1294 l 467 1042 l 429 1042 l 247 1294 z "},"":{"ha":729,"x_min":10,"x_max":694,"o":"m 54 110 q 67 129 54 110 q 95 171 79 149 q 127 212 111 193 q 150 231 143 231 q 192 214 167 231 q 245 176 218 197 q 297 139 272 156 q 333 122 321 122 q 347 131 344 122 q 350 149 350 140 l 350 168 q 345 234 346 196 q 341 308 344 272 q 327 372 338 344 q 294 407 317 400 l 222 429 q 215 443 215 432 q 233 466 214 451 q 274 497 251 481 q 315 531 296 514 q 333 563 333 549 q 330 600 333 582 q 326 660 326 618 q 335 717 326 696 q 357 753 343 739 q 388 781 371 768 q 422 813 406 793 l 422 825 q 417 835 422 835 l 206 835 q 194 833 201 835 q 181 829 188 832 q 168 822 174 826 q 161 813 163 818 l 161 810 q 174 788 161 800 q 201 763 186 776 q 228 735 215 749 q 240 710 240 722 q 225 687 240 703 q 191 654 210 671 q 154 624 172 638 q 132 611 136 611 q 110 631 129 611 q 68 676 90 651 q 28 724 46 701 q 10 754 10 747 q 31 778 18 767 q 58 803 44 790 q 85 830 72 817 q 106 857 97 843 q 118 890 111 867 q 134 936 125 913 q 155 978 143 960 q 181 996 167 996 l 189 996 q 331 983 263 988 q 472 978 399 978 q 574 981 524 978 q 674 985 624 985 l 679 985 q 686 984 682 985 q 694 979 690 983 l 694 954 q 683 688 694 819 q 671 422 671 557 q 674 281 671 351 q 678 139 678 210 q 665 124 678 126 q 644 118 653 121 l 478 90 q 428 79 454 86 q 383 57 403 72 q 364 35 375 50 q 341 4 353 19 q 319 -22 329 -11 q 303 -33 310 -33 q 272 -24 293 -33 q 222 1 250 -14 q 165 34 194 17 q 110 67 135 51 q 70 95 86 83 q 54 110 54 107 m 465 422 q 467 335 465 379 q 472 253 468 290 q 485 188 476 215 q 506 151 493 160 q 538 178 535 161 q 550 218 542 194 l 544 813 q 534 831 542 828 q 511 835 526 835 q 488 815 496 835 q 474 765 479 796 q 467 699 468 735 q 465 628 465 663 l 465 532 l 465 422 m 411 1044 l 472 1297 l 631 1297 l 449 1044 l 411 1044 z "},"":{"ha":729,"x_min":10,"x_max":694,"o":"m 54 110 q 67 129 54 110 q 95 171 79 149 q 127 212 111 193 q 150 231 143 231 q 192 214 167 231 q 245 176 218 197 q 297 139 272 156 q 333 122 321 122 q 347 131 344 122 q 350 149 350 140 l 350 168 q 345 234 346 196 q 341 308 344 272 q 327 372 338 344 q 294 407 317 400 l 222 429 q 215 443 215 432 q 233 466 214 451 q 274 497 251 481 q 315 531 296 514 q 333 563 333 549 q 330 600 333 582 q 326 660 326 618 q 335 717 326 696 q 357 753 343 739 q 388 781 371 768 q 422 813 406 793 l 422 825 q 417 835 422 835 l 206 835 q 194 833 201 835 q 181 829 188 832 q 168 822 174 826 q 161 813 163 818 l 161 810 q 174 788 161 800 q 201 763 186 776 q 228 735 215 749 q 240 710 240 722 q 225 687 240 703 q 191 654 210 671 q 154 624 172 638 q 132 611 136 611 q 110 631 129 611 q 68 676 90 651 q 28 724 46 701 q 10 754 10 747 q 31 778 18 767 q 58 803 44 790 q 85 830 72 817 q 106 857 97 843 q 118 890 111 867 q 134 936 125 913 q 155 978 143 960 q 181 996 167 996 l 189 996 q 331 983 263 988 q 472 978 399 978 q 574 981 524 978 q 674 985 624 985 l 679 985 q 686 984 682 985 q 694 979 690 983 l 694 954 q 683 688 694 819 q 671 422 671 557 q 674 281 671 351 q 678 139 678 210 q 665 124 678 126 q 644 118 653 121 l 478 90 q 428 79 454 86 q 383 57 403 72 q 364 35 375 50 q 341 4 353 19 q 319 -22 329 -11 q 303 -33 310 -33 q 272 -24 293 -33 q 222 1 250 -14 q 165 34 194 17 q 110 67 135 51 q 70 95 86 83 q 54 110 54 107 m 465 422 q 467 335 465 379 q 472 253 468 290 q 485 188 476 215 q 506 151 493 160 q 538 178 535 161 q 550 218 542 194 l 544 813 q 534 831 542 828 q 511 835 526 835 q 488 815 496 835 q 474 765 479 796 q 467 699 468 735 q 465 628 465 663 l 465 532 l 465 422 m 253 1042 l 381 1296 l 526 1296 l 651 1042 l 611 1042 l 453 1188 l 293 1042 l 253 1042 z "},"":{"ha":729,"x_min":10,"x_max":694,"o":"m 54 110 q 67 129 54 110 q 95 171 79 149 q 127 212 111 193 q 150 231 143 231 q 192 214 167 231 q 245 176 218 197 q 297 139 272 156 q 333 122 321 122 q 347 131 344 122 q 350 149 350 140 l 350 168 q 345 234 346 196 q 341 308 344 272 q 327 372 338 344 q 294 407 317 400 l 222 429 q 215 443 215 432 q 233 466 214 451 q 274 497 251 481 q 315 531 296 514 q 333 563 333 549 q 330 600 333 582 q 326 660 326 618 q 335 717 326 696 q 357 753 343 739 q 388 781 371 768 q 422 813 406 793 l 422 825 q 417 835 422 835 l 206 835 q 194 833 201 835 q 181 829 188 832 q 168 822 174 826 q 161 813 163 818 l 161 810 q 174 788 161 800 q 201 763 186 776 q 228 735 215 749 q 240 710 240 722 q 225 687 240 703 q 191 654 210 671 q 154 624 172 638 q 132 611 136 611 q 110 631 129 611 q 68 676 90 651 q 28 724 46 701 q 10 754 10 747 q 31 778 18 767 q 58 803 44 790 q 85 830 72 817 q 106 857 97 843 q 118 890 111 867 q 134 936 125 913 q 155 978 143 960 q 181 996 167 996 l 189 996 q 331 983 263 988 q 472 978 399 978 q 574 981 524 978 q 674 985 624 985 l 679 985 q 686 984 682 985 q 694 979 690 983 l 694 954 q 683 688 694 819 q 671 422 671 557 q 674 281 671 351 q 678 139 678 210 q 665 124 678 126 q 644 118 653 121 l 478 90 q 428 79 454 86 q 383 57 403 72 q 364 35 375 50 q 341 4 353 19 q 319 -22 329 -11 q 303 -33 310 -33 q 272 -24 293 -33 q 222 1 250 -14 q 165 34 194 17 q 110 67 135 51 q 70 95 86 83 q 54 110 54 107 m 465 422 q 467 335 465 379 q 472 253 468 290 q 485 188 476 215 q 506 151 493 160 q 538 178 535 161 q 550 218 542 194 l 544 813 q 534 831 542 828 q 511 835 526 835 q 488 815 496 835 q 474 765 479 796 q 467 699 468 735 q 465 628 465 663 l 465 532 l 465 422 m 528 1082 q 541 1105 528 1089 q 572 1137 554 1121 q 607 1165 589 1153 q 635 1176 625 1176 q 665 1163 650 1176 q 679 1135 679 1150 l 679 1126 q 656 1101 669 1115 q 626 1073 642 1086 q 569 1065 610 1060 q 528 1082 528 1071 m 378 1093 q 396 1119 378 1104 q 435 1146 414 1133 q 474 1167 457 1158 q 488 1176 490 1176 q 515 1167 501 1176 q 529 1143 529 1158 q 519 1123 529 1135 q 494 1098 508 1111 q 461 1072 479 1085 q 429 1049 443 1060 q 424 1048 428 1049 q 421 1047 421 1047 q 392 1063 406 1047 q 378 1093 378 1078 z "},"":{"ha":943,"x_min":25,"x_max":917,"o":"m 42 476 l 153 476 l 153 606 q 167 639 153 625 q 202 665 181 653 q 248 689 224 678 q 293 713 272 700 q 338 742 311 724 q 390 778 365 760 q 431 812 414 796 q 449 835 449 828 l 449 843 q 342 840 389 843 q 249 825 294 836 q 153 794 203 814 q 38 740 103 774 l 35 739 q 26 744 28 739 q 25 756 25 750 l 25 760 q 37 803 25 783 q 54 846 49 822 q 58 882 57 861 q 71 918 60 903 q 109 942 82 932 q 167 961 136 953 q 229 975 199 969 q 276 985 260 981 q 316 992 288 988 q 393 996 344 996 q 791 864 665 996 q 917 449 917 732 q 911 290 917 369 q 882 135 906 211 q 856 122 878 126 q 806 113 833 118 q 753 99 779 107 q 715 74 728 90 q 697 46 707 60 q 677 22 686 32 q 660 4 668 11 q 650 -3 653 -3 q 601 -1 631 -4 q 535 6 571 1 q 462 14 500 10 q 388 18 424 18 l 210 18 q 194 13 206 17 q 171 7 183 10 q 147 1 158 4 q 132 -3 136 -1 l 126 -3 q 119 -1 124 -1 q 115 1 115 0 l 71 57 l 71 74 q 115 124 99 99 q 139 176 131 149 q 150 233 147 203 q 153 300 153 264 l 153 411 l 42 411 l 42 476 m 288 411 l 288 407 l 288 263 q 293 257 288 257 l 296 257 q 317 261 306 257 q 338 272 328 265 q 356 288 349 279 q 363 307 363 297 q 367 378 367 342 q 367 394 367 386 q 365 411 367 403 l 288 411 m 486 411 q 487 357 486 381 q 488 321 488 333 l 488 307 l 482 296 l 393 251 q 338 221 376 243 q 260 172 300 199 q 189 123 219 146 q 158 90 158 100 q 185 67 158 67 q 217 77 199 67 q 256 101 236 88 q 296 127 276 114 q 332 146 315 140 l 360 146 q 373 147 360 146 q 406 150 386 149 q 445 152 425 151 q 479 153 465 153 q 588 147 533 154 q 696 139 642 139 q 736 165 722 139 q 756 230 750 192 q 765 310 763 268 q 771 385 767 353 l 771 454 q 764 557 771 506 q 739 655 757 608 q 690 740 721 701 q 610 807 658 779 q 564 829 590 818 q 514 840 538 840 q 499 817 506 840 q 490 756 493 794 q 486 670 488 718 q 485 572 485 622 q 485 524 485 547 q 486 476 485 500 l 671 476 l 671 411 l 486 411 m 363 476 l 363 692 q 323 680 340 692 q 290 651 306 668 q 290 622 290 642 q 289 578 289 603 q 288 527 289 554 q 288 476 288 500 l 363 476 z "},"":{"ha":954,"x_min":24,"x_max":925,"o":"m 178 6 q 174 10 176 7 q 172 17 172 14 l 175 19 l 175 418 q 161 429 175 429 q 151 428 156 429 q 142 428 147 428 l 40 439 q 45 454 40 442 q 56 481 50 467 q 69 506 63 494 q 81 518 76 518 l 181 518 l 181 772 q 180 792 181 779 q 178 817 179 804 q 177 839 178 829 q 176 850 176 849 l 36 850 l 25 856 q 24 860 25 856 q 24 867 24 864 q 33 898 24 876 q 55 942 43 919 q 78 983 67 965 q 92 1000 89 1000 l 336 992 l 321 883 l 321 276 q 319 242 321 269 q 317 192 317 215 q 318 166 317 176 q 324 156 319 156 l 388 156 q 397 161 394 156 l 397 789 q 398 801 397 793 q 399 817 399 808 q 401 831 400 825 q 403 839 401 838 l 481 1006 q 499 1006 483 1006 q 522 1007 515 1007 q 676 985 604 1007 q 803 918 749 963 q 888 807 857 874 q 919 653 919 740 q 897 476 919 561 q 842 306 875 390 q 809 238 828 272 q 786 167 790 203 l 786 165 q 792 156 786 156 l 919 156 q 924 151 924 156 q 925 144 925 147 q 917 108 925 132 q 898 60 910 85 q 874 18 886 36 q 851 0 861 0 l 747 6 l 594 -1 q 580 1 586 -1 q 574 15 574 4 q 586 59 574 39 q 608 100 599 79 q 651 213 632 158 q 687 322 669 267 q 721 433 704 376 q 758 550 738 489 l 758 575 q 748 675 758 626 q 714 761 738 724 q 650 822 690 799 q 550 844 610 844 l 542 844 q 505 843 522 844 q 475 832 488 842 q 455 803 463 822 q 447 746 447 783 l 447 521 l 493 521 l 561 528 q 586 508 586 528 q 582 490 586 504 q 571 461 578 476 q 556 434 564 446 q 542 422 549 422 l 458 422 q 451 415 456 422 q 447 406 447 408 l 447 11 q 436 2 447 4 q 414 0 425 0 l 364 6 l 178 6 m 293 1081 q 300 1120 294 1093 q 320 1176 306 1147 q 360 1225 335 1204 q 429 1246 386 1246 q 453 1244 442 1246 q 478 1237 464 1242 q 511 1224 492 1232 q 561 1201 531 1215 q 592 1191 568 1199 q 636 1183 617 1183 q 666 1190 654 1183 q 685 1207 678 1197 q 698 1227 693 1217 q 706 1246 703 1238 l 731 1246 q 690 1128 724 1176 q 588 1081 656 1081 q 551 1085 575 1081 q 482 1111 526 1090 q 431 1133 454 1124 q 386 1142 408 1142 q 358 1135 369 1142 q 340 1118 347 1128 q 328 1098 332 1108 q 321 1081 324 1088 l 293 1081 z "},"":{"ha":946,"x_min":22,"x_max":921,"o":"m 24 60 q 23 65 24 61 q 22 71 22 68 q 32 97 22 86 q 53 119 42 108 q 76 141 65 129 q 89 169 86 153 q 90 186 90 175 q 90 214 90 199 l 90 707 q 119 749 90 724 q 187 801 147 774 q 267 858 226 829 q 333 910 308 886 l 376 953 q 390 970 386 963 q 400 983 394 978 q 419 990 406 988 q 461 992 432 992 q 644 956 560 992 q 790 855 728 919 q 886 699 851 790 q 921 499 921 608 q 915 410 921 451 q 899 330 910 369 q 875 249 889 290 q 843 161 861 208 q 836 144 840 153 q 829 125 832 135 q 808 113 824 117 q 773 106 792 108 q 736 103 754 104 q 710 99 718 101 q 677 75 689 92 q 655 42 665 58 q 631 12 644 25 q 594 -1 617 -1 l 581 -1 q 567 1 585 -1 q 524 6 550 3 q 468 13 499 10 q 415 17 438 15 l 271 17 q 213 16 240 17 q 149 11 185 15 q 122 3 133 8 q 97 -1 111 -1 q 81 6 90 -1 q 61 23 71 13 q 42 43 51 33 q 24 60 32 53 m 114 90 q 121 77 114 79 q 135 75 128 75 l 140 75 q 191 89 169 75 q 235 119 213 103 q 288 150 258 136 q 363 164 317 164 l 379 164 q 515 155 449 164 q 649 146 581 146 q 668 147 656 146 q 682 147 681 147 l 688 153 q 712 198 697 163 q 739 279 726 233 q 760 375 751 325 q 769 465 769 425 q 749 598 769 529 q 688 724 728 667 q 590 817 649 781 q 456 854 531 854 q 442 853 450 854 q 432 844 433 851 l 432 343 q 417 323 431 335 q 388 299 404 311 q 358 277 372 288 q 339 261 343 267 l 214 179 q 189 158 206 167 q 156 141 172 150 q 126 120 139 132 q 114 90 114 108 m 231 326 q 231 311 231 321 q 232 294 231 303 q 235 278 233 285 q 240 271 236 271 q 275 285 263 271 q 293 322 288 300 q 300 370 299 344 q 301 419 301 396 l 301 650 q 301 698 301 672 q 298 745 300 724 q 291 781 296 767 q 279 794 286 794 q 247 779 263 794 q 231 747 231 764 l 231 329 l 231 326 m 85 1297 l 243 1297 l 304 1044 l 267 1044 l 85 1297 z "},"":{"ha":946,"x_min":22,"x_max":921,"o":"m 24 60 q 23 65 24 61 q 22 71 22 68 q 32 97 22 86 q 53 119 42 108 q 76 141 65 129 q 89 169 86 153 q 90 186 90 175 q 90 214 90 199 l 90 707 q 119 749 90 724 q 187 801 147 774 q 267 858 226 829 q 333 910 308 886 l 376 953 q 390 970 386 963 q 400 983 394 978 q 419 990 406 988 q 461 992 432 992 q 644 956 560 992 q 790 855 728 919 q 886 699 851 790 q 921 499 921 608 q 915 410 921 451 q 899 330 910 369 q 875 249 889 290 q 843 161 861 208 q 836 144 840 153 q 829 125 832 135 q 808 113 824 117 q 773 106 792 108 q 736 103 754 104 q 710 99 718 101 q 677 75 689 92 q 655 42 665 58 q 631 12 644 25 q 594 -1 617 -1 l 581 -1 q 567 1 585 -1 q 524 6 550 3 q 468 13 499 10 q 415 17 438 15 l 271 17 q 213 16 240 17 q 149 11 185 15 q 122 3 133 8 q 97 -1 111 -1 q 81 6 90 -1 q 61 23 71 13 q 42 43 51 33 q 24 60 32 53 m 114 90 q 121 77 114 79 q 135 75 128 75 l 140 75 q 191 89 169 75 q 235 119 213 103 q 288 150 258 136 q 363 164 317 164 l 379 164 q 515 155 449 164 q 649 146 581 146 q 668 147 656 146 q 682 147 681 147 l 688 153 q 712 198 697 163 q 739 279 726 233 q 760 375 751 325 q 769 465 769 425 q 749 598 769 529 q 688 724 728 667 q 590 817 649 781 q 456 854 531 854 q 442 853 450 854 q 432 844 433 851 l 432 343 q 417 323 431 335 q 388 299 404 311 q 358 277 372 288 q 339 261 343 267 l 214 179 q 189 158 206 167 q 156 141 172 150 q 126 120 139 132 q 114 90 114 108 m 231 326 q 231 311 231 321 q 232 294 231 303 q 235 278 233 285 q 240 271 236 271 q 275 285 263 271 q 293 322 288 300 q 300 370 299 344 q 301 419 301 396 l 301 650 q 301 698 301 672 q 298 745 300 724 q 291 781 296 767 q 279 794 286 794 q 247 779 263 794 q 231 747 231 764 l 231 329 l 231 326 m 511 1040 l 572 1293 l 731 1293 l 549 1040 l 511 1040 z "},"":{"ha":946,"x_min":22,"x_max":921,"o":"m 24 60 q 23 65 24 61 q 22 71 22 68 q 32 97 22 86 q 53 119 42 108 q 76 141 65 129 q 89 169 86 153 q 90 186 90 175 q 90 214 90 199 l 90 707 q 119 749 90 724 q 187 801 147 774 q 267 858 226 829 q 333 910 308 886 l 376 953 q 390 970 386 963 q 400 983 394 978 q 419 990 406 988 q 461 992 432 992 q 644 956 560 992 q 790 855 728 919 q 886 699 851 790 q 921 499 921 608 q 915 410 921 451 q 899 330 910 369 q 875 249 889 290 q 843 161 861 208 q 836 144 840 153 q 829 125 832 135 q 808 113 824 117 q 773 106 792 108 q 736 103 754 104 q 710 99 718 101 q 677 75 689 92 q 655 42 665 58 q 631 12 644 25 q 594 -1 617 -1 l 581 -1 q 567 1 585 -1 q 524 6 550 3 q 468 13 499 10 q 415 17 438 15 l 271 17 q 213 16 240 17 q 149 11 185 15 q 122 3 133 8 q 97 -1 111 -1 q 81 6 90 -1 q 61 23 71 13 q 42 43 51 33 q 24 60 32 53 m 114 90 q 121 77 114 79 q 135 75 128 75 l 140 75 q 191 89 169 75 q 235 119 213 103 q 288 150 258 136 q 363 164 317 164 l 379 164 q 515 155 449 164 q 649 146 581 146 q 668 147 656 146 q 682 147 681 147 l 688 153 q 712 198 697 163 q 739 279 726 233 q 760 375 751 325 q 769 465 769 425 q 749 598 769 529 q 688 724 728 667 q 590 817 649 781 q 456 854 531 854 q 442 853 450 854 q 432 844 433 851 l 432 343 q 417 323 431 335 q 388 299 404 311 q 358 277 372 288 q 339 261 343 267 l 214 179 q 189 158 206 167 q 156 141 172 150 q 126 120 139 132 q 114 90 114 108 m 231 326 q 231 311 231 321 q 232 294 231 303 q 235 278 233 285 q 240 271 236 271 q 275 285 263 271 q 293 322 288 300 q 300 370 299 344 q 301 419 301 396 l 301 650 q 301 698 301 672 q 298 745 300 724 q 291 781 296 767 q 279 794 286 794 q 247 779 263 794 q 231 747 231 764 l 231 329 l 231 326 m 335 1039 l 463 1293 l 608 1293 l 733 1039 l 693 1039 l 535 1185 l 375 1039 l 335 1039 z "},"":{"ha":946,"x_min":22,"x_max":921,"o":"m 24 60 q 23 65 24 61 q 22 71 22 68 q 32 97 22 86 q 53 119 42 108 q 76 141 65 129 q 89 169 86 153 q 90 186 90 175 q 90 214 90 199 l 90 707 q 119 749 90 724 q 187 801 147 774 q 267 858 226 829 q 333 910 308 886 l 376 953 q 390 970 386 963 q 400 983 394 978 q 419 990 406 988 q 461 992 432 992 q 644 956 560 992 q 790 855 728 919 q 886 699 851 790 q 921 499 921 608 q 915 410 921 451 q 899 330 910 369 q 875 249 889 290 q 843 161 861 208 q 836 144 840 153 q 829 125 832 135 q 808 113 824 117 q 773 106 792 108 q 736 103 754 104 q 710 99 718 101 q 677 75 689 92 q 655 42 665 58 q 631 12 644 25 q 594 -1 617 -1 l 581 -1 q 567 1 585 -1 q 524 6 550 3 q 468 13 499 10 q 415 17 438 15 l 271 17 q 213 16 240 17 q 149 11 185 15 q 122 3 133 8 q 97 -1 111 -1 q 81 6 90 -1 q 61 23 71 13 q 42 43 51 33 q 24 60 32 53 m 114 90 q 121 77 114 79 q 135 75 128 75 l 140 75 q 191 89 169 75 q 235 119 213 103 q 288 150 258 136 q 363 164 317 164 l 379 164 q 515 155 449 164 q 649 146 581 146 q 668 147 656 146 q 682 147 681 147 l 688 153 q 712 198 697 163 q 739 279 726 233 q 760 375 751 325 q 769 465 769 425 q 749 598 769 529 q 688 724 728 667 q 590 817 649 781 q 456 854 531 854 q 442 853 450 854 q 432 844 433 851 l 432 343 q 417 323 431 335 q 388 299 404 311 q 358 277 372 288 q 339 261 343 267 l 214 179 q 189 158 206 167 q 156 141 172 150 q 126 120 139 132 q 114 90 114 108 m 231 326 q 231 311 231 321 q 232 294 231 303 q 235 278 233 285 q 240 271 236 271 q 275 285 263 271 q 293 322 288 300 q 300 370 299 344 q 301 419 301 396 l 301 650 q 301 698 301 672 q 298 745 300 724 q 291 781 296 767 q 279 794 286 794 q 247 779 263 794 q 231 747 231 764 l 231 329 l 231 326 m 293 1081 q 300 1120 294 1093 q 320 1176 306 1147 q 360 1225 335 1204 q 429 1246 386 1246 q 453 1244 442 1246 q 478 1237 464 1242 q 511 1224 492 1232 q 561 1201 531 1215 q 592 1191 568 1199 q 636 1183 617 1183 q 666 1190 654 1183 q 685 1207 678 1197 q 698 1227 693 1217 q 706 1246 703 1238 l 731 1246 q 690 1128 724 1176 q 588 1081 656 1081 q 551 1085 575 1081 q 482 1111 526 1090 q 431 1133 454 1124 q 386 1142 408 1142 q 358 1135 369 1142 q 340 1118 347 1128 q 328 1098 332 1108 q 321 1081 324 1088 l 293 1081 z "},"":{"ha":946,"x_min":22,"x_max":921,"o":"m 733 981 l 800 981 l 760 883 q 878 719 835 817 q 921 499 921 622 q 915 410 921 451 q 899 330 910 369 q 875 249 889 290 q 843 161 861 208 q 836 144 840 153 q 829 125 832 135 q 808 113 824 117 q 773 106 792 108 q 736 103 754 104 q 710 99 718 101 q 677 76 689 92 q 654 43 665 60 q 630 13 643 26 q 594 0 617 0 l 581 0 q 567 3 585 0 q 524 8 550 6 q 468 14 499 11 q 415 17 438 17 l 403 17 l 396 0 l 328 0 l 335 17 l 271 17 q 213 17 240 17 q 149 11 185 17 q 122 4 133 8 q 97 0 111 0 q 81 7 90 0 q 61 23 71 14 q 42 42 51 32 q 24 60 32 53 q 23 65 24 61 q 22 71 22 68 q 32 97 22 86 q 53 119 42 108 q 76 141 65 129 q 89 169 86 153 q 90 186 90 174 l 90 214 l 90 707 q 119 748 90 724 q 187 800 147 772 q 267 856 226 828 q 333 910 308 885 l 376 953 q 390 970 386 963 q 400 983 394 978 q 419 990 406 988 q 461 992 432 992 q 594 974 532 992 q 708 922 656 956 l 733 981 m 647 772 q 562 832 610 810 q 456 854 514 854 q 442 853 450 854 q 432 844 433 851 l 432 343 q 417 323 431 335 q 388 299 404 311 q 358 277 372 288 q 339 261 343 267 l 214 179 q 189 158 206 167 q 156 141 172 150 q 126 120 139 132 q 114 90 114 108 q 121 77 114 79 q 135 75 128 75 l 140 75 q 191 89 169 75 q 235 119 213 103 q 288 150 258 136 q 363 164 317 164 l 379 164 l 396 164 l 647 772 m 463 160 q 556 151 510 156 q 649 146 601 146 q 668 147 656 146 q 682 147 681 147 l 688 153 q 712 198 697 163 q 739 279 726 233 q 760 375 751 325 q 769 465 769 425 q 750 594 769 528 q 692 718 731 661 l 463 160 m 231 329 l 231 326 l 231 311 q 233 285 231 300 q 240 271 235 271 q 275 285 263 271 q 293 322 288 300 q 300 370 299 344 q 301 419 301 396 l 301 650 q 301 698 301 672 q 298 745 300 724 q 291 781 296 767 q 279 794 286 794 q 247 779 263 794 q 231 747 231 764 l 231 329 z "},"":{"ha":957,"x_min":32,"x_max":932,"o":"m 36 24 q 41 76 36 50 q 49 128 46 101 q 95 177 78 154 q 122 226 113 200 q 134 281 131 251 q 138 350 138 311 l 138 711 q 165 726 138 715 q 225 754 192 738 q 285 792 258 771 q 313 839 313 814 l 38 839 q 35 843 36 839 q 32 850 33 847 l 32 853 q 41 876 32 854 q 62 924 50 899 q 84 972 74 950 q 99 994 94 993 q 122 999 107 999 q 149 998 132 999 q 193 994 165 997 l 476 994 q 485 977 483 994 q 486 931 486 960 l 486 322 q 426 290 464 303 q 347 261 389 276 q 264 225 306 246 q 192 169 222 204 l 193 167 q 199 161 193 161 l 626 161 q 660 165 638 161 q 693 172 682 168 l 693 849 l 676 847 l 565 847 q 555 853 557 847 q 553 864 553 858 q 567 897 558 875 q 585 942 575 919 q 604 983 594 965 q 622 1000 614 1000 l 647 1000 q 657 999 653 1000 q 665 994 661 999 l 699 994 q 769 997 735 994 q 835 1000 803 1000 q 846 993 846 1000 q 843 983 846 989 q 838 971 840 978 l 838 253 q 852 198 838 215 q 885 172 867 181 q 917 159 903 164 q 932 142 932 154 q 917 118 932 139 q 881 73 901 97 q 839 29 860 49 q 807 10 818 10 q 788 20 800 10 q 761 46 775 31 q 733 78 747 61 q 708 111 719 96 q 706 114 707 113 q 704 117 706 115 l 693 117 q 660 99 675 117 q 631 60 646 82 q 598 22 615 39 q 557 4 581 4 q 471 10 514 4 q 385 17 428 17 l 332 17 q 247 13 296 15 q 156 6 199 10 q 83 1 113 3 q 58 -1 54 -1 q 36 24 36 -1 m 271 293 l 275 293 q 335 328 313 293 q 357 407 357 363 l 357 753 q 351 772 357 767 l 349 772 q 328 769 340 772 q 303 759 315 765 q 282 745 290 753 q 274 729 274 738 q 271 722 274 725 l 271 372 l 271 293 m 308 1294 l 467 1294 l 528 1042 l 490 1042 l 308 1294 z "},"":{"ha":957,"x_min":32,"x_max":932,"o":"m 36 24 q 41 76 36 50 q 49 128 46 101 q 95 177 78 154 q 122 226 113 200 q 134 281 131 251 q 138 350 138 311 l 138 711 q 165 726 138 715 q 225 754 192 738 q 285 792 258 771 q 313 839 313 814 l 38 839 q 35 843 36 839 q 32 850 33 847 l 32 853 q 41 876 32 854 q 62 924 50 899 q 84 972 74 950 q 99 994 94 993 q 122 999 107 999 q 149 998 132 999 q 193 994 165 997 l 476 994 q 485 977 483 994 q 486 931 486 960 l 486 322 q 426 290 464 303 q 347 261 389 276 q 264 225 306 246 q 192 169 222 204 l 193 167 q 199 161 193 161 l 626 161 q 660 165 638 161 q 693 172 682 168 l 693 849 l 676 847 l 565 847 q 555 853 557 847 q 553 864 553 858 q 567 897 558 875 q 585 942 575 919 q 604 983 594 965 q 622 1000 614 1000 l 647 1000 q 657 999 653 1000 q 665 994 661 999 l 699 994 q 769 997 735 994 q 835 1000 803 1000 q 846 993 846 1000 q 843 983 846 989 q 838 971 840 978 l 838 253 q 852 198 838 215 q 885 172 867 181 q 917 159 903 164 q 932 142 932 154 q 917 118 932 139 q 881 73 901 97 q 839 29 860 49 q 807 10 818 10 q 788 20 800 10 q 761 46 775 31 q 733 78 747 61 q 708 111 719 96 q 706 114 707 113 q 704 117 706 115 l 693 117 q 660 99 675 117 q 631 60 646 82 q 598 22 615 39 q 557 4 581 4 q 471 10 514 4 q 385 17 428 17 l 332 17 q 247 13 296 15 q 156 6 199 10 q 83 1 113 3 q 58 -1 54 -1 q 36 24 36 -1 m 271 293 l 275 293 q 335 328 313 293 q 357 407 357 363 l 357 753 q 351 772 357 767 l 349 772 q 328 769 340 772 q 303 759 315 765 q 282 745 290 753 q 274 729 274 738 q 271 722 274 725 l 271 372 l 271 293 m 511 1040 l 572 1293 l 731 1293 l 549 1040 l 511 1040 z "},"":{"ha":957,"x_min":32,"x_max":932,"o":"m 36 24 q 41 76 36 50 q 49 128 46 101 q 95 177 78 154 q 122 226 113 200 q 134 281 131 251 q 138 350 138 311 l 138 711 q 165 726 138 715 q 225 754 192 738 q 285 792 258 771 q 313 839 313 814 l 38 839 q 35 843 36 839 q 32 850 33 847 l 32 853 q 41 876 32 854 q 62 924 50 899 q 84 972 74 950 q 99 994 94 993 q 122 999 107 999 q 149 998 132 999 q 193 994 165 997 l 476 994 q 485 977 483 994 q 486 931 486 960 l 486 322 q 426 290 464 303 q 347 261 389 276 q 264 225 306 246 q 192 169 222 204 l 193 167 q 199 161 193 161 l 626 161 q 660 165 638 161 q 693 172 682 168 l 693 849 l 676 847 l 565 847 q 555 853 557 847 q 553 864 553 858 q 567 897 558 875 q 585 942 575 919 q 604 983 594 965 q 622 1000 614 1000 l 647 1000 q 657 999 653 1000 q 665 994 661 999 l 699 994 q 769 997 735 994 q 835 1000 803 1000 q 846 993 846 1000 q 843 983 846 989 q 838 971 840 978 l 838 253 q 852 198 838 215 q 885 172 867 181 q 917 159 903 164 q 932 142 932 154 q 917 118 932 139 q 881 73 901 97 q 839 29 860 49 q 807 10 818 10 q 788 20 800 10 q 761 46 775 31 q 733 78 747 61 q 708 111 719 96 q 706 114 707 113 q 704 117 706 115 l 693 117 q 660 99 675 117 q 631 60 646 82 q 598 22 615 39 q 557 4 581 4 q 471 10 514 4 q 385 17 428 17 l 332 17 q 247 13 296 15 q 156 6 199 10 q 83 1 113 3 q 58 -1 54 -1 q 36 24 36 -1 m 271 293 l 275 293 q 335 328 313 293 q 357 407 357 363 l 357 753 q 351 772 357 767 l 349 772 q 328 769 340 772 q 303 759 315 765 q 282 745 290 753 q 274 729 274 738 q 271 722 274 725 l 271 372 l 271 293 m 335 1039 l 463 1293 l 608 1293 l 733 1039 l 693 1039 l 535 1185 l 375 1039 l 335 1039 z "},"":{"ha":536,"x_min":-17,"x_max":517,"o":"m 21 144 q 17 149 19 146 q 15 156 15 153 l 15 161 q 17 166 15 163 q 21 172 19 169 q 31 179 25 176 q 83 215 64 201 q 111 246 101 229 q 124 287 121 263 q 126 353 126 311 q 120 454 126 403 q 104 556 114 506 q 94 588 101 572 q 86 622 86 604 q 97 635 86 624 q 125 663 108 646 q 161 699 142 679 q 199 734 181 718 q 229 761 217 750 q 246 772 242 772 l 249 772 q 285 751 258 763 q 342 724 311 739 q 401 692 372 710 q 444 656 429 675 l 444 194 q 458 164 446 174 q 483 149 469 154 q 506 138 496 143 q 517 119 517 132 q 516 114 517 117 q 515 111 515 111 l 404 0 q 401 -1 404 0 q 396 -1 399 -1 l 301 83 q 268 70 282 83 q 242 41 254 57 q 216 12 229 25 q 185 -1 203 -1 q 158 15 178 -1 q 114 52 138 31 q 67 97 90 74 q 31 135 44 119 l 21 144 m 182 206 q 219 165 197 186 q 271 143 240 143 q 294 158 290 143 q 299 189 299 172 l 299 300 l 296 300 q 270 289 289 300 q 231 263 251 278 q 196 232 211 247 q 181 208 181 217 l 182 206 m 171 311 q 175 301 171 308 q 182 294 179 294 q 186 296 182 294 q 193 300 190 297 q 209 311 193 300 q 244 337 225 322 q 279 363 263 351 q 299 378 296 375 l 299 556 q 284 567 299 560 q 251 581 269 574 q 215 594 232 589 q 190 600 197 600 q 177 597 183 600 q 171 586 171 594 l 171 583 q 179 510 176 547 q 182 436 182 472 l 171 311 m -17 1056 l 142 1056 l 203 803 l 165 803 l -17 1056 z "},"":{"ha":536,"x_min":15,"x_max":517,"o":"m 21 144 q 17 149 19 146 q 15 156 15 153 l 15 161 q 17 166 15 163 q 21 172 19 169 q 31 179 25 176 q 83 215 64 201 q 111 246 101 229 q 124 287 121 263 q 126 353 126 311 q 120 454 126 403 q 104 556 114 506 q 94 588 101 572 q 86 622 86 604 q 97 635 86 624 q 125 663 108 646 q 161 699 142 679 q 199 734 181 718 q 229 761 217 750 q 246 772 242 772 l 249 772 q 285 751 258 763 q 342 724 311 739 q 401 692 372 710 q 444 656 429 675 l 444 194 q 458 164 446 174 q 483 149 469 154 q 506 138 496 143 q 517 119 517 132 q 516 114 517 117 q 515 111 515 111 l 404 0 q 401 -1 404 0 q 396 -1 399 -1 l 301 83 q 268 70 282 83 q 242 41 254 57 q 216 12 229 25 q 185 -1 203 -1 q 158 15 178 -1 q 114 52 138 31 q 67 97 90 74 q 31 135 44 119 l 21 144 m 182 206 q 219 165 197 186 q 271 143 240 143 q 294 158 290 143 q 299 189 299 172 l 299 300 l 296 300 q 270 289 289 300 q 231 263 251 278 q 196 232 211 247 q 181 208 181 217 l 182 206 m 171 311 q 175 301 171 308 q 182 294 179 294 q 186 296 182 294 q 193 300 190 297 q 209 311 193 300 q 244 337 225 322 q 279 363 263 351 q 299 378 296 375 l 299 556 q 284 567 299 560 q 251 581 269 574 q 215 594 232 589 q 190 600 197 600 q 177 597 183 600 q 171 586 171 594 l 171 583 q 179 510 176 547 q 182 436 182 472 l 171 311 m 258 803 l 319 1056 l 478 1056 l 296 803 l 258 803 z "},"":{"ha":536,"x_min":15,"x_max":517,"o":"m 21 144 q 17 149 19 146 q 15 156 15 153 l 15 161 q 17 166 15 163 q 21 172 19 169 q 31 179 25 176 q 83 215 64 201 q 111 246 101 229 q 124 287 121 263 q 126 353 126 311 q 120 454 126 403 q 104 556 114 506 q 94 588 101 572 q 86 622 86 604 q 97 635 86 624 q 125 663 108 646 q 161 699 142 679 q 199 734 181 718 q 229 761 217 750 q 246 772 242 772 l 249 772 q 285 751 258 763 q 342 724 311 739 q 401 692 372 710 q 444 656 429 675 l 444 194 q 458 164 446 174 q 483 149 469 154 q 506 138 496 143 q 517 119 517 132 q 516 114 517 117 q 515 111 515 111 l 404 0 q 401 -1 404 0 q 396 -1 399 -1 l 301 83 q 268 70 282 83 q 242 41 254 57 q 216 12 229 25 q 185 -1 203 -1 q 158 15 178 -1 q 114 52 138 31 q 67 97 90 74 q 31 135 44 119 l 21 144 m 182 206 q 219 165 197 186 q 271 143 240 143 q 294 158 290 143 q 299 189 299 172 l 299 300 l 296 300 q 270 289 289 300 q 231 263 251 278 q 196 232 211 247 q 181 208 181 217 l 182 206 m 171 311 q 175 301 171 308 q 182 294 179 294 q 186 296 182 294 q 193 300 190 297 q 209 311 193 300 q 244 337 225 322 q 279 363 263 351 q 299 378 296 375 l 299 556 q 284 567 299 560 q 251 581 269 574 q 215 594 232 589 q 190 600 197 600 q 177 597 183 600 q 171 586 171 594 l 171 583 q 179 510 176 547 q 182 436 182 472 l 171 311 m 49 803 l 176 1057 l 322 1057 l 447 803 l 407 803 l 249 949 l 89 803 l 49 803 z "}}}
